<?xml version="1.0" standalone="no"?>
<!DOCTYPE svg PUBLIC "-//W3C//DTD SVG 1.1//EN" "http://www.w3.org/Graphics/SVG/1.1/DTD/svg11.dtd" >
<svg xmlns="http://www.w3.org/2000/svg">
<metadata>
This is a custom SVG webfont generated by Font Squirrel.
Copyright   : Copyright c ShyFonts Type Foundry 2000 All rights reserved
Designer    : ShyFonts Type Foundry
Foundry URL : httpwwwshyfontscom
</metadata>
<defs>
<font id="webfontzHT0sB2D" horiz-adv-x="1155" >
<font-face units-per-em="2048" ascent="1638" descent="-410" />
<missing-glyph horiz-adv-x="600" />
<glyph unicode=" "  horiz-adv-x="600" />
<glyph unicode="&#x09;" horiz-adv-x="600" />
<glyph unicode="&#xa0;" horiz-adv-x="600" />
<glyph unicode="!" horiz-adv-x="663" d="M114.5 96.5q12.5 55.5 59.5 110.5q59 68 121 67q55 0 92 -45q39 -47 27 -102q-16 -68 -70 -113q-59 -49 -123 -49q-49 0 -84 39q-35 37 -22.5 92.5zM252 467q29 135 143 426q121 307 195 414q66 92 145 92q55 0 86 -41q31 -39 19 -94q-15 -80 -86 -252l-111 -256 q-33 -84 -129 -299q-63 -125 -160 -125q-53 0 -84 39q-30 41 -18 96z" />
<glyph unicode="&#x22;" horiz-adv-x="1046" d="M473 1264q12 55 62 96q47 39 106 39t90 -39q33 -41 21 -96q-2 -6 -10.5 -57.5t-16.5 -88.5l-29 -143q-12 -53 -61 -94q-45 -37 -103 -37q-147 0 -59 420zM729 981q18 82 113 285q61 127 166 127q49 0 85.5 -37t24.5 -92q-39 -184 -127 -326q-57 -92 -145 -92 q-57 0 -92 37q-37 40 -25 98z" />
<glyph unicode="#" horiz-adv-x="1660" d="M274 539q20 104 150 135q51 10 207 10q10 49 31 125q-203 -18 -244 -18q-57 0 -86 43q-29 45 -17 96q25 113 158 137q53 8 252 8q10 41 18 99l17 90q12 57 61 96q47 39 107 39q145 0 80 -295q18 2 151 10q6 35 11.5 71t8.5 54t5 25q12 57 61 96q47 39 107 39 q98 0 106 -101q6 -53 -22 -178h123q106 0 152 -34.5t32 -104.5q-12 -57 -62 -100q-47 -41 -106 -41q-10 0 -42 1t-54 1q-18 0 -41 1t-35 2t-19 1l-28 -137q41 0 81 1t59.5 2t25.5 1q59 0 90 -41q29 -39 16 -101q-12 -59 -59 -98q-51 -41 -260 -41l-31 -180q-12 -57 -61 -96 q-47 -39 -103 -39q-104 0 -110 114q-4 51 26 199q-168 -4 -194 -4q-41 -164 -58 -195q-51 -115 -155 -114q-55 0 -91 41q-33 39 -20 96q9 43 43 160q-141 -14 -180 -15q-53 0 -84 43q-29 42 -17 97zM915 702q33 0 89.5 3.5t76.5 3.5l29 127q-115 -4 -168 -9z" />
<glyph unicode="$" horiz-adv-x="1269" d="M158 356q12 58 61 99q47 39 107 39q47 0 135 -18.5t137 -18.5l29.5 85t25.5 81q-168 51 -241.5 123.5t-53.5 168.5q27 131 187 220q125 70 284 100q43 164 179 164q52 0 86 -37q37 -41 24 -94q-4 -16 -6 -27q111 -23 176 -67q95 -65 80 -142q-12 -57 -63 -100 q-55 -45 -111 -45q-22 0 -49 24l-41 37q-18 16 -66 23q-29 -102 -45 -148q299 -117 254 -331q-59 -266 -461 -306q-31 -102 -61 -145q-53 -76 -139 -76q-70 0 -97 51q-18 39 -6 107q8 31 21 61q-82 2 -144 11q-82 10 -133 30q-87 39 -69 131zM688 928q6 -10 51 -21l11 39 q-46 -12 -62 -18zM879 459q86 -9 92 18q6 33 -66 64z" />
<glyph unicode="%" horiz-adv-x="1925" d="M342 969q23 117 160 268q147 162 270 162q174 0 268 -99q100 -102 64 -278q-35 -162 -166 -274q-133 -115 -293 -115q-145 0 -235 92q-99 99 -68 244zM567 104q14 74 582 838l250 336q90 121 176 121q57 0 90 -39t21 -96q-2 -12 -15 -37q-51 -104 -223 -318l-217 -274 l-404 -574q-74 -96 -145 -96q-55 0 -90 41q-37 43 -25 98zM616 961q-6 -27 13.5 -40.5t64.5 -13.5q43 0 84 35q40 34 49 80q8 35 -14 65q-20 27 -61 27q-102 1 -136 -153zM1098 287q31 151 172 276q139 125 291 125q135 0 227 -94q100 -102 70 -240q-33 -158 -172 -272 q-141 -117 -295 -117q-147 0 -232 82q-92 86 -61 240zM1372 311q-8 -39 14.5 -67.5t61.5 -28.5t73.5 28.5t43.5 69.5q8 39 -15 72q-23 31 -59.5 31t-73.5 -31q-35 -29 -45 -74z" />
<glyph unicode="&#x26;" horiz-adv-x="1048" d="M184 434q31 147 185 248q-35 57 -21 127q25 117 139 213q98 80 228 121q68 256 215 256q57 0 88 -41q33 -41 20 -96q-4 -16 -32 -95q182 -31 155 -155q-12 -55 -61 -98.5t-109 -43.5q-41 0 -119 19q-68 16 -118 16q-76 0 -88 -57q-6 -29 67 -41q106 -23 133 -37 q70 -37 52 -123q-29 -133 -226 -133q-4 0 -61 4q-29 2 -64 2q-61 0 -71 -41q-6 -29 18 -45q47 -25 289 -24q57 0 88 -41q31 -40 18 -99q-12 -59 -59 -98t-107 -39h-88q-25 -98 -45 -121q-37 -47 -131 -47q-70 0 -94 53q-20 43 -6 107q4 29 10 43q-248 63 -205 266z" />
<glyph unicode="'" horiz-adv-x="661" d="M438 1264q12 53 64 96q47 39 106.5 39t90 -39t18.5 -96q-2 -6 -10.5 -57.5t-16.5 -88.5q-6 -35 -15 -82t-11 -61q-12 -53 -62 -94q-45 -37 -104 -37q-148 0 -60 420z" />
<glyph unicode="(" horiz-adv-x="722" d="M225 205q-8 172 23 325q96 451 334 742q102 127 188 127q53 0 86 -39t21 -94q-2 -16 -97 -146l-102 -149q-98 -162 -158 -432q-29 -135 -10 -402q0 -29 -2 -37q-12 -53 -62 -94q-51 -41 -104 -41q-108 0 -117 240z" />
<glyph unicode=")" horiz-adv-x="727" d="M133 98q3 22 55 86l74 86q154 199 234 572q18 86 6 338q-4 47 6 84q12 53 61 94q51 41 105 41q109 0 119 -234q6 -160 -29 -323q-94 -446 -334 -748q-102 -129 -186 -129q-55 0 -88 39q-35 41 -23 94z" />
<glyph unicode="*" horiz-adv-x="1298" d="M252 594q18 90 291 254q-176 164 -158 244q12 53 66 98q53 43 108 43q43 0 96 -47q16 -16 72 -80q14 98 29 164q12 55 63 92q52 37 105 37q96 0 108 -105q6 -49 -20 -182q180 106 237 107q55 0 90 -41q33 -39 21 -97q-20 -96 -238 -207q-10 -4 -94 -47q96 -70 225 -188 q49 -57 35 -121q-12 -57 -63 -96t-107 -39q-39 0 -82 35l-67 59q-25 23 -72 62l-20 -95q-12 -59 -61.5 -96t-107 -37t-90 37t-20.5 96l33 158l-164 -115q-55 -35 -100 -34q-58 0 -93 43q-34 43 -22 98z" />
<glyph unicode="+" horiz-adv-x="1081" d="M184 508q12 57 59.5 98t106.5 41q72 0 182 6q16 143 21 160q12 55 63.5 94t104.5 39q94 0 106 -98q8 -49 -18 -178q55 2 141 2q94 0 135 -23q57 -31 39 -121q-12 -57 -59 -96q-49 -39 -104 -39q-20 0 -35 2t-33 2q-25 0 -127 -4q-2 -14 -8 -41q-37 -180 -176 -180 q-88 0 -107 68q-12 45 8 137q-111 -6 -192 -6q-57 0 -88 39q-31 40 -19 98z" />
<glyph unicode="," horiz-adv-x="630" d="M104 -104q6 33 37 71l52 66l69 147q49 80 146 80q59 0 88 -37q31 -39 18 -96q-20 -102 -108 -227q-104 -145 -195 -146q-57 0 -88 43.5t-19 98.5z" />
<glyph unicode="-" d="M315 557q12 55 58 96q45 43 102 43q37 0 64 -2q53 -4 63 -4q74 0 182.5 8.5t182.5 8.5q61 0 89.5 -41t16.5 -98.5t-59 -98.5t-107 -41q-20 0 -196 -8q-133 -6 -199 -6q-115 0 -164 35.5t-33 107.5z" />
<glyph unicode="." horiz-adv-x="641" d="M172 119q12 63 84 116.5t131 53.5q72 0 98 -51q27 -45 11 -111q-14 -63 -68 -113q-51 -49 -121 -49q-59 0 -104 45q-43 43 -31 109z" />
<glyph unicode="/" horiz-adv-x="743" d="M84 92q14 63 104 242l461 893q92 172 195 172q55 0 84 -41q31 -43 18 -94q-8 -47 -287 -600q-272 -541 -321 -609q-68 -90 -143 -90q-51 0 -86 35q-37 37 -25 92z" />
<glyph unicode="0" horiz-adv-x="1376" d="M291 582q55 258 219 503q209 313 455 314q266 0 376 -191q98 -172 43 -438q-57 -274 -262 -518q-238 -287 -506 -287q-233 0 -313 211q-64 169 -12 406zM551 365q25 -129 131 -129q109 0 260 196q141 184 168 318q33 156 -18 260q-59 119 -197 118q-121 -53 -219 -233 q-80 -150 -115 -313q-28 -127 -10 -217z" />
<glyph unicode="1" horiz-adv-x="776" d="M262 100l10 29q55 131 93 315l65 316l59 268q-55 -25 -88 -24q-53 0 -83.5 38.5t-18.5 94.5q12 63 86 114q43 29 162 88q129 59 172 60q63 0 92 -35q31 -37 18 -98l-157 -738q-49 -115 -76 -243q-49 -180 -82 -228q-59 -92 -149 -92q-55 0 -86 39q-29 37 -17 96z" />
<glyph unicode="2" horiz-adv-x="1263" d="M178 227q35 158 248 353q55 53 387 311q207 162 223 229q2 4 -2 6t-11 3t-19 1q-84 0 -244 -67q-49 -88 -139 -88q-59 0 -90 37t-19 98q27 131 233 217q172 72 318 72q131 0 201 -58q82 -70 55 -200q-31 -147 -232 -336q-86 -82 -247 -205q-168 -125 -252 -199 q-117 -102 -125 -145q-2 -10 11 -15t44 -5q90 0 379 51q66 12 115 12q53 0 81.5 -43t16.5 -94q-18 -86 -115 -121q-33 -12 -166 -31q-61 -8 -184 -28q-115 -16 -182 -17q-170 0 -241 65.5t-44 196.5z" />
<glyph unicode="3" horiz-adv-x="1275" d="M201 190q12 57 57 96.5t100 39.5q29 0 107 -45q74 -43 153 -43q233 0 256 98q20 92 -81 149q-45 20 -90.5 38l-86.5 34q-76 35 -57 119q18 82 100 119l152 43q78 23 150 77q82 57 94 113q10 51 -56 80q-55 23 -110 22q-53 0 -162 -28q-100 -27 -141 -27q-57 0 -88 41 q-33 43 -21 96q23 96 205 148q135 39 258 39q184 0 295 -92q125 -104 86 -287q-43 -203 -272 -338q141 -135 98 -338q-39 -182 -227 -291q-158 -88 -342 -88q-127 0 -246 49q-156 67 -131 176z" />
<glyph unicode="4" horiz-adv-x="1245" d="M260 760q23 92 70 237q39 121 67 240q12 55 61.5 92t102.5 37q57 0 88 -37q33 -39 21 -92q-16 -76 -68 -231q-49 -150 -70 -236q-43 -201 60 -201q182 0 289 242q31 68 94 369q70 219 207 219q133 0 100 -166q-37 -174 -100 -430q-66 -268 -101 -428q-9 -46 -24 -142 q-4 -33 -27 -139q-12 -55 -61 -92t-101 -37q-150 0 -94 262q4 16 13.5 58.5l21.5 99.5q-137 -82 -287 -82q-358 0 -262 457z" />
<glyph unicode="5" horiz-adv-x="1298" d="M199 115q16 70 98 100q58 25 135 25q12 0 82 -4q35 -2 80 -3q311 0 342 152q25 115 -338 115q-139 0 -149 293q-6 201 36 407q20 106 213 148q258 51 580 51q53 0 79.5 -41t14.5 -92q-23 -96 -133 -129q-49 -14 -188 -25q-231 -16 -314 -29q-29 -197 -14 -305q18 2 51 2 q197 0 324 -92q150 -106 108 -303q-90 -420 -798 -420q-240 0 -209 150z" />
<glyph unicode="6" horiz-adv-x="1247" d="M268 496q82 383 408 784q98 119 176 119q53 0 88 -37q35 -39 23 -94q-8 -37 -236 -348q53 4 78 4q215 0 350 -125q145 -137 100 -357q-43 -203 -243 -346q-188 -131 -394 -131q-230 0 -319 160q-80 142 -31 371zM537 489q-55 -252 145 -251q94 0 190.5 63.5t114.5 142.5 q18 86 -55 152q-72 59 -170 59q-80 0 -184 -30q-33 -93 -41 -136z" />
<glyph unicode="7" horiz-adv-x="1185" d="M381 96q4 18 14 37q158 319 426 658l119 139q100 121 102 139q6 29 -18.5 45t-81.5 23h-162q-12 0 -123 -4q-55 -2 -122 -3q-59 0 -101 29q-49 37 -33 105q12 49 57.5 92t98.5 43q55 0 98 -2q86 -4 195 -4q274 0 396 -69t93 -208q-22 -108 -227 -368l-276 -355 q-82 -115 -141.5 -227.5t-71.5 -128.5q-53 -72 -127 -72q-53 0 -90 37t-25 94z" />
<glyph unicode="8" horiz-adv-x="1228" d="M260 412q45 217 225 340q-86 117 -53 274q37 170 152 272q113 100 286 101q166 0 269 -109q106 -113 69 -282q-35 -166 -182 -269q176 -152 129 -372q-41 -195 -225 -306q-158 -96 -352 -96q-188 0 -275 131q-82 126 -43 316zM530 406q-12 -63 17 -115q29 -53 82 -53 q203 0 239 165q12 57 -41 110.5t-114 53.5q-59 0 -113 -51q-60 -55 -70 -110zM698 1001q-8 -39 19 -63q29 -25 78 -25q53 0 94 27t51 72q12 51 -22.5 86t-92.5 35q-98 -1 -127 -132z" />
<glyph unicode="9" horiz-adv-x="1124" d="M252 877q40 194 270 362q221 160 414 160q168 0 215 -152q35 -113 -2 -280q-25 -123 -102 -318q-109 -270 -123 -315q-61 -178 -84 -223q-78 -145 -176 -146q-49 0 -84 37q-37 37 -25 90q22 101 147 375q-12 -2 -36 -2q-205 0 -322 96q-135 113 -92 316zM530 864 q-14 -63 22 -94t120 -31q65 0 147 19q45 129 72 250q14 59 10 86q-6 43 -53 43q-96 0 -197 -88.5t-121 -184.5z" />
<glyph unicode=":" horiz-adv-x="663" d="M205 119q12 63 83.5 116.5t131.5 53.5q72 0 98 -51q23 -47 8.5 -111t-67.5 -113t-119 -49q-59 0 -104 45q-43 43 -31 109zM317 711q14 63 56 112q51 57 123 58q57 0 106 -45q47 -43 35 -109q-14 -63 -70 -113q-57 -51 -121 -51q-61 0 -100 41q-41 44 -29 107z" />
<glyph unicode=";" horiz-adv-x="643" d="M104 -104q6 33 37 71l52 66l69 147q49 80 146 80q59 0 88 -37q31 -39 18 -96q-20 -102 -108 -227q-104 -145 -195 -146q-57 0 -88 43.5t-19 98.5zM344 717q12 57 72 114q59 55 121 56q68 0 100 -58q31 -51 18 -114q-12 -59 -67 -101q-53 -39 -113 -39q-61 0 -100 33 q-45 43 -31 109z" />
<glyph unicode="&#x3c;" horiz-adv-x="940" d="M193 598q25 119 167 219l248 150q61 47 160 108q25 12 55 12q59 0 92 -38.5t21 -96.5q-18 -82 -141 -168l-174 -102q-98 -63 -127 -84q41 -45 124 -98q95 -65 130 -92q53 -47 40 -109q-12 -53 -61 -100q-51 -47 -106 -47q-29 0 -64 20q-139 76 -242 172 q-147 141 -122 254z" />
<glyph unicode="=" horiz-adv-x="1222" d="M287 338q20 100 135 139q68 23 190 23q90 4 191 4q78 5 159 9l23 1q53 0 88 -41t23 -96q-25 -115 -164 -139q-25 -4 -197 -5q-45 -10 -157 -18q-88 -8 -156 -8q-82 0 -115.5 32.5t-19.5 98.5zM342 708.5q12 55.5 61 98.5q47 41 105 41q127 0 289 10q194 12 288 12 q57 0 89 -39q31 -40 18 -98q-12 -55 -59.5 -96t-104.5 -41q-95 0 -288.5 -12.5t-288.5 -12.5q-57 0 -89 39q-32 43 -20 98.5z" />
<glyph unicode="&#x3e;" horiz-adv-x="1107" d="M354 289q12 61 111 135q46 31 178 111q96 59 98 75q6 23 -104 74q-90 41 -156 96q-96 82 -82 152q12 57 62 96q51 41 106 41q37 0 92 -37l82 -59l211 -135q115 -96 88 -226q-28 -129 -190 -245q-86 -51 -275 -177q-63 -45 -110 -45q-55 0 -90 43q-33 44 -21 101z" />
<glyph unicode="?" horiz-adv-x="1196" d="M223 115q16 68 78 121q68 57 131 57q68 0 96 -60q25 -51 13 -110q-14 -68 -76 -113q-59 -45 -127 -45q-59 0 -92 45q-35 48 -23 105zM367 512q41 193 260 317q35 18 260 107q205 84 211 115q18 84 -207 84q-65 0 -178 -25q-104 -23 -152 -23q-53 0 -74 52q-18 41 -10 86 q20 96 189 143q111 31 243 31q205 0 338 -64q178 -86 142 -266q-27 -131 -144 -225q-80 -63 -225 -119l-197 -72q-133 -57 -170 -114q-16 -25 -26 -74q-12 -55 -64 -90q-47 -33 -98 -33q-135 0 -98 170z" />
<glyph unicode="@" horiz-adv-x="1705" d="M289 612q68 319 348.5 553t597.5 234q268 0 410 -178q143 -180 84 -451q-41 -186 -148 -334q-139 -190 -321 -190q-180 0 -222 168q-72 -39 -141 -39q-117 0 -182.5 90t-40.5 207q31 147 182 284q152 135 303 136q82 0 148 -54q78 -57 59 -145q-4 -23 -14 -39 q39 -41 20 -119q-6 -35 -33 -96q-25 -57 -32 -98q-8 -45 24 -45q49 0 80 100q23 86 33 137q86 399 -281 400q-158 0 -358.5 -152t-231.5 -305q-92 -436 285 -436q23 0 66 6q57 8 65 8q55 0 88 -37q35 -37 23 -94q-18 -90 -119 -133q-55 -25 -199 -25q-274 0 -413 189 q-139 182 -80 458zM936 657q-2 -8 4 -12t21 -4q40 0 92 49q47 51 75 105q-25 29 -43 28q-47 0 -92 -51.5t-57 -114.5z" />
<glyph unicode="A" horiz-adv-x="1124" d="M90 109q3 9 6 24q127 369 232 578q150 297 370 534q141 154 283 154q211 0 211 -311q0 -141 -43 -345l-23 -90l-18 -88q-14 -61 -35 -233q-18 -147 -35 -234q-12 -57 -63 -94q-55 -39 -107 -39q-66 0 -88 49q-8 14 -18 103q-25 207 -297 274q-28 -71 -80 -215 q-29 -98 -57 -137q-51 -74 -135 -74q-58 0 -87 43q-20 31 -19 68q-1 16 3 33zM580 655q147 -33 256 -114l69 333q10 104 15 125q4 39 4 68q0 34 -6 53l2 6q-28 0 -160 -178q-104 -135 -180 -293z" />
<glyph unicode="B" horiz-adv-x="1095" d="M158 254q22 98 80 246q98 240 98 241q18 53 125 410q-40 33 -41 84q0 15 4 31q27 133 209 133q602 0 602 -324q0 -42 -10 -90q-49 -236 -305 -364q95 -98 95 -217q0 -33 -7 -68q-28 -135 -142 -227q-80 -66 -225 -107q-123 -37 -229 -37q-264 0 -264 203q0 39 10 86z M422 238q25 -4 35 -5q78 0 151 21q104 29 129 82q-16 104 -229 153q-61 -152 -82 -239q-4 -8 -4 -12zM618 780q309 74 334 197q2 9 2 17q0 92 -229 128q-52 -176 -107 -342z" />
<glyph unicode="C" horiz-adv-x="1026" d="M170 422q37 164 115 336q84 184 180 319q229 322 457 322q218 0 217 -243q0 -76 -21 -175q-47 -219 -186 -219q-51 0 -84 37q-26 28 -26 64q0 13 3 26q12 51 21 76l13 52l15 56q10 27 11 39q0 20 -13 21q-102 0 -276 -316q-121 -221 -158 -391q-9 -41 -9 -74 q0 -111 106 -110q59 0 186 77q125 76 168 76q53 0 86 -39q24 -28 24 -66q0 -14 -4 -30q-12 -55 -82 -113q-88 -72 -229 -124q-154 -57 -242 -58q-178 0 -249 152q-37 78 -38 174q1 61 15 131z" />
<glyph unicode="D" horiz-adv-x="1191" d="M180 240q12 55 96 358q49 178 160 535q-57 27 -57 85q0 15 4 31q22 104 135 135q51 14 195 15q293 0 456 -150q140 -124 141 -320q0 -65 -16 -136q-59 -272 -372 -547q-324 -281 -594 -281q-111 0 -146 96q-13 36 -12 83q-1 43 10 96zM467 246q152 49 338 213 q184 164 215 309q13 61 13 109q0 29 -5 53q-23 92 -117 143q-88 47 -209 47q-45 -117 -106 -342q-57 -196 -129 -532z" />
<glyph unicode="E" horiz-adv-x="1103" d="M152 295q41 182 174 459q172 358 206 454q25 70 37 84q22 28 86 56q121 51 447 51q200 0 200 -110q0 -15 -4 -32q-12 -55 -59 -94q-51 -41 -102 -41q-6 0 -67.5 4t-68.5 4q-104 0 -235 -22q-18 -49 -94 -211q172 61 264 61q57 0 88 -36q22 -26 22 -62q0 -14 -4 -31 q-18 -82 -102 -122q-29 -14 -156 -50q-92 -27 -264 -82q-72 -160 -98 -288q-6 -10 -16 -31q-10 -23 2 -23q90 0 264 91q178 92 233.5 92t85.5 -41q24 -31 24 -65q0 -13 -3 -27q-12 -59 -86 -113q-94 -70 -275 -133q-190 -72 -286 -72q-143 0 -197 101q-28 53 -28 126 q0 48 12 103z" />
<glyph unicode="F" horiz-adv-x="960" d="M123 100q33 152 98 383q88 303 105 381q14 49 32 125q23 74 50 121q115 193 313 254q121 35 358 35q127 0 127 -95q0 -17 -4 -38q-12 -55 -57 -94t-103 -39h-63q-193 0 -262 -43q-82 -49 -119 -220q-8 -23 -27 -100q268 104 355 104q57 0 86 -45q20 -31 20 -68 q0 -16 -4 -32q-16 -80 -117 -119q-27 -14 -155 -51l-262 -86l-41 -190q-29 -115 -64 -191q-59 -127 -160 -127q-55 0 -86 41q-24 31 -23 67q0 13 3 27z" />
<glyph unicode="G" horiz-adv-x="1064" d="M201 295q-11 55 -11 116q0 81 19 173q96 453 409 698q152 117 287 117q90 0 168 -56q80 -57 107 -133q8 -23 8 -43q0 -10 -2 -20q-12 -57 -59.5 -98t-104.5 -41q-51 0 -90 59q-39 61 -72 61q-129 0 -250 -210q-94 -162 -129 -324q-15 -76 -15 -137q0 -57 13 -103 q33 -119 142 -118q88 0 147 81q-18 43 -82 43q-10 0 -18 -2h-19q-53 0 -82 41q-22 31 -22 66q0 14 4 29q14 72 84 106q51 29 115 29q137 0 227 -84q73 -69 73 -167q0 -32 -8 -67q-31 -141 -192 -248q-147 -98 -288.5 -98t-244.5 103q-85 90 -114 227z" />
<glyph unicode="H" horiz-adv-x="1206" d="M137 100q29 137 99 375q106 371 108 377q53 203 82 340q43 207 184 207q57 0 88 -37q22 -26 22 -64q0 -15 -3 -30l-107 -500q205 51 361 63q31 94 69 279q45 145 64 184q51 104 149 105q57 0 88 -39q24 -31 24 -67q0 -13 -3 -27q-47 -213 -227 -797q-12 -37 -95 -313 q-58 -190 -184 -191q-55 0 -86 41q-22 29 -22 66q0 15 4 30q20 92 135 453q-158 -20 -369 -70q-47 -162 -78 -309q-66 -211 -194 -211q-53 0 -88 41q-24 28 -24 65q0 13 3 29z" />
<glyph unicode="I" horiz-adv-x="903" d="M156 63q25 111 188 148q37 221 70 385q35 168 131 522q-33 -4 -47 -4q-51 0 -86 37q-26 28 -26 67q0 13 3 27q35 156 318 156q139 0 170 -2q171 -16 171 -116q0 -14 -4 -30q-12 -55 -59 -94t-104 -39q-39 0 -64 4q-102 -379 -127 -499l-80 -373q63 -6 95 -39 q24 -28 23 -65q0 -13 -3 -27q-23 -92 -107 -123q-39 -16 -159 -33q-41 -6 -107 -20q-74 -18 -100 -19q-55 0 -80 43q-19 33 -19 69q1 12 3 25z" />
<glyph unicode="J" horiz-adv-x="1013" d="M109 303q12 55 61 92t102 37q45 0 93 -47l69 -78q68 -74 119 -74q131 0 254 578q34 161 34 256q0 21 -1 39q-104 -35 -183 -35q-55 0 -82 39q-22 31 -21 65q0 13 3 27q12 61 55 94q20 16 95 41q199 61 278 62q113 0 121 -242q2 -38 2 -74q0 -134 -27 -258 q-117 -549 -282 -727q-123 -133 -285 -133q-117 0 -233 74q-115 72 -158 172q-17 41 -17 70q1 12 3 22z" />
<glyph unicode="K" horiz-adv-x="1136" d="M133 104q23 115 100 359l113 360q29 100 68 291q45 141 65 180q53 104 150 105q55 0 86 -39q24 -31 23 -67q0 -13 -3 -27q-20 -90 -73 -281q420 426 491 426q55 0 86 -41q22 -29 22 -62q0 -14 -4 -30q-23 -98 -286 -330q-268 -233 -287 -317q-4 -15 -4 -32q0 -76 84 -167 l190 -174q88 -83 88 -144q0 -9 -2 -18q-12 -59 -63 -98q-53 -41 -105 -41q-57 0 -196 135q-86 82 -148 162q-33 37 -55 78q-25 -100 -82 -254q-53 -113 -158 -113q-57 0 -83 43q-20 31 -20 66q-1 14 3 30z" />
<glyph unicode="L" horiz-adv-x="987" d="M182 326q18 78 76 258q78 246 119 438q51 201 63 231q61 145 170 146q57 0 88 -39q24 -31 24 -67q0 -13 -3 -27v1q-2 0 -94 -339q-2 -6 -82 -301q-88 -281 -101 -340q-6 -29 -6 -45q0 -6 -6 -6q74 0 391 210q82 53 125 54q53 0 88 -41q24 -28 24 -65q0 -14 -3 -29 q-12 -55 -80 -111q-120 -98 -295 -184q-205 -104 -324 -105q-192 0 -192 213q0 65 18 148z" />
<glyph unicode="M" horiz-adv-x="1536" d="M119 102q10 55 164 414l186 416l154 321q74 145 184 146q77 0 98 -74q7 -30 7 -94q0 -21 -1 -45q-8 -146 -7 -312q0 -113 3 -235q96 215 152 324l135 258q43 86 70 118q53 59 120 60q90 0 105 -88q2 -13 2 -33q0 -50 -12 -129q-14 -100 -15 -254l6 -397q1 -53 1 -99 q0 -230 -13 -297q-12 -59 -55 -96q-47 -41 -103 -41q-84 0 -106 74q-6 19 -6 59q0 33 4 84q3 49 3 168.5t-3 306.5q-127 -268 -211 -481q-37 -88 -70 -137q-51 -74 -131 -74q-68 0 -98 55q-16 37 -23 115q-23 264 -24 555q-137 -307 -211 -508q-41 -104 -70 -143 q-55 -74 -137 -74q-57 0 -84 43q-18 29 -18 62q0 15 4 32z" />
<glyph unicode="N" horiz-adv-x="1292" d="M129 96q51 246 180 621q145 426 269 592q66 90 143 90q109 0 110 -131q0 -35 -36 -213q-41 -250 -58 -463q-6 -78 -6 -140q0 -225 80 -225q78 0 156 166q51 109 77.5 238t28.5 317q2 201 27 316q12 55 57 94q47 41 100 41q109 0 119 -158q0 -4 1 -10q0 -45 -19 -234 q-34 -332 -43 -368q-35 -174 -129 -340q-78 -135 -172 -217q-123 -111 -254 -111q-254 0 -291 391q-25 -94 -35 -141q-53 -246 -198 -246q-53 0 -86 39q-24 28 -24 65q0 13 3 27z" />
<glyph unicode="O" horiz-adv-x="1288" d="M217 569q61 293 229 529q215 301 494 301q262 0 377 -170q70 -104 70 -254q0 -78 -19 -168q-61 -285 -272 -541q-248 -301 -525 -301q-229 0 -323 203q-49 106 -50 235q0 78 19 166zM485 569q-14 -66 -13 -119q0 -126 77 -184q39 -29 74 -28q147 0 303 211 q139 190 176 364q11 54 11 98q0 215 -261 215q-109 0 -236 -229q-102 -189 -131 -328z" />
<glyph unicode="P" horiz-adv-x="1196" d="M137 100q43 207 131 514q111 389 138 514q-37 32 -37 82q0 16 4 33q23 111 188 141q70 14 246 15q213 0 356 -78q151 -87 152 -240q0 -36 -8 -75q-49 -223 -330 -394q-213 -129 -479 -188q0 -2 -8.5 -30.5l-30 -101.5l-41.5 -147q-49 -180 -176 -180q-53 0 -84 41 q-24 31 -24 67q0 13 3 27zM586 707q414 123 452 303q2 7 2 14q0 104 -338 104h-24z" />
<glyph unicode="Q" horiz-adv-x="1288" d="M207 614q59 274 231 502q215 283 480 283q274 0 387 -232q66 -129 66 -287q0 -90 -21 -190q-43 -199 -164 -366q-133 -182 -318 -281q22 -112 23 -157q0 -14 -2 -23q-12 -53 -62 -94q-47 -39 -102 -39q-115 0 -133 235h-6h-7q-244 0 -341 213q-51 112 -52 250 q0 87 21 186zM471 426q18 -96 74 -150v7q-7 39 -7 69q0 19 3 33q12 51 61 92q47 39 103 39q113 0 131 -207q195 141 245 381q12 60 12 115q0 59 -14 115q-27 113 -110 174q-51 39 -97 39q-125 0 -254 -193q-113 -168 -145 -330q-11 -49 -11 -97q0 -44 9 -87z" />
<glyph unicode="R" horiz-adv-x="1210" d="M223 96l80 377q70 207 154 606h12q-55 0 -86 41q-22 29 -22 63q0 14 4 29q23 98 172 150q115 37 229 37q274 0 428 -158q116 -123 116 -303q0 -67 -16 -141q-68 -319 -454 -473q134 -115 133 -201q0 -12 -2 -23q-10 -53 -64 -92q-49 -37 -102 -37q-39 0 -80 35 q-74 74 -213 178l-4 -24q-41 -195 -178 -195q-53 0 -86 39q-24 28 -24 65q0 13 3 27zM618 514q371 109 408 289q4 21 4 42q0 84 -74 163q-86 96 -202 120q-38 -153 -136 -614z" />
<glyph unicode="S" horiz-adv-x="1144" d="M117 199q12 55 57 94t100 39q12 0 54 -10v2l6 -5q61 -20 164 -51q111 -33 227 -32q70 0 80 40q3 13 2 28q0 83 -94 204l-207 254q-86 128 -86 240q0 31 6 61q33 160 205 256q143 80 299 80q125 0 215 -51q106 -59 131 -166q4 -14 4 -31q0 -16 -4 -37q-10 -51 -59 -92 q-45 -39 -102.5 -39t-110.5 72q-55 74 -132 73q-162 0 -178 -65q-1 -5 -1 -11q0 -54 102 -178q158 -190 209 -274q76 -136 76 -259q0 -41 -9 -81q-31 -145 -168 -225q-117 -70 -258 -70q-96 0 -260 33q-178 37 -231 86q-40 38 -41 86q1 14 4 29z" />
<glyph unicode="T" horiz-adv-x="1138" d="M311 1227q25 115 168 141q25 4 223 4q43 8 252 29q168 16 248 16q158 0 158 -102q0 -17 -4 -37q-29 -133 -207 -133q-100 0 -201 -6l-98 -471q-96 -373 -117 -473q-49 -229 -190 -230q-55 0 -88 39q-22 26 -22 62q0 14 3 30l10.5 50.5l16.5 79l31 143.5q94 332 145 571 q12 63 37 174q-158 -16 -262 -16q-57 0 -84 37q-22 29 -22 64q0 14 3 28z" />
<glyph unicode="U" horiz-adv-x="1212" d="M250 256q-14 73 -14 161q0 151 40 341q96 442 175 549q68 92 147 92q57 0 86 -41q22 -31 22 -66q0 -14 -4 -30q-6 -27 -61 -170q-41 -96 -94 -344q-37 -178 -38 -295q0 -220 136 -220q236 0 379 682q14 72 29 172q16 127 26 173q12 53 55.5 96t102.5 43q117 0 117 -148 q0 -63 -37 -235q-225 -1051 -731 -1051q-277 0 -336 291z" />
<glyph unicode="V" horiz-adv-x="1148" d="M346 1233q-2 9 -1.5 15.5t1.5 13.5q12 49 60 94q45 43 102 43q80 0 110 -92q21 -68 21 -162v-23l-6 -194q0 -92 14 -367l408 656q55 92 82 120q59 61 127 62q52 0 86 -37q24 -26 24 -64q0 -14 -4 -30q-10 -43 -82 -148l-94 -137q-227 -328 -502 -836q-96 -182 -203 -182 q-90 0 -112 203v281v39q0 116 -15 354q-16 295 -16 391z" />
<glyph unicode="W" horiz-adv-x="1574" d="M362 1233q0 23 3 31q12 53 59 94t102 41q115 0 116 -137q0 -10 -1 -21q-2 -8 -3 -26.5t-1 -28.5q-1 -16 -1 -65q0 -77 3 -208q0 -2 4 -290q145 305 219 501q35 92 66 138q53 72 125 71q94 0 108 -82q3 -13 3 -31q0 -48 -17 -124q-29 -211 -35 -504l328 602q49 90 84 131 q61 74 133 74q53 0 84 -39q24 -31 23 -67q0 -13 -3 -27q-20 -92 -186 -377l-225 -379l-197 -365q-96 -180 -199 -180q-84 0 -108 90q-11 38 -11 121q0 18 1 37q0 6 4 233l-162 -323q-37 -76 -72 -113q-47 -53 -119 -53q-78 0 -98 74q-10 31 -10 139q3 86 3 186q0 159 -7 344 q-13 381 -13 533z" />
<glyph unicode="X" horiz-adv-x="1107" d="M127 133q14 72 418 580q-98 383 -98 520q0 25 4 41q12 57 65 92q53 33 100 33q74 0 105 -86q14 -41 55 -316q262 334 373 334q57 0 86 -41q24 -33 24 -69q0 -13 -4 -27q-10 -45 -198 -256l-211 -238l115 -352q51 -156 51 -227q0 -14 -2 -25q-12 -55 -58 -92 q-49 -39 -102 -39q-111 0 -225 451l-205 -285q-102 -133 -191 -133q-59 0 -86 39q-20 29 -20 64q0 15 4 32z" />
<glyph unicode="Y" horiz-adv-x="1290" d="M389 1245q12 63 53 105q45 49 113 49q109 0 107 -137l-35 -281q-5 -37 -5 -69q0 -111 58 -152q25 -18 45 -19q29 0 76 25q90 43 174 164q78 109 121 223q41 102 65 141q53 72 133 72q109 0 113 -149q0 -70 -35 -234q-74 -346 -151 -516q-133 -295 -377 -436 q-115 -66 -226 -66q-57 0 -90 37q-26 28 -25 66q0 13 3 28q25 111 172 144q23 4 57 14q162 57 273 362q-156 -143 -328 -143q-334 0 -334 417q0 150 43 355z" />
<glyph unicode="Z" horiz-adv-x="1249" d="M242 190q31 147 229 353q88 92 358 325q190 166 203 219q1 5 1 9q0 33 -62 39q1 0 1 -1q0 -2 -106 -1q-55 0 -161.5 -6.5t-161.5 -6.5q-175 0 -176 106q0 15 4 31q31 139 233 140h121q31 0 72 1t51 1q205 0 332 -51q155 -62 155 -192q0 -25 -6 -52q-20 -94 -135 -223 q-82 -90 -240 -232l-213 -190q-131 -123 -192 -211q34 -6 67 -6q92 0 193 16q27 4 192 37q33 4 89 4q53 0 81 -41q20 -29 20 -61q0 -14 -3 -29q-23 -104 -287 -164q-176 -39 -344 -39q-117 0 -217 53q-102 53 -102 140q1 15 4 32z" />
<glyph unicode="[" horiz-adv-x="854" d="M195 109q39 176 104 385q94 303 111 385l4 16q4 16 16 72.5l23 105.5q25 117 49 178q18 45 45 76q20 23 74 45q66 27 186 27q53 0 88 -37q33 -37 20 -92q-25 -121 -174 -144q-127 -532 -239 -893h24q88 0 126 -33.5t24 -101.5q-12 -55 -57.5 -94t-104.5 -39h-123 q-227 1 -196 144z" />
<glyph unicode="\" horiz-adv-x="798" d="M319 1266q12 53 60 94q45 39 102 39q72 0 103 -64q14 -29 26 -123l125 -796q41 -274 31 -318q-12 -53 -61 -94q-47 -39 -103 -39q-76 0 -108 94q-14 37 -33 158q-31 272 -47 397l-64 334q-47 246 -31 318z" />
<glyph unicode="]" horiz-adv-x="858" d="M227 96q25 121 176 146q125 532 238 888h-68q-57 0 -86 41q-31 43 -18 95q12 59 59 96q45 37 213 37q240 0 209 -144q-29 -131 -104 -381q-88 -274 -111 -385q-2 2 -14 -52t-35 -167q-18 -90 -41 -153q-33 -88 -121 -123q-74 -29 -188 -29q-53 0 -88 37q-33 35 -21 94z " />
<glyph unicode="^" horiz-adv-x="1044" d="M240 559q12 55 211 393q201 342 241 383q61 63 125 64q70 0 107 -64q53 -94 77 -358q20 -262 29 -393q3 -28 0 -43q-12 -55 -65 -95q-49 -35 -105 -34q-86 0 -110 90q-14 43 -17 162q-4 92 -12 251l-111 -225q-76 -139 -133 -201q-63 -63 -129 -63q-57 0 -88 39 q-30 41 -20 94z" />
<glyph unicode="_" horiz-adv-x="1142" d="M227 -35l43 205h670l-43 -205h-670z" />
<glyph unicode="`" horiz-adv-x="649" d="M481 1755q12 58 68 98q49 35 106 35q61 0 99 -57q123 -199 106 -270q-14 -59 -59 -101q-49 -43 -107 -43q-63 0 -106 64q-37 53 -70 135q-45 104 -37 139z" />
<glyph unicode="a" horiz-adv-x="1153" d="M100 109q0 2 2 10t4 14q127 369 232 578q150 297 371 534q141 154 280 154q211 0 211 -311q0 -141 -43 -345q-16 -74 -20 -90l-19 -88q-14 -61 -35 -233q-18 -147 -34 -234q-12 -57 -64 -94q-55 -39 -106 -39q-68 0 -88 49q-10 25 -19 103q-25 207 -297 274 q-28 -71 -80 -215q-29 -98 -57 -137q-51 -74 -135 -74q-58 0 -86 43q-20 31 -20 68q-1 16 3 33zM590 655q147 -33 256 -114l69 333q10 104 15 125q4 39 4 68q0 34 -6 53l2 6q-28 0 -160 -178q-104 -135 -180 -293z" />
<glyph unicode="b" horiz-adv-x="1122" d="M172 254q18 86 82 246q96 236 96 241q18 53 125 410q-38 34 -38 84q0 15 3 31q27 133 207 133q602 0 602 -323q0 -42 -10 -91q-49 -238 -305 -364q97 -100 97 -219q0 -32 -7 -66q-27 -133 -143 -227q-82 -66 -224 -107q-123 -37 -231 -37q-264 0 -264 203q0 39 10 86z M436 238q25 -4 35 -5q80 0 154 21q104 29 129 82q-18 104 -230 153q-68 -162 -84 -239q-4 -8 -4 -12zM635 780q309 74 334 197q2 9 1 17q0 92 -231 128q-65 -225 -104 -342z" />
<glyph unicode="c" horiz-adv-x="1052" d="M182 422q33 152 115 336q80 181 178 319q229 322 459 322q218 0 218 -243q0 -76 -22 -175q-47 -219 -186 -219q-51 0 -84 37q-26 28 -25 64q0 13 3 26q2 4 4 18.5t6 28.5l8 29l31 108q2 6 5 19.5t5 19.5q0 20 -12 21q-104 0 -279 -316q-119 -215 -155 -391q-9 -41 -9 -74 q0 -111 105 -110q57 0 184 77q125 76 168 76q55 0 88 -39q24 -28 24 -66q0 -14 -3 -30q-12 -55 -82 -113q-88 -72 -230 -124q-154 -57 -241 -58q-178 0 -250 152q-37 78 -37 174q0 61 14 131z" />
<glyph unicode="d" horiz-adv-x="1216" d="M197 240q20 94 96 358q66 238 158 535q-57 27 -57 85q0 15 3 31q20 104 138 135q51 14 192 15q295 0 459 -150q140 -124 140 -320q0 -65 -15 -136q-58 -270 -375 -547q-324 -281 -594 -281q-111 0 -145 96q-12 33 -12 77t12 102zM465 246q168 47 354 213q184 164 215 309 q14 68 15 115q0 26 -5 47q-20 92 -118 143q-88 47 -207 47q-45 -117 -236 -803q-4 -10 -8 -28z" />
<glyph unicode="e" horiz-adv-x="1124" d="M162 295q41 182 174 459q169 350 209 454q27 74 35 84q20 27 88 56q121 51 442 51q202 0 202 -110q0 -15 -3 -32q-12 -53 -59.5 -94t-102.5 -41q-6 0 -67.5 4t-67.5 4q-106 0 -238 -22q-29 -74 -92 -211q170 61 264 61q55 0 86 -36q24 -28 24 -64q0 -13 -3 -29 q-18 -82 -103 -122q-29 -14 -155 -50q-96 -27 -263 -82q-80 -176 -102 -288q-4 -10 -14 -31q-10 -23 2 -23q90 0 264 91q178 92 233.5 92t85.5 -41q25 -33 26 -68q0 -12 -3 -24q-12 -59 -88 -113q-94 -70 -274 -133q-190 -72 -287 -72q-143 0 -197 101q-28 53 -28 126 q0 48 12 103z" />
<glyph unicode="f" horiz-adv-x="976" d="M137 100q33 152 99 383q96 344 104 381q14 49 33 125q23 74 49 121q115 195 311 254q121 35 359 35q129 0 129 -96q0 -17 -4 -37q-12 -55 -57.5 -94t-102.5 -39h-66q-188 0 -260 -43q-82 -49 -119 -220q-8 -23 -26 -100q266 104 352 104q59 0 88 -45q20 -31 20 -68 q0 -16 -4 -32q-16 -80 -116 -119q-25 -12 -158 -51l-260 -86l-41 -190q-27 -106 -66 -191q-59 -127 -157 -127q-55 0 -86 41q-24 31 -24 67q0 13 3 27z" />
<glyph unicode="g" horiz-adv-x="1083" d="M209 295q-11 55 -11 116q0 81 19 173q96 453 410 698q151 117 288 117q92 0 168 -56q78 -55 105 -133q9 -19 9 -40q0 -12 -3 -23q-12 -57 -59.5 -98t-104.5 -41q-51 0 -90 59q-39 61 -72 61q-129 0 -250 -210q-94 -162 -129 -324q-15 -76 -14 -137q0 -57 12 -103 q33 -119 142 -118q88 0 145 81q-18 43 -80 43q-10 0 -18 -2h-19q-53 0 -82 41q-22 31 -21 66q0 14 3 29q14 72 84 106q51 29 115 29q133 0 227 -84q73 -71 73 -169q0 -31 -7 -65q-31 -141 -193 -248q-147 -98 -289 -98q-139 0 -241 103q-92 96 -117 227z" />
<glyph unicode="h" horiz-adv-x="1230" d="M150 100q29 137 98 375q106 371 108 377q41 158 80 340q43 207 187 207q55 0 86 -37q24 -28 23 -67q0 -14 -3 -27l-106 -500q207 51 360 63q31 94 70 279q45 145 63 184q51 104 150 105q57 0 88 -39q22 -29 22 -64q0 -14 -4 -30q-51 -236 -225 -797q-12 -37 -94 -313 q-58 -190 -185 -191q-55 0 -86 41q-22 29 -22 66q0 15 4 30q27 121 133 453q-152 -18 -367 -70q-47 -162 -77 -309q-66 -211 -195 -211q-53 0 -88 41q-24 28 -24 65q1 13 4 29z" />
<glyph unicode="i" horiz-adv-x="542" d="M119 100q31 147 102 394l115 393q37 145 47 194q41 129 76 197q61 121 157 121q55 0 86 -39q24 -31 24 -67q0 -13 -3 -27q-27 -131 -107 -379q-96 -291 -120 -377q-49 -170 -80 -317q-49 -227 -191 -228q-55 0 -86 41q-24 31 -23 67q0 13 3 27z" />
<glyph unicode="j" horiz-adv-x="1028" d="M111 303q12 55 61 92t104 37q45 0 93 -47l67 -78q68 -74 121 -74q131 0 254 578q34 158 34 263q0 17 -1 32q-109 -35 -182 -35q-57 0 -84 39q-20 29 -20 62q0 14 3 30q12 63 55 94q20 16 95 41q199 61 278 62q109 0 121 -242q1 -29 1 -57q0 -147 -28 -275 q-117 -551 -280 -727q-123 -133 -285 -133q-117 0 -233.5 74t-159.5 172q-17 41 -17 70q1 12 3 22z" />
<glyph unicode="k" d="M141 104q23 115 101 359l112 360q37 129 70 291q45 139 63 180q53 104 150 105q55 0 86 -39q24 -31 24 -67q0 -13 -4 -27q-27 -121 -71 -281q420 426 489 426q55 0 86 -41q22 -29 22 -62q0 -14 -3 -30q-23 -98 -287 -330q-266 -231 -285 -317q-4 -16 -4 -33 q0 -77 82 -166l191 -174q88 -83 88 -144q0 -9 -2 -18q-12 -59 -64 -98q-53 -41 -104 -41q-61 0 -197 135q-86 82 -147 162q-25 31 -54 78q-20 -84 -84 -254q-53 -113 -157 -113q-58 0 -86 43q-18 29 -19 62q0 16 4 34z" />
<glyph unicode="l" horiz-adv-x="997" d="M193 326q23 100 73 258q78 246 119 438q51 201 64 231q61 145 172 146q55 0 86 -39q22 -29 22 -64q0 -14 -4 -30q0 1 0.5 1t-92.5 -339q-25 -104 -82 -301q-88 -291 -98 -340q-8 -37 -9 -45q0 -6 -6 -6q72 0 393 210q82 53 123 54q53 0 88 -41q24 -28 24 -65 q0 -14 -3 -29q-12 -53 -82 -111q-120 -98 -295 -184q-207 -104 -321 -105q-190 0 -191 211q1 65 19 150z" />
<glyph unicode="m" horiz-adv-x="1550" d="M125 102q10 55 164 414l184 416q55 119 156 321q74 145 182 146q78 0 100 -74q7 -30 7 -94v-45q-8 -146 -8 -312q0 -113 3 -235q96 215 152 324l133 258q41 80 72 118q53 59 121 60q90 0 104 -88q2 -13 2 -33q0 -50 -12 -129q-12 -86 -12 -254l6 -397q1 -53 0 -99 q0 -230 -13 -297q-12 -57 -57 -96q-47 -41 -102 -41q-86 0 -107 74q-6 19 -6 59q0 33 4 84q3 49 3 168.5t-3 306.5q-127 -268 -211 -481q-37 -88 -69 -137q-52 -74 -130 -74q-70 0 -100 55q-16 37 -22 115q-23 264 -25 555q-137 -307 -211 -508q-41 -104 -70 -143 q-55 -74 -135 -74q-57 0 -84 43q-20 31 -20 65q0 14 4 29z" />
<glyph unicode="n" horiz-adv-x="1308" d="M137 96q55 261 178 621q145 426 269 592q68 90 143 90q109 0 111 -131q0 -35 -37 -213q-41 -250 -58 -463q-6 -78 -6 -140q0 -225 80 -225t156 166q55 117 80 238q25 119 26 317q2 201 27 316q12 55 57 94q47 41 102.5 41t87.5 -43t32 -123q0 -28 -21 -236 q-34 -332 -43 -368q-37 -180 -127 -340q-76 -131 -174 -217q-123 -111 -252 -111q-256 0 -295 391q-12 -47 -33 -141q-53 -246 -198 -246q-53 0 -86 39q-22 26 -22 62q-1 14 3 30z" />
<glyph unicode="o" horiz-adv-x="1300" d="M225 569q61 297 228 529q215 301 493 301q262 0 377 -170q70 -104 70 -254q0 -78 -19 -168q-63 -287 -270 -541q-248 -301 -526 -301q-227 0 -322 203q-49 106 -49 235q-1 78 18 166zM494 569q-14 -66 -14 -120q0 -125 75 -183q39 -29 76 -28q147 0 303 211 q137 186 174 364q11 54 11 98q0 215 -261 215q-109 0 -235 -229q-98 -183 -129 -328z" />
<glyph unicode="p" horiz-adv-x="1210" d="M143 100q37 176 133 514q104 362 136 514q-35 32 -35 81q0 16 4 34q23 111 188 141q70 14 242 15q215 0 358 -78q151 -87 152 -240q0 -36 -8 -75q-51 -225 -330 -394q-213 -129 -477 -188q0 -2 -8.5 -30.5l-30 -101.5l-41.5 -147q-49 -180 -176 -180q-55 0 -86 41 q-24 31 -24 67q0 13 3 27zM592 707q414 123 452 303q2 7 2 14q0 104 -337 104h-25z" />
<glyph unicode="q" horiz-adv-x="1296" d="M211 614q59 274 231 502q215 283 480 283q274 0 387 -232q66 -129 66 -287q0 -90 -21 -190q-43 -199 -164 -366q-133 -182 -318 -281q22 -112 23 -157q0 -14 -2 -23q-12 -53 -62 -94q-47 -39 -102 -39q-115 0 -133 235h-6h-7q-244 0 -341 213q-51 115 -51 253 q0 87 20 183zM473 426q18 -94 76 -150v7q-6 48 -6 75q0 16 2 27q12 53 59 92t103 39q115 0 133 -207q195 141 245 381q12 60 12 115q0 59 -14 115q-27 113 -110 174q-51 39 -96 39q-125 0 -254 -193q-115 -172 -148 -330q-11 -49 -11 -97q0 -44 9 -87z" />
<glyph unicode="r" horiz-adv-x="1218" d="M227 96l80 377q76 236 154 606h10q-53 0 -84 41q-24 31 -24 65q0 13 4 27q23 98 174 150q115 37 229 37q274 0 428 -158q116 -123 116 -303q0 -67 -16 -141q-68 -319 -454 -473q132 -113 131 -200q0 -12 -2 -24q-12 -55 -61.5 -92t-102.5 -37q-41 0 -82 35 q-80 80 -211 178l-4 -24q-41 -195 -178 -195q-53 0 -86 39q-24 28 -24 65q0 13 3 27zM623 514q371 109 407 289q4 20 4 40q0 83 -73 165q-90 96 -203 120q-37 -153 -135 -614z" />
<glyph unicode="s" horiz-adv-x="1153" d="M121 199q12 55 57 94t101 39q12 0 53 -10v2l6 -5q61 -20 164 -51q111 -33 227 -32q70 0 80 40q3 13 3 28q0 83 -95 204l-209 254q-85 126 -85 238q0 32 7 63q35 162 203 256q144 80 301 80q125 0 215 -51q104 -58 129 -166q5 -18 5 -38q0 -15 -3 -30q-10 -51 -59 -92 q-45 -39 -102.5 -39t-110.5 72q-55 74 -131 73q-164 0 -181 -65q-1 -5 -1 -11q0 -54 104 -178q158 -190 209 -274q76 -132 76 -256q0 -42 -9 -84q-31 -145 -170 -225q-117 -70 -258 -70q-94 0 -258 33q-182 37 -231 86q-40 40 -40 88q0 13 3 27z" />
<glyph unicode="t" horiz-adv-x="1142" d="M313 1227q25 114 166 141q25 4 226 4q43 8 251 29q168 16 248 16q156 0 156 -102q0 -17 -4 -37q-29 -133 -207 -133q-96 0 -199 -6l-100 -471q-86 -332 -115 -473q-49 -229 -190 -230q-55 0 -88 39q-22 26 -22 62q0 14 3 30l10.5 50.5l16.5 79l31 143.5q86 301 143 571 q6 29 10 46.5l11.5 51l17.5 76.5q-158 -16 -262 -16q-58 0 -86 37q-20 27 -20 61q-1 15 3 31z" />
<glyph unicode="u" horiz-adv-x="1253" d="M266 256q-13 70 -13 154q0 151 42 348q96 446 172 549q68 92 149 92q57 0 86 -41q22 -31 22 -66q0 -14 -3 -30q-6 -27 -62 -170q-45 -106 -96 -344q-37 -176 -37 -292q0 -223 138 -223q233 0 378 682q10 45 26.5 172t27.5 173q12 53 55 96t102 43q117 0 117 -148 q0 -63 -37 -235q-225 -1051 -731 -1051q-277 0 -336 291z" />
<glyph unicode="v" horiz-adv-x="1153" d="M346 1233q-2 12 2 29q12 51 58 94t104 43q78 0 108 -92q21 -68 21 -164v-23q-2 -33 -3 -96t-1 -96q0 -92 14 -367l408 656q51 90 82 120q57 61 127 62q52 0 86 -37q24 -26 24 -64q0 -14 -4 -30q-10 -43 -82 -148l-96 -137q-219 -315 -500 -836q-96 -182 -202 -182 q-94 0 -113 203v281v39q0 116 -14 354q-15 276 -19 391z" />
<glyph unicode="w" horiz-adv-x="1579" d="M367 1233q0 23 2 31q12 55 57 94q47 41 102 41q117 0 117 -143v-15q-4 -27 -6 -55q-1 -10 -1 -34q0 -50 5 -239q0 -2 4 -290q135 283 217 501q35 92 66 138q53 72 127 71q94 0 108 -82q2 -11 3 -26q0 -45 -19 -129q-31 -219 -33 -504l328 602q43 82 84 131q61 74 131 74 q55 0 86 -39q24 -31 24 -67q0 -13 -4 -27q-20 -92 -186 -377l-227 -379l-195 -365q-96 -180 -201 -180q-84 0 -108 90q-9 31 -9 108q0 23 1 50q0 6 4 233l-162 -323q-37 -76 -72 -113q-47 -53 -118 -53q-77 0 -99 74q-10 31 -10 139q2 68 2 156q0 148 -6 374 q-12 381 -12 533z" />
<glyph unicode="x" horiz-adv-x="1110" d="M129 133q14 72 418 580q-98 383 -98 520q0 25 4 41q12 57 65 92q53 33 100 33q74 0 105 -86q14 -41 55 -316q262 334 373 334q57 0 86 -41q24 -33 24 -69q0 -13 -4 -27q-10 -45 -198 -256l-211 -238q23 -76 115 -352q51 -156 51 -227q0 -14 -2 -25q-12 -55 -58 -92 q-49 -39 -102 -39q-111 0 -225 451l-205 -285q-102 -133 -191 -133q-59 0 -86 39q-20 29 -20 64q0 15 4 32z" />
<glyph unicode="y" horiz-adv-x="1230" d="M344 1245q12 66 51 105q47 49 115 49q109 0 106 -137q-16 -123 -34 -281q-4 -34 -4 -63q0 -116 57 -158q25 -18 45 -19q28 0 74 25q90 43 174 164q78 109 121 223q41 102 65 141q53 72 133 72q109 0 113 -149q0 -78 -33 -234q-72 -338 -153 -516q-133 -295 -377 -436 q-115 -66 -226 -66q-55 0 -88 37q-26 28 -25 66q0 13 3 28q25 111 170 144q23 4 57 14q164 59 275 362q-156 -143 -330 -143q-332 0 -332 417q0 150 43 355z" />
<glyph unicode="z" horiz-adv-x="1251" d="M242 190q31 145 231 353q88 92 358 325q190 166 203 219q1 5 1 9q0 33 -62 39q4 -2 -17.5 -2h-87.5q-53 0 -161.5 -6.5t-161.5 -6.5q-175 0 -176 106q0 15 4 31q31 139 233 140h121q31 0 71 1t50 1q207 0 334 -51q156 -61 155 -190q0 -26 -6 -54q-20 -94 -135 -223 q-82 -90 -240 -232q-178 -156 -213 -190q-131 -123 -192 -211q34 -6 67 -6q90 0 191 16q27 4 192 37q33 4 91 4q51 0 79 -41q22 -31 22 -64q0 -13 -3 -26q-23 -104 -287 -164q-176 -39 -344 -39q-121 0 -217 53q-104 54 -104 141q1 15 4 31z" />
<glyph unicode="{" horiz-adv-x="1189" d="M340 612q29 133 281 170q-57 172 -37 279q37 172 229 266q150 72 326 72q55 0 86 -37q29 -35 16 -96q-20 -96 -123 -127q-61 -8 -180 -29q-80 -18 -86 -47q-10 -49 29 -160q41 -119 24 -192q-16 -70 -76 -109q37 -43 23 -117q-12 -51 -68 -100q-72 -66 -84 -84 q25 -31 107 -51q94 -25 121 -41q55 -33 39 -109q-12 -53 -62 -94q-51 -41 -102 -41q-162 0 -275 82q-135 98 -102 260q16 78 100 152q-98 16 -137 37q-67 36 -49 116z" />
<glyph unicode="|" horiz-adv-x="737" d="M358 -35q-137 0 140 1303q16 57 61 94q47 37 103 37q57 0 87.5 -37t18.5 -94l-106 -492l-107 -493l-18 -93l-19 -94q-12 -55 -57 -92q-50 -39 -103 -39z" />
<glyph unicode="}" horiz-adv-x="1187" d="M236 106q15 77 79 111q45 23 131 29q88 6 113 18q59 25 66 62q10 45 -31 149q-41 106 -27 174q16 68 76 107q-35 49 -18 118q20 96 139 193q-18 28 -98 49q-98 23 -121 39q-55 33 -39 111q12 55 59 94t103 39q162 0 274 -82q135 -98 100 -262q-18 -88 -94 -152 q106 -18 152.5 -58t34.5 -102q-29 -133 -279 -163q57 -162 37 -269q-37 -174 -229 -268q-152 -74 -326 -74q-59 0 -86 39q-28 41 -16 98z" />
<glyph unicode="~" horiz-adv-x="1421" d="M250 391q35 158 176 293q154 147 311 147q152 0 195 -120q10 -25 4 -82l-12 -88q-6 -72 37 -72q72 0 110 86q20 43 41 145q31 154 154 154q57 0 92 -41q31 -37 18 -96q-49 -236 -155 -350q-127 -139 -363 -140q-104 0 -133 84q-14 41 -14 170q0 76 -25 76q-61 0 -111 -80 l-81 -147q-55 -80 -134 -80q-61 0 -92 39q-30 41 -18 102z" />
<glyph unicode="&#xa2;" horiz-adv-x="1228" d="M242 639q43 203 215 365q168 156 377 198q63 197 194 197q61 0 90 -43q29 -45 17 -99q-8 -37 -23 -63q193 -68 211 -279q2 -23 0 -41q-12 -53 -55 -92q-46 -43 -99 -43q-96 0 -108 109q-4 35 -4 55q-8 20 -47 27l-189 -473q115 4 215 22q4 0 10.5 1t8.5 1q57 0 90 -39 t20 -96q-23 -94 -123 -133q-102 -39 -342 -39q-51 -117 -63 -135q-49 -74 -129 -74q-58 0 -92 37q-39 39 -27 100q8 39 47 127q-260 111 -194 410zM512 629q-15 -71 43 -123l158 381q-168 -98 -201 -258z" />
<glyph unicode="&#xa3;" horiz-adv-x="1536" d="M231 668q8 45 50 88q45 51 98 51q14 0 29 -2q92 -20 178 -21q-6 104 6 160q43 205 176 326q137 129 342 129q106 0 186 -33q113 -45 134 -129q8 -35 2 -66q-12 -59 -66 -100q-55 -43 -111 -43q-23 0 -88 47q-63 45 -122.5 45t-108.5 -47t-66 -112q-14 -55 0 -177h73 t63.5 1t54 1h46h36h27h14.5h12q57 0 88 -38q31 -40 19 -99q-12 -55 -59.5 -96t-104.5 -41h-242q0 -84 -14 -143q-14 -68 -49 -127h53q68 0 209 6q188 8 211 8q57 0 88 -41q31 -40 18 -98q-12 -57 -59 -98.5t-107 -41.5q-72 0 -213 -6t-215 -6q-279 0 -379 51q-84 43 -65 129 q14 68 69 107q2 2 13.5 7t37 17.5l52.5 26.5q53 27 59 66q12 59 4 139q-115 0 -141 2q-78 2 -137 18q-124 27 -101 140z" />
<glyph unicode="&#xa5;" horiz-adv-x="1337" d="M287 152q31 147 268 147l23 90q-98 -4 -129 -4q-57 0 -89 41q-31 39 -18 96q18 86 98 123q-88 121 -32 385q41 193 84 268q51 100 167 101q57 0 86 -41q31 -43 19 -96.5t-37 -135.5t-37 -135q-20 -104 6 -153q29 -49 125 -50q133 0 201 89q51 61 86 225q2 12 14 78 q6 31 17 80q12 57 55 96q47 43 102 43q115 0 134 -90q10 -57 -21 -213q-61 -283 -248 -437q45 -43 31 -110q-12 -57 -59.5 -98t-106.5 -41h-158l-18 -88q98 6 135 6q55 0 90 -41q33 -39 21 -97q-23 -102 -144 -135q-57 -14 -202 -14q-57 -76 -136 -76q-74 0 -100 64 q-63 -8 -94 -9q-82 0 -114.5 33t-18.5 99z" />
<glyph unicode="&#xa9;" horiz-adv-x="1916" d="M360 649q61 285 326 518q262 231 551 232q334 0 496 -254q154 -240 84 -574q-61 -285 -332 -454q-242 -152 -529 -152q-307 0 -479 185q-183 194 -117 499zM627 641q-39 -190 82 -303q111 -104 315 -105q172 0 324 91q166 98 196 251q43 203 -59 375q-109 182 -299 183 q-166 0 -344 -160t-215 -332zM743 631q37 168 191 291q152 121 326 120q182 0 151 -139q-28 -135 -141 -135q-4 0 -21 4q-8 2 -18 2q-77 0 -141 -43q-59 -39 -76 -110q-9 -49 80 -50q59 0 92 9q25 4 28 4q55 0 88 -39t21 -94q-31 -145 -260 -146q-156 0 -250 78 q-105 86 -70 248z" />
<glyph unicode="&#xad;" d="M315 557q12 55 58 96q45 43 102 43q37 0 64 -2q53 -4 63 -4q74 0 182.5 8.5t182.5 8.5q61 0 89.5 -41t16.5 -98.5t-59 -98.5t-107 -41q-20 0 -196 -8q-133 -6 -199 -6q-115 0 -164 35.5t-33 107.5z" />
<glyph unicode="&#xae;" horiz-adv-x="1738" d="M307 688q61 281 266 486q225 225 502 225q336 0 518 -180q199 -193 127 -531q-61 -295 -288 -500q-240 -215 -533 -215q-291 0 -473 213q-180 211 -119 502zM575 682q-41 -182 91 -315q0 18 2 26q20 86 28.5 119t28.5 119q4 16 14.5 62l26.5 120q-90 18 -86 107 q-78 -109 -105 -238zM827 262q66 -23 144 -22q61 0 121 18l-29.5 19.5t-32 22.5l-47.5 34l-57 33q-38 -80 -99 -105zM924 1106q70 14 131 14q145 0 233 -65q100 -80 69.5 -231.5t-202.5 -252.5l8 -4q143 -74 146 -159q113 127 145 286q37 180 -78 307q-117 129 -301 129 q-79 1 -151 -24zM1028 782q57 27 64 62q2 10 -5.5 15t-27.5 5h-15z" />
<glyph unicode="&#xb4;" horiz-adv-x="661" d="M440 1561q6 33 121 151q109 111 154 143q51 37 100 37q59 0 90 -37q35 -41 23 -98q-8 -43 -60 -96q-55 -57 -188 -180q-72 -63 -131.5 -63.5t-90 43t-18.5 100.5z" />
<glyph unicode="&#x2000;" horiz-adv-x="944" />
<glyph unicode="&#x2001;" horiz-adv-x="1892" />
<glyph unicode="&#x2002;" horiz-adv-x="944" />
<glyph unicode="&#x2003;" horiz-adv-x="1892" />
<glyph unicode="&#x2004;" horiz-adv-x="630" />
<glyph unicode="&#x2005;" horiz-adv-x="471" />
<glyph unicode="&#x2006;" horiz-adv-x="313" />
<glyph unicode="&#x2007;" horiz-adv-x="313" />
<glyph unicode="&#x2008;" horiz-adv-x="235" />
<glyph unicode="&#x2009;" horiz-adv-x="376" />
<glyph unicode="&#x200a;" horiz-adv-x="104" />
<glyph unicode="&#x2010;" d="M315 557q12 55 58 96q45 43 102 43q37 0 64 -2q53 -4 63 -4q74 0 182.5 8.5t182.5 8.5q61 0 89.5 -41t16.5 -98.5t-59 -98.5t-107 -41q-20 0 -196 -8q-133 -6 -199 -6q-115 0 -164 35.5t-33 107.5z" />
<glyph unicode="&#x2011;" d="M315 557q12 55 58 96q45 43 102 43q37 0 64 -2q53 -4 63 -4q74 0 182.5 8.5t182.5 8.5q61 0 89.5 -41t16.5 -98.5t-59 -98.5t-107 -41q-20 0 -196 -8q-133 -6 -199 -6q-115 0 -164 35.5t-33 107.5z" />
<glyph unicode="&#x2012;" d="M315 557q12 55 58 96q45 43 102 43q37 0 64 -2q53 -4 63 -4q74 0 182.5 8.5t182.5 8.5q61 0 89.5 -41t16.5 -98.5t-59 -98.5t-107 -41q-20 0 -196 -8q-133 -6 -199 -6q-115 0 -164 35.5t-33 107.5z" />
<glyph unicode="&#x2013;" d="M315 557q12 55 58 96q45 43 102 43q37 0 64 -2q53 -4 63 -4q74 0 182.5 8.5t182.5 8.5q61 0 89.5 -41t16.5 -98.5t-59 -98.5t-107 -41q-20 0 -196 -8q-133 -6 -199 -6q-115 0 -164 35.5t-33 107.5z" />
<glyph unicode="&#x2014;" horiz-adv-x="1427" d="M324 557q12 53 59 96t100 43q35 0 64 -2q57 -4 63 -4q125 0 311.5 8.5t313.5 8.5q57 0 88 -41q29 -37 16 -99q-12 -57 -59 -98t-104 -41q-37 0 -328 -8q-217 -6 -328 -6q-227 0 -196 143z" />
<glyph unicode="&#x2018;" horiz-adv-x="645" d="M387 1266q12 59 66 96q51 37 108 37q74 0 101 -64l51 -110q49 -115 39 -162q-12 -55 -68 -96q-53 -39 -109 -39q-76 0 -100 65q-104 197 -88 273z" />
<glyph unicode="&#x2019;" horiz-adv-x="821" d="M438 1047q6 34 86 147q47 72 103 137q61 68 133 68q57 0 88 -39q31 -41 18 -96q-12 -49 -84 -154q-61 -92 -104 -137q-61 -68 -123 -68q-55 0 -92 41.5t-25 100.5z" />
<glyph unicode="&#x201c;" horiz-adv-x="1173" d="M436 1266q12 59 66 96q51 37 106 37q74 0 101 -64l51 -110q49 -115 39 -162q-12 -57 -65.5 -96t-108.5 -39q-78 -12 -103 65q-102 193 -86 273zM850 1253q12 55 68 99q53 41 108 41q59 0 94 -62q16 -33 99 -180q25 -45 16 -90q-12 -59 -64 -100q-55 -45 -106 -46 q-45 0 -86 41t-86 134q-55 110 -43 163z" />
<glyph unicode="&#x201d;" horiz-adv-x="1114" d="M393 1047q6 31 88 147q55 84 101 137q61 68 133 68q57 0 88 -39q33 -43 20 -96q-10 -45 -86 -154q-68 -100 -102 -137q-61 -68 -125 -68q-55 0 -92 41.5t-25 100.5zM768 1040q6 31 33 66l147 199q63 94 152 94q55 0 88 -39t20 -96q-8 -45 -88 -160q-70 -100 -112 -141 q-63 -63 -131 -64q-53 0 -89 43q-32 43 -20 98z" />
<glyph unicode="&#x2022;" horiz-adv-x="1165" d="M305 633q33 164 146 270q123 113 286 113q184 0 305 -123q129 -133 91 -315q-33 -160 -181 -269q-145 -109 -301 -108q-197 0 -293 116q-96 119 -53 316z" />
<glyph unicode="&#x2026;" horiz-adv-x="1589" d="M209 118.5q12 63.5 84 117t131 53.5q70 0 96 -51q25 -49 10 -111q-14 -63 -67 -112.5t-121 -49.5q-49 33 -100 64q-45 26 -33 89.5zM690 156q12 61 84 114.5t131 53.5q72 0 99 -52q25 -45 10 -108.5t-70 -112.5t-121 -49q-61 0 -104 43q-45 45 -29 111zM1110 113 q16 68 53 112q51 57 123 58q61 0 109 -43q45 -43 32 -111q-14 -63 -69 -113q-57 -51 -121 -51q-61 0 -100 43q-41 46 -27 105z" />
<glyph unicode="&#x202f;" horiz-adv-x="376" />
<glyph unicode="&#x205f;" horiz-adv-x="471" />
<glyph unicode="&#x20ac;" horiz-adv-x="1705" d="M168 389q20 100 143 131q65 18 197 19q14 53 33 98h-97q-100 0 -143 18q-70 31 -51 119q12 59 59 96q47 39 105 39q27 0 49 -2h49q61 0 168 8q135 211 315 338q203 145 424 146q125 0 221 -66q100 -70 119 -188q6 -37 0 -66q-12 -55 -59 -92q-49 -39 -103 -39 q-74 0 -112 92q-37 90 -119 90q-72 0 -168 -53q-102 -55 -174 -125q154 16 244 17q53 0 84 -43q33 -45 20 -95q-12 -57 -61 -96q-51 -41 -105 -41q-43 0 -215 -18l-168 -17q-29 -59 -43 -118q242 8 305 8q59 0 86 -39q31 -43 19 -94q-22 -95 -105 -123q-45 -18 -155 -19 q-66 0 -101 -2q57 -33 158 -32q94 0 201 22l201 45q8 2 20 2q57 0 84 -43q31 -47 18 -98q-18 -86 -120 -125q-199 -78 -465 -78q-168 0 -281 72q-125 76 -156 221q-88 -4 -215 -4q-55 0 -86 41q-32 41 -20 94z" />
<glyph unicode="&#x2122;" horiz-adv-x="1933" d="M420 1249q18 86 112 111q45 12 158 12q45 0 203 14q135 12 203 13q115 0 125 -72q45 61 112 62q59 0 78 -60q10 -31 6 -108q-8 -145 -2 -375q82 186 219 440q55 102 133 103q72 0 84 -70q4 -29 -8 -127q-14 -90 -10 -238q2 -39 5 -117.5t5 -117.5q4 -139 4 -146 q0 -88 -14 -153q-8 -47 -43 -84q-37 -41 -90 -41q-68 0 -86 57q-8 29 -2 113q8 111 2 321q-82 -172 -144 -325q-68 -166 -159 -166q-86 0 -99 131q-14 184 -18 383q-89 -200 -141 -344q-33 -82 -56 -113q-43 -57 -108 -57q-47 0 -70 35q-20 33 -12 76q23 106 340 788 q-35 -14 -94 -14q-68 0 -142 -6l-17 -79t-21.5 -103.5l-34.5 -168.5q-63 -246 -84 -350q-37 -178 -156 -178q-41 0 -70 31q-27 29 -16 75q8 41 43 205q72 256 109 428q14 57 24 121q-123 -12 -186 -12q-47 0 -70 31q-20 30 -12 75z" />
<glyph unicode="&#xe000;" horiz-adv-x="1400" d="M0 1400h1400v-1400h-1400v1400z" />
<glyph unicode="&#xfb01;" horiz-adv-x="1519" d="M1098 100q31 147 102 394l115 393q37 145 47 194q41 129 76 197q61 121 157 121q55 0 86 -39q24 -31 24 -67q0 -13 -3 -27q-27 -131 -107 -379q-96 -291 -120 -377q-49 -170 -80 -317q-49 -227 -191 -228q-55 0 -86 41q-24 31 -23 67q0 13 3 27zM137 100q33 152 99 383 q96 344 104 381q14 49 33 125q23 74 49 121q115 195 311 254q121 35 359 35q129 0 129 -96q0 -17 -4 -37q-12 -55 -57.5 -94t-102.5 -39h-66q-188 0 -260 -43q-82 -49 -119 -220q-8 -23 -26 -100q266 104 352 104q59 0 88 -45q20 -31 20 -68q0 -16 -4 -32q-16 -80 -116 -119 q-25 -12 -158 -51l-260 -86l-41 -190q-27 -106 -66 -191q-59 -127 -157 -127q-55 0 -86 41q-24 31 -24 67q0 13 3 27z" />
<glyph unicode="&#xfb02;" horiz-adv-x="1974" d="M1172 326q23 100 73 258q78 246 119 438q51 201 64 231q61 145 172 146q55 0 86 -39q22 -29 22 -64q0 -14 -4 -30q0 1 0.5 1t-92.5 -339q-25 -104 -82 -301q-88 -291 -98 -340q-8 -37 -9 -45q0 -6 -6 -6q72 0 393 210q82 53 123 54q53 0 88 -41q24 -28 24 -65 q0 -14 -3 -29q-12 -53 -82 -111q-120 -98 -295 -184q-207 -104 -321 -105q-190 0 -191 211q1 65 19 150zM137 100q33 152 99 383q96 344 104 381q14 49 33 125q23 74 49 121q115 195 311 254q121 35 359 35q129 0 129 -96q0 -17 -4 -37q-12 -55 -57.5 -94t-102.5 -39h-66 q-188 0 -260 -43q-82 -49 -119 -220q-8 -23 -26 -100q266 104 352 104q59 0 88 -45q20 -31 20 -68q0 -16 -4 -32q-16 -80 -116 -119q-25 -12 -158 -51l-260 -86l-41 -190q-27 -106 -66 -191q-59 -127 -157 -127q-55 0 -86 41q-24 31 -24 67q0 13 3 27z" />
<glyph unicode="&#xfb03;" horiz-adv-x="2498" d="M2075 100q31 147 102 394l115 393q37 145 47 194q41 129 76 197q61 121 157 121q55 0 86 -39q24 -31 24 -67q0 -13 -3 -27q-27 -131 -107 -379q-96 -291 -120 -377q-49 -170 -80 -317q-49 -227 -191 -228q-55 0 -86 41q-24 31 -23 67q0 13 3 27zM1116 100q33 152 99 383 q96 344 104 381q14 49 33 125q23 74 49 121q115 195 311 254q121 35 359 35q129 0 129 -96q0 -17 -4 -37q-12 -55 -57.5 -94t-102.5 -39h-66q-188 0 -260 -43q-82 -49 -119 -220q-8 -23 -26 -100q266 104 352 104q59 0 88 -45q20 -31 20 -68q0 -16 -4 -32q-16 -80 -116 -119 q-25 -12 -158 -51l-260 -86l-41 -190q-27 -106 -66 -191q-59 -127 -157 -127q-55 0 -86 41q-24 31 -24 67q0 13 3 27zM137 100q33 152 99 383q96 344 104 381q14 49 33 125q23 74 49 121q115 195 311 254q121 35 359 35q129 0 129 -96q0 -17 -4 -37q-12 -55 -57.5 -94 t-102.5 -39h-66q-188 0 -260 -43q-82 -49 -119 -220q-8 -23 -26 -100q266 104 352 104q59 0 88 -45q20 -31 20 -68q0 -16 -4 -32q-16 -80 -116 -119q-25 -12 -158 -51l-260 -86l-41 -190q-27 -106 -66 -191q-59 -127 -157 -127q-55 0 -86 41q-24 31 -24 67q0 13 3 27z" />
<glyph unicode="&#xfb04;" horiz-adv-x="2953" d="M2149 326q23 100 73 258q78 246 119 438q51 201 64 231q61 145 172 146q55 0 86 -39q22 -29 22 -64q0 -14 -4 -30q0 1 0.5 1t-92.5 -339q-25 -104 -82 -301q-88 -291 -98 -340q-8 -37 -9 -45q0 -6 -6 -6q72 0 393 210q82 53 123 54q53 0 88 -41q24 -28 24 -65 q0 -14 -3 -29q-12 -53 -82 -111q-120 -98 -295 -184q-207 -104 -321 -105q-190 0 -191 211q1 65 19 150zM1116 100q33 152 99 383q96 344 104 381q14 49 33 125q23 74 49 121q115 195 311 254q121 35 359 35q129 0 129 -96q0 -17 -4 -37q-12 -55 -57.5 -94t-102.5 -39h-66 q-188 0 -260 -43q-82 -49 -119 -220q-8 -23 -26 -100q266 104 352 104q59 0 88 -45q20 -31 20 -68q0 -16 -4 -32q-16 -80 -116 -119q-25 -12 -158 -51l-260 -86l-41 -190q-27 -106 -66 -191q-59 -127 -157 -127q-55 0 -86 41q-24 31 -24 67q0 13 3 27zM137 100 q33 152 99 383q96 344 104 381q14 49 33 125q23 74 49 121q115 195 311 254q121 35 359 35q129 0 129 -96q0 -17 -4 -37q-12 -55 -57.5 -94t-102.5 -39h-66q-188 0 -260 -43q-82 -49 -119 -220q-8 -23 -26 -100q266 104 352 104q59 0 88 -45q20 -31 20 -68q0 -16 -4 -32 q-16 -80 -116 -119q-25 -12 -158 -51l-260 -86l-41 -190q-27 -106 -66 -191q-59 -127 -157 -127q-55 0 -86 41q-24 31 -24 67q0 13 3 27z" />
</font>
</defs>
</svg>
