<?xml version="1.0" standalone="no"?>
<!DOCTYPE svg PUBLIC "-//W3C//DTD SVG 1.1//EN" "http://www.w3.org/Graphics/SVG/1.1/DTD/svg11.dtd" >
<svg xmlns="http://www.w3.org/2000/svg">
<metadata>
This is a custom SVG webfont generated by Font Squirrel.
Copyright   : Copyright c ShyFonts Type Foundry 2000 All rights reserved
Designer    : ShyFonts Type Foundry
Foundry URL : httpwwwshyfontscom
</metadata>
<defs>
<font id="webfontJoRyRWUV" horiz-adv-x="1443" >
<font-face units-per-em="2048" ascent="1638" descent="-410" />
<missing-glyph horiz-adv-x="751" />
<glyph unicode=" "  horiz-adv-x="751" />
<glyph unicode="&#x09;" horiz-adv-x="751" />
<glyph unicode="&#xa0;" horiz-adv-x="751" />
<glyph unicode="!" horiz-adv-x="829" d="M137.5 96.5q12.5 53.5 69.5 110.5q68 68 145 67q74 0 121 -45q51 -47 39 -102q-16 -66 -84 -113q-72 -49 -149 -49q-63 0 -108.5 39t-33 92.5zM289 467q27 125 157 426q133 309 220 414q76 92 180 92q68 0 108.5 -41t28.5 -94q-14 -76 -96 -252l-121 -256 q-23 -51 -148 -299q-74 -125 -192 -125q-70 0 -109 39q-40 41 -28 96z" />
<glyph unicode="&#x22;" horiz-adv-x="1310" d="M524 1264q12 55 72 96q57 39 133 39q72 0 113 -39q43 -39 30 -96q-23 -121 -26 -146q-8 -53 -27 -143q-12 -55 -71 -94q-57 -37 -127 -37q-185 0 -97 420zM862 981q18 90 123 285q66 127 201 127q65 0 110 -37q47 -37 35 -92q-40 -187 -141 -326q-68 -92 -176 -92 q-74 0 -117 37q-47 41 -35 98z" />
<glyph unicode="#" horiz-adv-x="2074" d="M313 539q20 104 181 135q61 10 258 10l13 56.5t17 68.5q-252 -18 -303 -18q-72 0 -108 43q-39 45 -27 96q25 113 193 137q61 8 311 8q10 41 18 99l17 90q12 57 71.5 96t130.5 39q180 0 115 -295q43 4 189 4q6 35 11 73t8 57t5 26q12 57 71.5 96t131.5 39q119 0 137 -101 q9 -55 -18 -178h153q268 0 238 -139q-12 -57 -74 -100q-59 -41 -129 -41q-12 0 -52 1t-67 1q-25 0 -53.5 1t-42.5 2t-22 1l-31 -137q51 0 101 1t76 2t32 1q72 0 112.5 -41t28.5 -101q-12 -57 -71.5 -98t-319.5 -41q-12 -92 -31 -180q-12 -59 -70 -96q-59 -39 -129 -39 q-131 0 -145 114q-6 43 27 199q-104 -2 -244 -2q-39 -156 -64 -197q-59 -115 -188 -114q-68 0 -113 41q-43 41 -30 96q12 53 45 160q-178 -14 -226 -15q-66 0 -106 43q-39 44 -27 97zM1106 702q41 0 112.5 3.5t96.5 3.5l26 127q-82 -2 -206 -2z" />
<glyph unicode="$" horiz-adv-x="1587" d="M178 356q12 59 71.5 98.5t131.5 39.5q61 0 172 -18.5t170 -18.5h2q33 84 59 166q-211 51 -308 123.5t-77 168.5q27 129 224 220q156 72 348 100q45 164 213 164q66 0 112.5 -37t34.5 -94q-4 -16 -6 -27q137 -23 225 -67q123 -63 107 -142q-12 -57 -76 -100 q-68 -45 -133 -45q-31 0 -64 24l-55 37q-25 16 -82 23q-10 -39 -49 -148q190 -59 274 -142t62 -189q-59 -266 -559 -306q-33 -100 -72 -145q-63 -76 -170 -76q-88 0 -121 51q-27 41 -14 107q8 31 20 61q-102 2 -178 11q-104 10 -168 30q-112 39 -94 131zM811 928 q8 -10 66 -21l10 39q-39 -8 -76 -18zM1073 459q111 -10 117 18q6 33 -86 64z" />
<glyph unicode="%" horiz-adv-x="2406" d="M377 969q25 121 184 268q174 162 332 162q217 0 340 -99q129 -102 92 -278q-35 -160 -195 -274q-162 -115 -358 -115q-180 0 -297 92q-129 99 -98 244zM705 104q14 72 681 838l293 336q109 121 217 121q72 0 113 -39q43 -41 31 -96q-4 -20 -15 -37q-66 -109 -264 -318 l-256 -274q-168 -217 -473 -574q-86 -96 -178 -96q-68 0 -114.5 41t-34.5 98zM721 961q-12 -53 100 -54q51 0 103 35q47 33 57 80q10 37 -23 65q-29 27 -77 27q-126 1 -160 -153zM1356 287q31 150 200 276q168 125 361 125q168 0 289 -94q127 -102 96 -240 q-33 -160 -199 -272q-170 -117 -362 -117q-184 0 -293 82q-123 89 -92 240zM1700 311q-10 -41 20 -67q33 -29 78 -29q51 0 92 29q43 29 52 69q8 39 -23 72q-31 31 -78 31t-90 -31q-41 -29 -51 -74z" />
<glyph unicode="&#x26;" horiz-adv-x="1308" d="M207 434q31 147 217 248q-49 59 -35 127q25 119 166 213q115 80 274 121q72 256 258 256q66 0 111 -41q43 -39 31 -96q-8 -37 -35 -95q117 -16 168 -54t37 -101q-12 -55 -73.5 -98.5t-133.5 -43.5q-51 0 -150 19q-88 16 -151 16q-92 0 -105 -57q-4 -14 18.5 -24.5 t69.5 -16.5q129 -22 166 -37q88 -37 70 -123q-29 -133 -272 -133q-8 0 -78 4q-35 2 -78 2q-80 0 -90 -41q-6 -31 26 -45q61 -25 363 -24q70 0 111 -41t28 -99q-12 -59 -69.5 -98t-128.5 -39h-111q-25 -96 -49 -121q-43 -47 -164 -47q-86 0 -121 53q-25 43 -10 107 q4 29 10 43q-313 63 -270 266z" />
<glyph unicode="'" horiz-adv-x="819" d="M483 1264q12 55 72 96q57 39 131 39q76 0 115 -39q41 -41 28 -96q-23 -121 -26 -146q-8 -53 -27 -143q-12 -55 -71 -94q-57 -37 -127 -37q-183 0 -95 420z" />
<glyph unicode="(" horiz-adv-x="905" d="M272 205q-20 166 13 325q96 451 377 742q121 127 229 127q70 0 110.5 -39t28.5 -94q-2 -18 -110 -146l-123 -149q-113 -160 -172 -432q-27 -131 6 -402q4 -29 2 -37q-12 -53 -74 -94q-63 -41 -129 -41q-133 0 -158 240z" />
<glyph unicode=")" horiz-adv-x="907" d="M160 98q4 23 63 86l88 86q178 197 260 572q18 82 -10 338q-6 49 2 84q12 53 74 94q63 41 129 41q138 0 160 -234q14 -164 -19 -323q-94 -449 -379 -748q-119 -129 -225 -129q-66 0 -110.5 39t-32.5 94z" />
<glyph unicode="*" horiz-adv-x="1624" d="M283 594q18 90 348 254q-225 162 -207 244q12 57 74 98q65 43 135 43q55 0 125 -47l94 -80q18 123 27 164q12 57 73 92q63 37 127 37q120 0 142 -105q10 -45 -17 -182q219 106 291 107q70 0 115 -41q43 -41 30 -97q-20 -98 -282 -207q-6 -2 -117 -47q113 -63 291 -188 q66 -57 51 -121q-12 -57 -75.5 -96t-131.5 -39q-49 0 -104 35q-74 49 -88 59l-92 62l-21 -95q-12 -59 -72 -96q-57 -37 -133 -37q-72 0 -114 37q-41 35 -29 96l33 158l-201 -115q-68 -35 -123 -34q-68 0 -114.5 43t-34.5 98z" />
<glyph unicode="+" horiz-adv-x="1351" d="M205 508q12 58 67 98q57 41 131 41h228q12 154 16 166q12 55 75.5 94t127.5 39q119 0 139 -98q14 -51 -12 -178q68 2 176 2q119 0 170 -23q74 -31 55 -121q-12 -57 -69 -96q-59 -39 -129 -39q-25 0 -43.5 2t-40.5 2h-158q-2 -14 -10 -45q-37 -180 -209 -180 q-111 0 -135 68q-20 43 0 137q-138 -6 -240 -6q-74 0 -112.5 39t-26.5 98z" />
<glyph unicode="," horiz-adv-x="780" d="M131 -104q6 29 45 71l60 66l79 147q55 80 174 80q78 0 115 -37q41 -41 29 -96q-23 -106 -125 -227q-121 -145 -236 -146q-71 0 -110 43q-43 46 -31 99z" />
<glyph unicode="-" d="M365 557q12 53 67 96t125 43q45 0 80 -2q70 -4 80 -4q90 0 227 8.5t227 8.5q74 0 115 -41q39 -39 27 -99q-12 -57 -71.5 -98t-129.5 -41q-25 0 -246 -8q-166 -6 -248 -6q-143 0 -205 35.5t-48 107.5z" />
<glyph unicode="." horiz-adv-x="800" d="M207 119q12 66 98 117q88 53 162 53q88 0 127 -51q31 -43 14 -111q-16 -66 -78 -113q-63 -49 -145 -49q-74 0 -135 45q-55 41 -43 109z" />
<glyph unicode="/" horiz-adv-x="929" d="M98 92q12 57 119 242l531 893q104 172 233 172q68 0 106 -41q41 -43 29 -94q-10 -53 -328 -600q-319 -550 -368 -609q-80 -90 -176 -90q-61 0 -107 35q-51 39 -39 92z" />
<glyph unicode="0" horiz-adv-x="1718" d="M334 582q55 261 246 503q246 313 553 314q332 0 479 -191q133 -170 78 -438q-57 -274 -299 -518q-281 -287 -619 -287q-293 0 -401 211q-88 175 -37 406zM670 582q-27 -121 2 -217q41 -129 168 -129q137 0 315 196q168 182 195 318q33 154 -39 260q-78 119 -252 118 q-145 -53 -260 -233q-94 -145 -129 -313z" />
<glyph unicode="1" horiz-adv-x="966" d="M311 1137q12 61 103 114q59 33 196 88q156 59 213 60q76 0 117 -35t29 -98l-158 -738q-59 -123 -84 -243q-49 -180 -88 -228q-66 -92 -182 -92q-70 0 -109 39t-26 96l12 29q59 135 96 315l68 316l57 268q-65 -25 -104 -24q-70 0 -109 38q-43 44 -31 95z" />
<glyph unicode="2" horiz-adv-x="1576" d="M211 227q35 158 291 353q68 55 467 311q252 164 268 229q3 10 -45 10q-106 0 -299 -67q-57 -88 -170 -88q-70 0 -113 37q-41 37 -28 98q27 131 280 217q209 72 391 72q164 0 254 -58q106 -70 80 -200q-31 -147 -270 -336q-121 -94 -299 -205q-227 -141 -307 -199 q-137 -100 -148 -145q-2 -8 6.5 -12t23.5 -6t42 -2q109 0 469 51q80 12 143 12q68 0 105 -43t24 -94q-18 -88 -135 -121q-41 -12 -205 -31l-229 -28q-143 -16 -229 -17q-211 0 -303.5 65.5t-63.5 196.5z" />
<glyph unicode="3" horiz-adv-x="1593" d="M240 190q12 57 67 97q53 39 123 39q35 0 135 -45q94 -43 195 -43q293 0 315 98q20 90 -112 149l-224 72q-94 33 -75 119q18 84 116 119l189 43q94 20 182 77q98 59 111 113q10 51 -74 80q-68 23 -139 22q-66 0 -199 -28q-125 -27 -176 -27q-66 0 -111 41q-43 41 -31 96 q23 96 246 148q164 39 324 39q225 0 368 -92q164 -104 125 -287q-43 -203 -321 -338q182 -133 139 -338q-39 -184 -268 -291q-193 -88 -422 -88q-162 0 -311 49q-197 67 -172 176z" />
<glyph unicode="4" horiz-adv-x="1556" d="M287 760q18 82 73 237q53 152 74 240q12 55 71.5 92t127.5 37q71 0 110 -37q41 -37 29 -92q-14 -70 -72 -231q-55 -158 -73 -236q-43 -201 86 -201q221 0 344 242q39 78 100 369q74 219 246 219q170 0 135 -166q-25 -115 -102 -430q-82 -328 -103 -428q-9 -46 -24 -142 q-14 -84 -25 -139q-12 -55 -70 -92q-59 -37 -124 -37q-186 0 -132 262l33 158q-166 -82 -352 -82q-448 0 -352 457z" />
<glyph unicode="5" horiz-adv-x="1624" d="M242 115q16 70 118 100q74 25 168 25q12 0 103 -4q45 -2 100 -3q387 0 418 152q12 57 -93.5 86t-332.5 29q-176 0 -205 293q-18 201 25 407q20 106 258 148q326 51 721 51q68 0 102 -41q39 -45 27 -92q-23 -96 -160 -129q-59 -14 -236 -15q-307 -29 -393 -39 q-25 -188 0 -305q20 2 66 2q246 0 405 -92q195 -109 156 -303q-90 -420 -977 -420q-301 0 -270 150z" />
<glyph unicode="6" horiz-adv-x="1554" d="M307 496q82 387 467 784q117 119 213 119q66 0 113 -37t35 -94q-8 -35 -277 -348q66 4 96 4q272 0 447 -125q186 -135 141 -357q-43 -205 -285 -346q-229 -131 -483 -131q-287 0 -407 160q-109 142 -60 371zM641 489q-55 -252 199 -251q115 0 233 63q117 63 135 143 q18 86 -78 152q-96 59 -215 59q-104 0 -229 -30q-37 -97 -45 -136z" />
<glyph unicode="7" horiz-adv-x="1480" d="M434 1264q12 51 66 92q55 43 122.5 43t120.5 -2q106 -4 242 -4q344 0 500.5 -69t128.5 -208q-22 -108 -264 -368l-328 -355q-96 -115 -163.5 -227.5t-84.5 -128.5q-61 -72 -153 -72q-66 0 -115 37t-37 94q2 12 16 37q186 326 498 658l141 139q119 121 121 139 q12 55 -129 68h-203q-16 0 -151 -4q-68 -2 -154 -3q-74 0 -127 29q-61 37 -47 105z" />
<glyph unicode="8" horiz-adv-x="1536" d="M305 412q47 219 262 340q-113 117 -80 274q37 172 174.5 272.5t352.5 100.5q209 0 342 -109q139 -115 102 -282q-33 -166 -215 -269q229 -152 182 -372q-41 -195 -266 -306q-197 -96 -436 -96q-236 0 -346 131q-111 128 -72 316zM643 406q-12 -61 27 -114.5t104 -53.5 q256 0 293 165q12 57 -59.5 110.5t-147.5 53.5q-70 0 -135 -51q-72 -55 -82 -110zM819 1001q-8 -39 29 -63.5t96 -24.5q68 0 119 27q49 27 59 72q12 51 -35 86t-116 35q-123 -1 -152 -132z" />
<glyph unicode="9" horiz-adv-x="1402" d="M266 877q40 194 320 362q266 160 508 160q209 0 276 -152q49 -111 12 -280q-25 -127 -110 -318q-117 -258 -137 -315q-61 -162 -93 -223q-86 -145 -213 -146q-61 0 -104 37q-49 39 -37 90q22 101 166 375q-16 -2 -47 -2q-254 0 -408 96q-176 115 -133 316zM616 864 q-14 -63 32 -94t153 -31q78 0 182 19q45 121 74 250q14 59 10 86q-10 43 -70 43q-119 0 -239 -88q-122 -87 -142 -185z" />
<glyph unicode=":" horiz-adv-x="821" d="M248 118.5q12 65.5 98 117.5q88 53 160 53q88 0 127 -51q33 -45 16.5 -111t-78.5 -113q-65 -49 -147 -49q-76 0 -133 45q-55 43 -43 108.5zM358 711q14 63 62 112q59 57 151 58q74 0 136 -45q59 -43 47 -109q-16 -66 -80 -113q-70 -51 -150 -51q-78 0 -127 41 q-51 44 -39 107z" />
<glyph unicode=";" horiz-adv-x="798" d="M135 -104q6 35 41 71l64 66q16 33 77 147q55 80 177 80q74 0 112 -37q43 -39 31 -96q-23 -106 -125 -227q-121 -145 -236 -146q-70 0 -112 43q-41 42 -29 99zM393 717q12 57 82 114q68 55 148 56q84 0 129 -58q41 -49 28 -114q-12 -59 -78 -101q-63 -39 -141 -39 q-76 0 -127 33q-57 41 -41 109z" />
<glyph unicode="&#x3c;" horiz-adv-x="1175" d="M209 598q25 119 199 219l303 150q74 49 192 108q31 12 70 12q70 0 115 -38.5t32 -96.5q-18 -84 -166 -168l-213 -102q-20 -12 -62 -33.5t-93 -50.5q53 -45 162 -98q123 -65 165 -92q72 -49 60 -109q-12 -53 -71.5 -100t-133.5 -47q-33 0 -80 20q-176 74 -311 172 q-193 143 -168 254z" />
<glyph unicode="=" horiz-adv-x="1527" d="M340 338q23 102 160 139q84 23 239 23q115 4 236 4q98 5 200 9l27 1q70 0 115 -41q43 -41 31 -96q-25 -115 -197 -139q-33 -4 -244 -5q-53 -10 -198 -18q-106 -8 -195 -8q-102 0 -145 32.5t-29 98.5zM391 709q12 57 69.5 98t129.5 41q158 0 360 10q242 12 361 12 q74 0 112.5 -38.5t26.5 -98.5q-12 -55 -68 -96q-57 -41 -129 -41q-119 0 -360.5 -12.5t-360.5 -12.5q-76 0 -114.5 39.5t-26.5 98.5z" />
<glyph unicode="&#x3e;" horiz-adv-x="1181" d="M377 289q12 59 131 135q63 35 217 111q117 59 119 75q6 25 -135 74q-113 41 -199 96q-125 82 -111 152q12 57 72 96q63 41 129 41q51 0 121 -37q49 -25 102 -59l273 -135q147 -94 118 -226q-29 -129 -223 -245q-86 -41 -334 -177q-76 -45 -135 -45q-72 0 -114.5 43.5 t-30.5 100.5z" />
<glyph unicode="?" horiz-adv-x="1648" d="M254 115q16 68 90 121q80 57 160 57q82 0 123 -60q33 -51 20 -110q-14 -68 -88 -113q-72 -45 -156 -45q-76 0 -118 45q-43 47 -31 105zM412 512q41 193 307 317q43 16 319 107q250 84 256 115q18 84 -262 84q-80 0 -221 -25q-129 -23 -186 -23q-66 0 -97 52 q-25 41 -16 86q20 96 227 143q137 31 303 31q260 0 426 -64q225 -86 189 -266q-27 -133 -166 -225q-94 -63 -274 -119l-242 -72q-164 -57 -207 -114q-22 -28 -31 -74q-12 -57 -73 -90q-59 -33 -121 -33q-168 0 -131 170z" />
<glyph unicode="@" horiz-adv-x="2134" d="M330 612q68 319 405.5 553t732.5 234q342 0 527 -178q186 -180 127 -451q-41 -186 -166 -334q-162 -190 -391 -190q-227 0 -287 168q-86 -39 -174 -39q-147 0 -233.5 90t-61.5 207q31 147 211 284q178 135 373 136q98 0 186 -54q100 -57 82 -145q-4 -18 -16 -39 q51 -45 32 -119q-6 -37 -35 -96q-29 -61 -36 -98q-8 -45 34 -45q61 0 95 100q4 20 30 137q86 399 -370 400q-197 0 -439 -152q-244 -154 -274 -305q-92 -436 379 -436q27 0 82 6q74 8 82 8q70 0 112.5 -37t30.5 -94q-18 -90 -139 -133q-68 -25 -246 -25q-346 0 -530 189 q-182 182 -123 458zM1135 657q-2 -8 7 -12t27 -4q46 0 111 49q53 45 88 105q-35 29 -53 28q-57 0 -111 -51q-57 -56 -69 -115z" />
<glyph unicode="A" horiz-adv-x="1406" d="M106 109q3 9 7 24q141 375 258 578q169 295 436 534q169 154 344 154q281 0 281 -353q0 -128 -37 -303q-16 -74 -21 -90l-18 -88q-16 -72 -33 -233q-16 -160 -31 -234q-12 -55 -75 -94q-66 -39 -130 -39q-84 0 -112 49q-14 16 -29 103q-43 207 -385 274l-88 -215 q-29 -94 -65 -137q-61 -74 -166 -74q-72 0 -109 43q-29 34 -29 75q-1 13 2 26zM688 655q182 -33 326 -114l71 333q4 76 11 125q2 21 1 40q0 53 -12 81l7 6q-35 0 -193 -178q-123 -135 -211 -293z" />
<glyph unicode="B" horiz-adv-x="1370" d="M184 254q20 88 88 246l59.5 131l40.5 86l11 24q18 51 131 410q-52 35 -52 88q0 13 3 27q27 133 252 133q770 0 770 -339q0 -36 -8 -75q-49 -236 -363 -364q133 -105 133 -231q0 -26 -6 -54q-28 -135 -166 -227q-100 -66 -272 -107q-150 -37 -289 -37q-340 0 -340 216 q0 34 8 73zM516 238q29 -4 43 -5q96 0 191 21q129 27 155 82q-25 104 -295 153q-74 -157 -92 -239q-2 -4 -2 -12zM733 780q383 74 408 197q1 7 1 14q0 95 -294 131q-39 -127 -115 -342z" />
<glyph unicode="C" horiz-adv-x="1284" d="M190 422q35 160 125 336q92 181 209 319q270 322 555 322q284 0 284 -267q0 -67 -17 -151q-47 -219 -222 -219q-66 0 -108 37q-35 30 -35 69q0 10 2 21q12 51 21 76q12 37 32 108q10 27 11 39q0 20 -17 21q-127 0 -330 -316q-137 -215 -174 -391q-8 -35 -7 -64 q0 -121 136 -120q78 0 230 77q150 76 205 76q70 0 110 -39q33 -31 34 -72q0 -12 -3 -24q-12 -55 -96 -113q-106 -72 -281 -124q-184 -57 -299 -58q-223 0 -319 152q-57 88 -57 199q-1 50 11 106z" />
<glyph unicode="D" horiz-adv-x="1486" d="M211 240q16 82 100 358q66 225 170 535q-77 28 -77 90q0 12 4 26q20 104 163 135q63 14 240 15q369 0 582 -150q193 -132 192 -344q0 -54 -12 -112q-59 -270 -438 -547q-389 -281 -727 -281q-139 0 -187 96q-19 40 -19 96q0 38 9 83zM545 246q211 49 434 213 q221 164 252 309q12 57 12 100q0 35 -8 62q-31 90 -158 143q-113 47 -262 47q-55 -127 -117 -342q-63 -208 -153 -532z" />
<glyph unicode="E" horiz-adv-x="1380" d="M172 295q39 174 195 459q190 342 235 454q25 68 41 84q25 27 107 56q147 51 553 51q257 0 256 -116q0 -12 -3 -26q-12 -55 -69 -94q-59 -41 -125 -41q-12 0 -86 4t-84 4q-133 0 -295 -22q-31 -76 -104 -211q211 61 325 61q68 0 111 -36q33 -29 33 -68q0 -12 -2 -25 q-18 -80 -121 -122q-37 -14 -193 -50q-117 -27 -323 -82q-86 -170 -111 -288l-18 -31q-12 -23 2 -23q111 0 325 91q219 92 289 92q66 0 111 -41q33 -31 33 -69q0 -11 -3 -23q-12 -59 -104 -113q-113 -70 -336 -133q-233 -72 -352 -72q-182 0 -252 101q-44 59 -45 145 q0 40 10 84z" />
<glyph unicode="F" horiz-adv-x="1298" d="M154 100q33 152 104 383q94 313 109 381q25 82 34 125q18 63 56 121q133 193 377 254q150 35 446 35q165 0 165 -102q0 -15 -3 -31q-12 -53 -68 -95q-53 -39 -125 -38h-82q-238 0 -323 -43q-100 -49 -137 -220q-6 -12 -27 -100q328 104 434 104q74 0 113 -45 q28 -32 27 -73q0 -13 -3 -27q-16 -78 -139 -119q-33 -14 -192 -51l-322 -86l-41 -190q-27 -106 -72 -191q-66 -127 -190 -127q-66 0 -111 41q-33 31 -33 71q0 11 3 23z" />
<glyph unicode="G" horiz-adv-x="1331" d="M229 584q94 451 476 698q184 117 354 117q115 0 213 -55.5t137 -133.5q14 -25 14 -49q0 -8 -2 -14q-12 -55 -69 -98q-55 -41 -129 -41q-66 0 -117 59q-53 61 -90 61q-162 0 -301 -210q-113 -164 -146 -324q-12 -62 -12 -114q0 -71 23 -126q49 -119 182 -118q113 0 178 81 q-25 43 -102 43q-12 0 -25 -2h-20q-66 0 -105 41q-31 34 -31 72q0 11 2 23q14 72 101 106q63 29 141 29q170 0 289 -84q100 -73 100 -179q0 -26 -6 -55q-31 -141 -227 -248q-181 -98 -357 -98t-309 103q-119 94 -158 227q-21 65 -20 141q0 69 16 148z" />
<glyph unicode="H" horiz-adv-x="1505" d="M166 100q23 106 104 375q90 287 115 377q39 133 84 340q43 207 221 207q71 0 111 -37q31 -29 31 -70q0 -12 -3 -24l-106 -500q252 51 446 63q61 190 86 279q29 131 58 184q59 104 182 105q68 0 109 -39q33 -31 33 -71q0 -11 -3 -23q-47 -213 -239 -797l-103 -313 q-63 -190 -219 -191q-66 0 -110 41q-32 29 -32 70q0 13 3 26q25 109 145 453q-190 -18 -456 -70q-53 -170 -82 -309q-66 -211 -232 -211q-68 0 -112 41q-33 31 -34 71q0 11 3 23z" />
<glyph unicode="I" horiz-adv-x="1052" d="M172 63q25 111 229 148q41 258 66 385q40 197 135 522q-41 -4 -55 -4q-70 0 -113 37q-33 29 -33 70q0 12 2 24q35 156 388 156q172 0 210 -2q222 -17 222 -121q0 -12 -2 -25q-12 -55 -69.5 -94t-127.5 -39q-49 0 -80 4q-109 -377 -133 -499q-25 -125 -61 -373 q63 -6 102 -39q33 -29 33 -69q0 -11 -2 -23q-23 -92 -127 -123q-45 -14 -199 -33q-35 -4 -131 -20q-90 -18 -125 -19q-68 0 -102 43q-28 36 -29 75q0 9 2 19z" />
<glyph unicode="J" horiz-adv-x="1267" d="M119 303q12 57 71 92q61 37 127 37q53 0 117 -47q20 -18 45 -37.5t47 -40.5q89 -74 154 -74q164 0 287 578q28 132 28 222q0 40 -6 73q-129 -35 -223 -35q-70 0 -107 39q-29 32 -29 68q0 12 3 24q12 61 63 94q27 18 117 41q246 61 346 62q137 0 162 -242q7 -65 7 -126 q0 -108 -21 -206q-117 -549 -314 -727q-150 -133 -348 -133q-147 0 -294.5 74t-209.5 172q-25 42 -24 74q0 9 2 18z" />
<glyph unicode="K" horiz-adv-x="1421" d="M160 104q25 119 106 359q84 238 121 360q35 109 86 291q31 137 57 180q59 104 183 105q68 0 108 -39q33 -31 34 -71q0 -11 -3 -23q-16 -78 -78 -281q504 426 592 426q70 0 111 -41q31 -31 31 -68q0 -11 -3 -24q-23 -98 -342 -330q-322 -231 -340 -317q-3 -12 -3 -25 q0 -79 114 -174l246 -174q118 -85 118 -147q0 -7 -2 -15q-12 -58 -73 -98q-63 -41 -131 -41q-74 0 -252 135q-119 88 -193 162q-31 29 -72 78q-20 -84 -90 -254q-59 -113 -192 -113q-72 0 -109 43q-28 32 -27 70q0 12 3 26z" />
<glyph unicode="L" horiz-adv-x="1234" d="M213 326q15 68 80 258q84 242 125 438q47 186 65 231q68 145 207 146q70 0 111 -39q32 -29 31 -69q0 -12 -3 -25q0 1 0.5 1t-98.5 -339q-20 -86 -86 -301q-94 -283 -106 -340q-4 -18 -4 -45q0 -6 -9 -6q88 0 480 210q100 53 149 54q68 0 113 -41q33 -31 33 -71 q0 -11 -3 -23q-12 -53 -94 -111q-143 -98 -360 -184q-252 -104 -398 -105q-249 0 -248 232q0 58 15 129z" />
<glyph unicode="M" horiz-adv-x="1918" d="M141 102q12 59 185 414l209 416l176 321q84 145 221 146q98 0 129 -74q14 -37 14 -139v-48q0 -217 25 -499q90 178 172 324l153 258q49 86 82 118q63 59 150 60q115 0 135 -88q4 -20 4 -52q0 -45 -8 -110q-8 -54 -8 -134q0 -55 4 -120q8 -143 28 -397q11 -167 12 -273 q0 -85 -7 -123q-12 -55 -65.5 -96t-125.5 -41q-108 0 -135 74q-13 31 -13 109q0 16 1 34v23q0 115 -25 452q-139 -260 -237 -481q-45 -96 -80 -137q-61 -74 -158 -74q-86 0 -127 55q-25 39 -37 115q-37 240 -59 555q-166 -328 -238 -508q-41 -100 -78 -143q-65 -74 -166 -74 q-70 0 -106 43q-29 34 -29 71q-1 11 2 23z" />
<glyph unicode="N" horiz-adv-x="1615" d="M158 96q55 261 190 621q164 434 301 592q80 90 176 90q70 0 108 -34.5t38 -102.5q0 -38 -35 -207q-41 -270 -47 -463q-1 -33 -1 -64q0 -151 28 -226t83 -75q98 0 189 166q57 111 84 238q19 97 19 247q0 34 -1 70q-1 42 -1 81q0 149 18 235q12 55 65 94q57 41 125 41 q139 0 158 -158q1 -7 0 -21q0 -71 -13 -223q-25 -338 -32 -368q-35 -178 -144 -340q-88 -129 -202 -217q-151 -111 -314 -111q-317 0 -385 391q-25 -94 -35 -141q-53 -246 -235 -246q-66 0 -109 39q-31 29 -31 68q0 12 3 24z" />
<glyph unicode="O" horiz-adv-x="1611" d="M244 569q61 291 258 529q252 301 602 301q324 0 475 -170q105 -116 105 -286q0 -64 -15 -136q-61 -285 -311 -541q-295 -301 -639 -301q-289 0 -416 203q-75 119 -74 265q0 65 15 136zM578 569q-11 -54 -12 -99q0 -141 108 -204q51 -29 94 -28q184 0 369 211 q162 190 198 364q9 44 9 83q0 231 -336 230q-139 0 -285 -229q-114 -185 -145 -328z" />
<glyph unicode="P" horiz-adv-x="1421" d="M188 100q43 203 138 514q117 385 143 514q-48 34 -48 87q0 13 3 28q23 111 227 141q86 14 305 15q266 0 451 -78q201 -90 201 -253q0 -30 -6 -62q-49 -225 -392 -394q-258 -129 -587 -188q-2 -10 -84 -279q-53 -180 -211 -180q-70 0 -111 41q-31 31 -31 70q-1 12 2 24z M700 707q526 123 566 303q1 6 1 11q0 107 -425 107h-33q-37 -163 -109 -421z" />
<glyph unicode="Q" horiz-adv-x="1607" d="M225 614q59 274 262 502q254 283 586 283q340 0 496 -232q99 -142 99 -321q0 -75 -17 -156q-43 -197 -189 -366q-156 -184 -379 -281q36 -117 37 -163q0 -10 -2 -17q-12 -55 -71.5 -94t-124.5 -39q-143 0 -181 235h-8h-8q-304 0 -438 213q-78 128 -78 286q0 72 16 150z M557 610q-9 -38 -9 -76q0 -54 17 -108q27 -96 103 -150l-2 7q-12 47 -13 80q0 13 2 22q12 55 70 92q59 39 127 39q139 0 176 -207q238 143 289 381q10 48 9 92q0 72 -26 138q-39 113 -147 174q-66 39 -125 39q-156 0 -305 -193q-133 -170 -166 -330z" />
<glyph unicode="R" horiz-adv-x="1509" d="M272 96q31 141 97 377q55 195 143 606h12q-68 0 -108 41q-31 31 -32 69q0 11 3 23q23 98 211 150q138 37 283 37q344 0 544 -158q162 -131 163 -328q0 -56 -13 -116q-68 -319 -545 -473q176 -117 176 -205q0 -9 -2 -19q-12 -55 -73.5 -92t-126.5 -37q-49 0 -103 35 q-109 84 -270 178l-6 -24q-41 -195 -213 -195q-66 0 -111 39q-32 27 -32 67q0 11 3 25zM715 514q485 108 522 289q3 16 3 33q0 88 -101 172q-115 96 -258 120q-14 -61 -166 -614z" />
<glyph unicode="S" horiz-adv-x="1431" d="M135 199q12 53 68 94q53 39 123 39q14 0 65 -10l2 2l8 -5q66 -18 207.5 -50.5t286.5 -32.5q86 0 96 40q2 10 2 21q0 85 -131 211l-272 254q-118 131 -118 250q0 26 5 51q35 162 240 256q178 80 373 80q156 0 270 -51q135 -58 172 -166q7 -19 7 -40q0 -13 -3 -28 q-12 -53 -69.5 -92t-125.5 -39q-74 0 -143 72q-71 74 -166 73q-222 0 -222 -74q0 -55 136 -180q209 -190 277 -274q109 -143 109 -275q0 -33 -7 -65q-31 -145 -199 -225q-145 -70 -319 -70q-117 0 -324 33q-230 37 -295 86q-56 43 -55 93q-1 11 2 22z" />
<glyph unicode="T" horiz-adv-x="1421" d="M324 1227q25 115 200 141q29 4 283 4q55 8 311 29q207 16 309 16q200 0 201 -107q0 -15 -4 -32q-29 -133 -252 -133h-248l-100 -477q-92 -344 -119 -473q-49 -229 -225 -230q-68 0 -111 39q-30 27 -29 66q0 12 3 26q12 66 55 273q92 307 150 571q12 63 36 174 q-199 -16 -325 -16q-72 0 -109 37q-29 29 -29 67q0 13 3 25z" />
<glyph unicode="U" horiz-adv-x="1517" d="M299 256q-26 92 -26 208q0 133 34 294q94 440 189 549q78 92 180 92q70 0 108 -41q30 -32 30 -70q0 -12 -3 -26q-10 -39 -66 -170q-51 -109 -102 -344q-31 -150 -31 -256q0 -258 185 -259q292 0 436 682q12 58 24.5 172t24.5 173q12 55 66 96q55 43 125 43 q144 0 153 -148v-11q0 -70 -33 -224q-225 -1051 -860 -1051q-348 0 -434 291z" />
<glyph unicode="V" horiz-adv-x="1435" d="M432 1356q55 43 125 43q100 0 143 -92q34 -71 37 -185q0 -129 2 -194q4 -84 39 -367l473 656q55 82 99 120q68 61 153 62q68 0 111 -37q35 -30 35 -72q0 -11 -2 -22q-8 -39 -97 -148l-110 -137q-262 -322 -584 -836q-111 -182 -244 -182q-117 0 -151 203q0 4 -2 34.5 t-5 100.5t-8 146q-4 119 -38 393q-35 291 -41 391q-3 17 -3 21q0 49 68 102z" />
<glyph unicode="W" horiz-adv-x="1966" d="M387 1233q0 14 4 31q12 53 68 94q57 41 125 41q154 0 153 -158q-6 -45 -6 -65q0 -34 21 -263q2 -16 20 -290q168 313 248 501q39 94 72 138q61 72 153 71q117 0 141 -82q6 -20 6 -53q0 -44 -10 -102q-26 -154 -25 -358q0 -71 3 -146l377 602q51 84 98 131q74 74 160 74 q70 0 110 -39q33 -31 34 -71q0 -11 -3 -23q-18 -88 -215 -377l-262 -379l-223 -365q-109 -180 -242 -180q-104 0 -141 90q-16 41 -21 158q0 63 -8 233l-182 -323q-51 -82 -84 -113q-55 -53 -146 -53q-96 0 -127 74q-14 37 -18 139q-2 156 -37 530q-33 379 -43 533z" />
<glyph unicode="X" horiz-adv-x="1382" d="M154 133q16 76 489 580q-150 406 -150 533q0 16 3 28q12 57 77 92q61 33 123 33q92 0 135 -86q25 -49 89 -316q311 334 446 334q68 0 109 -41q35 -35 35 -74q0 -11 -3 -22q-8 -41 -235 -256l-250 -238q33 -76 164 -352q73 -160 73 -233q0 -11 -2 -19q-12 -55 -67 -92 q-59 -39 -125 -39q-139 0 -305 451l-242 -285q-121 -133 -229 -133q-74 0 -111 39q-28 30 -27 68q0 13 3 28z" />
<glyph unicode="Y" horiz-adv-x="1536" d="M360 1245q12 65 62 105q55 49 139 49q133 0 139 -137l-28 -281q-2 -24 -2 -45q0 -131 80 -176q33 -18 57 -19q34 0 92 25q113 45 211 164q82 100 139 223q49 108 74 141q59 72 162 72q135 0 147 -149q1 -12 1 -27q0 -76 -27 -207q-72 -338 -166 -516q-152 -297 -447 -436 q-141 -66 -278 -66q-68 0 -113 37q-37 30 -37 72q0 11 2 22q25 111 207 144q33 4 72 14q201 59 323 362q-188 -143 -403 -143q-442 0 -442 466q0 134 36 306z" />
<glyph unicode="Z" horiz-adv-x="1560" d="M291 190q31 147 268 353q88 78 432 325q125 90 184 143.5t59 83.5q0 34 -81 40l-129 -2q-68 0 -203 -6.5t-203 -6.5q-224 0 -224 111q0 13 3 26q31 139 285 140h149q37 0 88.5 1t63.5 1q258 0 418 -51q206 -64 205 -201q0 -21 -4 -43q-20 -94 -156 -223 q-90 -88 -287 -232q-256 -188 -258 -190q-160 -123 -229 -211q43 -6 84 -6q115 0 239 16l240 37q41 4 111 4q66 0 102 -41q29 -32 29 -67q0 -11 -2 -23q-23 -104 -349 -164q-221 -39 -428 -39q-150 0 -274 53q-136 56 -136 146q0 13 3 26z" />
<glyph unicode="[" horiz-adv-x="1067" d="M236 109q33 152 112 385q98 297 117 385q2 -2 11 38.5l34 155.5q23 106 51 178q20 47 51 76q27 25 90 45q82 27 234 27q68 0 111 -37t30 -92q-25 -121 -211 -144q-131 -535 -252 -893h31q111 0 159 -33.5t34 -101.5q-12 -55 -65.5 -94t-125.5 -39h-158q-284 1 -253 144z " />
<glyph unicode="\" horiz-adv-x="999" d="M334 1266q12 53 69 94q53 39 123 39q92 0 131 -64q20 -33 41 -123l199 -796q63 -270 53 -318q-12 -55 -69.5 -94t-126.5 -39q-92 0 -142 94q-20 47 -47 158q-27 143 -80 397l-98 334q-67 248 -53 318z" />
<glyph unicode="]" horiz-adv-x="1067" d="M272 96q25 121 215 146q127 535 250 888h-86q-72 0 -108 41q-41 43 -29 95q12 59 67.5 96t266.5 37q299 0 268 -144q-33 -152 -108 -381q-100 -283 -121 -385q-2 2 -14.5 -52t-34.5 -167q-20 -98 -43 -153q-41 -90 -144 -123q-92 -29 -235 -29q-68 0 -111 37 q-45 39 -33 94z" />
<glyph unicode="^" horiz-adv-x="1306" d="M270 559q12 55 241.5 393t283.5 383q72 63 151 64q88 0 137 -64q72 -98 117 -358q41 -262 57 -393q3 -28 0 -43q-12 -59 -73.5 -94t-130.5 -35q-106 0 -144 90q-16 37 -26 162l-29 251l-129 -225q-92 -150 -154 -201q-76 -63 -157 -63q-76 0 -115 39q-41 41 -29 94z" />
<glyph unicode="_" horiz-adv-x="1425" d="M285 -35l43 205h837l-43 -205h-837z" />
<glyph unicode="`" horiz-adv-x="808" d="M506 1755q12 57 82 98q57 35 129 35q76 0 125 -57q164 -201 149 -270q-12 -57 -71.5 -100.5t-131.5 -43.5q-76 0 -133 64q-41 43 -94 135q-63 104 -55 139z" />
<glyph unicode="a" horiz-adv-x="1439" d="M119 109q3 9 6 24q141 375 258 578q172 299 434 534q169 154 344 154q282 0 283 -355q0 -128 -37 -301q-16 -74 -21 -90l-18 -88q-16 -72 -33 -233q-16 -160 -30 -234q-12 -55 -76 -94q-66 -39 -129 -39q-88 0 -115 49q-10 14 -27 103q-43 207 -385 274l-88 -215 q-29 -94 -65 -137q-61 -74 -166 -74q-72 0 -109 43q-29 34 -29 75q0 13 3 26zM700 655q180 -33 326 -114l72 333q4 76 10 125q2 21 2 40q0 53 -12 81l6 6q-35 0 -193 -178q-123 -135 -211 -293z" />
<glyph unicode="b" horiz-adv-x="1404" d="M205 254q22 98 86 246l58.5 128.5t39.5 89.5l10 23q47 125 136 410q-54 36 -54 90q0 12 2 25q27 133 252 133q772 0 773 -339q0 -35 -9 -75q-49 -236 -362 -364q131 -103 131 -230q0 -27 -6 -55q-27 -135 -164 -227q-102 -68 -275 -107q-152 -37 -286 -37 q-340 0 -341 216q1 34 9 73zM537 238q29 -4 43 -5q98 0 188 21q131 27 158 82q-25 104 -295 153q-74 -157 -92 -239q-2 -4 -2 -12zM752 780q383 74 407 197q1 7 2 13q0 95 -297 132q-69 -225 -112 -342z" />
<glyph unicode="c" horiz-adv-x="1310" d="M205 422q37 166 123 336q92 181 209 319q270 322 555 322q284 0 284 -267q0 -67 -18 -151q-47 -219 -219 -219q-66 0 -109 37q-35 30 -35 69q0 10 2 21q12 51 21 76q20 72 33 108q2 6 5 19.5t5 19.5q-2 20 -19 21q-129 0 -327 -316q-137 -215 -174 -391q-8 -35 -8 -64 q0 -121 137 -120q76 0 227 77q150 76 207 76q70 0 110 -39q33 -31 34 -72q0 -12 -3 -24q-12 -53 -98 -113q-102 -70 -279 -124q-184 -57 -301 -58q-223 0 -319 152q-55 88 -55 198q0 51 12 107z" />
<glyph unicode="d" horiz-adv-x="1519" d="M231 240q12 59 103 358q53 195 168 535q-75 28 -75 90q0 13 3 26q20 104 164 135q63 14 240 15q367 0 579 -150q195 -133 195 -345q0 -53 -13 -111q-57 -270 -440 -547q-389 -281 -725 -281q-141 0 -188 96q-19 40 -20 96q0 38 9 83zM567 246q209 49 432 213 q221 164 252 309q12 56 12 97q0 37 -10 65q-27 90 -153 143q-111 47 -262 47q-55 -127 -252 -803q-5 -14 -19 -71z" />
<glyph unicode="e" horiz-adv-x="1404" d="M186 295q39 174 195 459q190 342 235 454q25 68 41 84q25 28 105 56q152 51 555 51q255 0 255 -115q0 -12 -3 -27q-12 -57 -68 -94q-59 -41 -125 -41q-8 0 -86 4t-84 4q-133 0 -295 -22q-31 -76 -104 -211q211 61 326 61q68 0 110 -36q33 -29 34 -68q0 -12 -3 -25 q-18 -80 -123 -122q-40 -15 -190 -50q-117 -27 -324 -82q-88 -168 -113 -288q-4 -10 -16 -31q-12 -23 2 -23q111 0 326 91q219 92 288 92q66 0 111 -41q33 -31 33 -69q0 -11 -2 -23q-12 -59 -105 -113q-113 -70 -336 -133q-233 -72 -352 -72q-182 0 -252 101q-44 59 -44 145 q-1 40 9 84z" />
<glyph unicode="f" horiz-adv-x="1327" d="M170 100q31 139 102 383q94 301 111 381q18 61 35 125q25 78 53 121q133 193 377 254q150 35 446 35q165 0 166 -102q0 -15 -4 -31q-12 -55 -65.5 -94t-126.5 -39h-80q-240 0 -326 -43q-100 -49 -137 -220q-8 -23 -27 -100q329 104 436 104q70 0 111 -45q30 -32 30 -73 q0 -13 -3 -27q-16 -80 -142 -119q-31 -12 -190 -51l-326 -86l-41 -190q-31 -121 -67 -191q-66 -127 -193 -127q-63 0 -108 41q-33 31 -34 71q0 11 3 23z" />
<glyph unicode="g" horiz-adv-x="1351" d="M240 584q94 451 475 698q184 117 352 117q115 0 213 -55.5t137 -133.5q14 -25 14 -49q0 -8 -1 -14q-12 -55 -70 -98q-55 -41 -127 -41q-66 0 -117 59q-52 61 -92 61q-162 0 -301 -210q-113 -164 -145 -324q-11 -58 -12 -109q0 -73 24 -131q45 -119 182 -118q113 0 178 81 q-25 43 -102 43q-14 0 -25 -2h-22q-66 0 -105 41q-31 34 -31 72q0 11 3 23q14 72 100 106q63 29 141 29q170 0 289 -84q100 -73 100 -179q0 -26 -6 -55q-31 -141 -225 -248q-181 -98 -356 -98q-176 0 -310 103q-115 90 -155 227q-22 68 -22 147q1 67 16 142z" />
<glyph unicode="h" horiz-adv-x="1533" d="M180 100q27 127 103 375l116 377q39 141 82 340q43 207 221 207q71 0 111 -37q31 -29 31 -70q0 -12 -2 -24l-107 -500q258 51 447 63q61 190 86 279q29 131 57 184q61 104 182 105q70 0 111 -39q33 -31 33 -71q0 -11 -2 -23q-49 -221 -242 -797l-102 -313 q-61 -190 -220 -191q-66 0 -110 41q-33 31 -34 72q0 12 3 24q23 98 148 453q-190 -18 -457 -70q-47 -150 -80 -309q-68 -211 -233 -211q-66 0 -111 41q-33 31 -34 71q0 11 3 23z" />
<glyph unicode="i" horiz-adv-x="671" d="M139 100q31 150 109 394l123 393l55 194q33 119 80 197q70 121 188 121q70 0 111 -39q33 -31 33 -71q0 -11 -2 -23q-33 -156 -113 -379q-113 -313 -131 -377q-49 -152 -84 -317q-49 -227 -227 -228q-66 0 -111 41q-33 31 -33 71q-1 11 2 23z" />
<glyph unicode="j" horiz-adv-x="1284" d="M121 303q12 55 73.5 92t127.5 37q55 0 118 -47l88 -78q89 -74 154 -74q164 0 287 578q29 135 29 229q0 36 -5 66q-129 -35 -225 -35q-68 0 -104 39q-29 32 -30 68q0 12 3 24q12 63 61 94q29 18 117 41q250 61 346 62q139 0 164 -242q7 -65 7 -126q0 -108 -21 -206 q-117 -553 -314 -727q-150 -133 -348 -133q-147 0 -295 74q-150 76 -211 172q-25 42 -24 74q0 9 2 18z" />
<glyph unicode="k" d="M170 104q25 119 106 359q98 283 123 360l82 291q35 139 60 180q57 104 180 105q70 0 110 -39q32 -29 32 -69q0 -12 -3 -25q-23 -102 -76 -281q504 426 592 426q68 0 109 -41q31 -31 31 -68q0 -11 -3 -24q-23 -98 -339 -330q-322 -236 -340 -317q-3 -13 -3 -26 q0 -80 111 -173l248 -174q116 -86 116 -147q0 -7 -1 -15q-12 -58 -74 -98q-63 -41 -129 -41q-74 0 -252 135q-115 86 -195 162q-37 35 -69 78q-20 -84 -90 -254q-59 -113 -193 -113q-72 0 -108 43q-28 32 -28 70q0 12 3 26z" />
<glyph unicode="l" horiz-adv-x="1249" d="M223 326q10 49 82 258q84 242 125 438q47 186 66 231q68 145 204 146q70 0 111 -39q33 -31 33 -71q0 -11 -2 -23v1l-99 -339q-20 -86 -86 -301q-94 -283 -106 -340q-4 -18 -4 -45q0 -6 -8 -6q88 0 479 210q100 53 149 54q68 0 113 -41q35 -33 35 -73q0 -11 -2 -21 q-12 -53 -96 -111q-145 -98 -359 -184q-252 -104 -397 -105q-253 0 -253 234q0 57 15 127z" />
<glyph unicode="m" horiz-adv-x="1935" d="M147 102q12 59 185 414q143 295 211 416q43 88 176 321q86 145 221 146q96 0 127 -74q16 -43 16 -139v-48q0 -217 25 -499l170 324l156 258q51 90 79 118q63 59 150 60q115 0 135 -88q5 -18 5 -49q0 -42 -9 -113q-6 -45 -6 -116q0 -58 4 -138q16 -266 27 -397 q14 -204 14 -302q0 -64 -6 -94q-12 -57 -68 -96q-57 -41 -125 -41q-111 0 -137 74q-11 26 -11 99q0 20 1 44v19q0 92 -27 456q-139 -260 -237 -481q-39 -88 -80 -137q-61 -74 -158 -74q-89 0 -129 55q-20 31 -33 115q-39 254 -57 555q-172 -342 -242 -508q-43 -104 -75 -143 q-63 -74 -168 -74q-70 0 -107 43q-29 34 -29 71q-1 11 2 23z" />
<glyph unicode="n" horiz-adv-x="1636" d="M168 96q55 261 190 621q158 424 304 592q80 90 174 90q137 0 145 -131q4 -39 -33 -213q-41 -246 -47 -463q-2 -40 -2 -75q0 -289 113 -290q98 0 184 166q63 123 88 238q18 88 18 236q0 39 -2 81q-1 36 -1 70q0 151 20 246q12 55 65 94q57 41 125 41q137 0 156 -158 q1 -7 1 -23q0 -68 -11 -221q-25 -326 -35 -368q-37 -182 -141 -340q-88 -131 -205 -217q-147 -111 -311 -111q-317 0 -385 391q-14 -47 -35 -141q-53 -246 -236 -246q-70 0 -112 39q-30 27 -30 66q0 12 3 26z" />
<glyph unicode="o" horiz-adv-x="1624" d="M252 569q61 295 256 529q252 301 602 301q326 0 477 -170q104 -115 104 -284q0 -65 -16 -138q-61 -285 -311 -541q-295 -301 -639 -301q-289 0 -416 203q-73 117 -73 261q0 67 16 140zM586 569q-11 -55 -12 -101q0 -140 106 -202q51 -29 94 -28q184 0 369 211 q162 190 198 364q9 44 10 83q0 231 -337 230q-139 0 -285 -229q-112 -181 -143 -328z" />
<glyph unicode="p" horiz-adv-x="1429" d="M195 100q43 203 137 514q117 385 143 514q-48 34 -48 87q0 13 3 28q23 111 227 141q84 14 304 15q268 0 452 -78q201 -90 201 -253q0 -30 -6 -62q-49 -225 -391 -394q-258 -129 -588 -188q-27 -80 -86 -279q-53 -180 -209 -180q-70 0 -111 41q-31 31 -31 70q0 12 3 24z M705 707q528 123 567 303q1 6 1 11q0 107 -427 107h-31q-28 -126 -110 -421z" />
<glyph unicode="q" horiz-adv-x="1619" d="M227 614q57 272 267 502q255 283 583 283q344 0 496 -232q101 -145 101 -324q0 -73 -17 -153q-43 -197 -189 -366q-154 -180 -381 -281q36 -117 37 -163q0 -10 -2 -17q-12 -53 -71 -94q-57 -39 -125 -39q-143 0 -181 235h-8h-8q-302 0 -436 213q-81 131 -82 290 q0 70 16 146zM563 610q-9 -42 -9 -82q0 -52 15 -102q27 -96 103 -150l-2 7q-10 47 -10 78q0 14 2 24q12 53 69 92t125 39q143 0 176 -207q236 143 287 381q10 49 10 94q0 71 -24 136q-43 113 -150 174q-66 39 -121 39q-158 0 -307 -193q-131 -168 -164 -330z" />
<glyph unicode="r" horiz-adv-x="1523" d="M279 96q25 109 98 377q57 211 141 606h17q-66 0 -111 41q-32 29 -32 67q0 12 3 25q23 98 209 150q137 37 285 37q342 0 543 -158q162 -131 162 -328q0 -56 -13 -116q-68 -319 -543 -473q176 -117 177 -205q0 -9 -3 -19q-12 -55 -73.5 -92t-126.5 -37q-49 0 -101 35 q-111 84 -274 178l-6 -24q-41 -195 -213 -195q-63 0 -109 39q-33 29 -33 69q0 11 3 23zM723 514q485 108 522 289q3 16 4 33q0 88 -102 172q-115 96 -260 120q-29 -122 -164 -614z" />
<glyph unicode="s" horiz-adv-x="1439" d="M139 199q12 53 68 94q53 39 123 39q10 0 65 -10l2 2l6 -5q55 -16 209 -51q141 -33 285 -32q86 0 96 40q2 11 2 22q0 86 -129 210l-272 254q-120 133 -120 251q0 25 5 50q35 160 242 256q178 80 371 80q158 0 272 -51q133 -57 170 -166q7 -19 7 -40q0 -13 -3 -28 q-12 -51 -68 -92q-53 -39 -124 -39q-74 0 -144 72q-72 74 -168 73q-222 0 -222 -74q0 -56 138 -180q201 -184 275 -274q111 -146 111 -276q0 -32 -7 -64q-31 -145 -199 -225q-145 -70 -319 -70q-117 0 -324 33q-227 37 -294 86q-56 41 -56 92q-1 11 2 23z" />
<glyph unicode="t" horiz-adv-x="1427" d="M326 1227q25 115 200 141q29 4 281 4q57 8 313 29q207 16 310 16q202 0 202 -108q0 -15 -4 -31q-29 -133 -254 -133h-248l-100 -477q-92 -344 -119 -473q-49 -229 -225 -230q-68 0 -111 39q-31 29 -31 68q0 12 3 24q6 29 10 50.5t16.5 79l30.5 143.5q92 307 150 571 q12 63 36 174q-197 -16 -325 -16q-72 0 -109 37q-29 29 -29 67q0 13 3 25z" />
<glyph unicode="u" horiz-adv-x="1525" d="M305 256q-28 93 -28 212q0 131 34 290q96 442 187 549q80 92 182 92q70 0 108 -41q31 -34 32 -72q0 -12 -3 -24q-10 -43 -67 -170q-51 -113 -101 -344q-32 -152 -32 -259q0 -255 182 -256q295 0 438 682q12 58 24.5 172t24.5 173q12 51 66 96q53 43 127 43 q143 0 151 -148v-11q0 -70 -33 -224q-225 -1051 -858 -1051q-348 0 -434 291z" />
<glyph unicode="v" d="M436 1356q55 43 127 43q100 0 144 -92q29 -68 32 -187l6 -192q4 -72 37 -367l473 656q59 88 99 120q68 61 153 62q68 0 111 -37q33 -29 33 -70q0 -12 -2 -24q-9 -40 -93 -148l-112 -137q-254 -311 -582 -836q-111 -182 -244 -182q-119 0 -153 203q-2 10 -14 281 q-6 144 -37 393q-33 274 -43 391q-3 17 -3 21q0 49 68 102z" />
<glyph unicode="w" horiz-adv-x="1970" d="M389 1233q0 14 4 31q12 53 68 94q57 41 125 41q152 0 151 -158q-4 -31 -4 -65t21 -263l7 -97.5l13 -192.5q168 313 248 501q39 94 72 138q59 72 153 71q117 0 142 -82q5 -17 4 -46q0 -43 -11 -109q-24 -156 -23 -355q0 -72 3 -149l377 602q51 84 98 131q74 74 160 74 q70 0 110 -39q33 -31 34 -71q0 -11 -3 -23q-18 -88 -215 -377l-262 -379l-223 -365q-109 -180 -242 -180q-106 0 -141 90q-16 41 -21 158q0 63 -8 233l-182 -323q-43 -76 -84 -113q-55 -53 -146 -53q-96 0 -127 74q-14 37 -18 139q-6 195 -37 530q-33 379 -43 533z" />
<glyph unicode="x" horiz-adv-x="1384" d="M154 133q16 76 489 580q-150 406 -150 533q0 16 3 28q12 55 77 92q66 33 123 33q92 0 135 -86q25 -49 89 -316q311 334 446 334q68 0 109 -41q35 -35 35 -74q0 -11 -3 -22q-8 -41 -235 -256l-252 -238l164 -352q75 -164 75 -234q0 -10 -2 -18q-12 -55 -67 -92 q-59 -39 -125 -39q-141 0 -305 451l-242 -285q-121 -133 -229 -133q-74 0 -111 39q-28 30 -27 68q0 13 3 28z" />
<glyph unicode="y" horiz-adv-x="1538" d="M362 1245q12 65 62 105q55 49 139 49q133 0 139 -137q-6 -47 -14 -140.5t-14 -140.5q-2 -21 -2 -40q0 -136 80 -181q31 -18 57 -19q35 0 90 25q111 43 211 164q90 109 139 223q51 111 76 141q59 72 162 72q135 0 147 -149q0 -7 1 -16q0 -81 -29 -218q-72 -336 -164 -516 q-152 -297 -449 -436q-137 -66 -278 -66q-70 0 -113 37q-35 30 -35 71q0 11 2 23q25 109 207 144q33 4 72 14q199 57 321 362q-186 -143 -401 -143q-442 0 -442 466q0 134 36 306z" />
<glyph unicode="z" horiz-adv-x="1662" d="M336 190q31 145 270 353q88 78 432 325q124 88 183.5 142t59.5 85q0 34 -81 40q1 0 2 -1q0 -2 -133 -1q-66 0 -201 -6.5t-202 -6.5q-226 0 -226 111q0 12 2 26q31 139 285 140h152q39 0 88 1t63 1q258 0 420 -51q204 -64 204 -201q0 -21 -5 -43q-20 -94 -156 -223 q-94 -88 -287 -232q-233 -169 -258 -190q-164 -129 -229 -211q43 -6 86 -6q111 0 235 16q29 4 242 37q41 4 111 4q66 0 102 -41q29 -32 29 -67q0 -11 -2 -23q-23 -104 -348 -164q-219 -39 -429 -39q-152 0 -276 53q-136 56 -136 146q0 13 3 26z" />
<glyph unicode="{" horiz-adv-x="1310" d="M233 612q29 133 342 170q-82 172 -61 279q37 174 272 266q184 72 406 72q70 0 108.5 -37t26.5 -96q-20 -96 -147 -127q-94 -10 -226 -29q-98 -18 -104 -47q-10 -49 47 -160q57 -113 39 -192q-16 -70 -88 -109q49 -43 33 -117q-14 -53 -78 -100q-82 -61 -101 -84 q29 -29 136 -51q121 -25 153 -41q70 -33 53 -109q-12 -55 -69 -94q-59 -41 -129 -41q-201 0 -346 82q-174 98 -142 260q18 80 117 152q-120 15 -172 37q-88 36 -70 116z" />
<glyph unicode="|" horiz-adv-x="839" d="M383 -35q-172 0 104 1303q16 57 71.5 94t127.5 37q71 0 111 -37q41 -39 28 -94l-106 -492l-109 -493q-2 -8 -7 -39t-9 -53.5t-9 -54.5t-7 -40q-12 -55 -68 -92q-59 -39 -127 -39z" />
<glyph unicode="}" horiz-adv-x="1310" d="M276 106q14 76 95 111q55 23 161 29q108 6 142 18q72 25 78 62q10 43 -47 149q-55 106 -41 174q16 66 90 107q-47 49 -31 118q20 98 162 193q-22 28 -123 49q-127 23 -154 39q-74 33 -57 111q12 55 69.5 94t127.5 39q203 0 348 -82q176 -98 141 -262q-18 -88 -111 -152 q133 -18 192.5 -58t47.5 -102q-29 -133 -338 -163q82 -160 59 -269q-37 -174 -272 -268q-184 -74 -403 -74q-74 0 -111 39q-37 40 -25 98z" />
<glyph unicode="~" horiz-adv-x="1777" d="M291 391q35 158 207 293q184 147 381 147q186 0 247 -120q16 -29 11 -82q-8 -55 -11 -88q-2 -72 50 -72q90 0 135 86q20 39 43 145q31 154 184 154q72 0 117 -41q43 -39 31 -96q-49 -233 -179 -350q-152 -139 -444 -140q-131 0 -172 84q-23 43 -31 170q0 76 -33 76 q-76 0 -131 -80l-98 -147q-66 -80 -162 -80q-76 0 -116.5 39t-28.5 102z" />
<glyph unicode="&#xa2;" horiz-adv-x="1536" d="M268 639q43 201 250 365q201 156 461 198q71 197 233 197q78 0 115 -43t25 -99q-10 -37 -25 -63q250 -68 281 -279q2 -23 0 -41q-12 -51 -64 -92q-53 -43 -121 -43q-123 0 -141 109l-4 19.5t-3 15.5t-2 10t-1 7v3q-12 20 -58 27l-210 -473q143 4 270 22q4 0 10 1t8 1 q72 0 117 -39t33 -96q-23 -94 -148 -133q-123 -39 -426 -39q-55 -114 -73 -135q-57 -74 -158 -74q-71 0 -117 37q-51 39 -39 100q8 39 54 127q-333 111 -267 410zM606 629q-15 -71 62 -123q115 238 176 381q-205 -98 -238 -258z" />
<glyph unicode="&#xa3;" horiz-adv-x="1918" d="M256 668q10 47 53 88q53 51 121 51q18 0 35 -2q117 -20 223 -21q-15 95 0 160q43 203 203 326q170 129 420 129q137 0 237 -33q135 -43 170 -129q14 -35 8 -66q-12 -57 -77 -100t-136 -43q-23 0 -110 47q-84 45 -160 45q-72 0 -131 -47q-61 -49 -76 -112q-14 -59 8 -177 h81t74 1t63.5 1h54h45h37h27h14.5h12q74 0 113 -38.5t26 -98.5q-12 -55 -67 -96q-57 -41 -129 -41h-301q4 -78 -13 -143q-16 -72 -53 -127h66q86 0 262 6q233 8 264 8q72 0 113 -41q39 -39 26.5 -98.5t-69.5 -98.5q-59 -41 -129 -41q-90 0 -268.5 -6t-268.5 -6 q-348 0 -475 51q-109 43 -90 129q14 68 82 107q2 2 14 7l46 18.5l65 25.5q66 29 71 66q12 57 -2 139q-143 0 -176 2q-98 3 -172 18q-154 27 -131 140z" />
<glyph unicode="&#xa5;" horiz-adv-x="1671" d="M348 152q31 147 330 147q14 55 24 90q-123 -4 -161 -4q-72 0 -113 41q-39 39 -27 96q18 86 117 123q-119 121 -63 385q41 186 92 268q61 100 203 101q72 0 110 -41q41 -43 29 -96q-12 -59 -39 -135t-39 -136q-23 -109 14 -153q40 -49 160 -50q164 0 244 89q61 66 96 225 q12 57 16 78q6 31 17 80q12 53 63 96q53 43 127 43q145 0 170 -90q14 -61 -16 -213q-61 -283 -285 -437q58 -40 43 -110q-12 -61 -67 -98q-59 -41 -129 -41h-199l-18 -88q120 6 165 6q70 0 115 -41t33 -97q-22 -101 -172 -135q-72 -14 -252 -14q-66 -76 -166 -76 q-90 0 -127 64q-82 -8 -119 -9q-102 0 -146 33t-30 99z" />
<glyph unicode="&#xa9;" horiz-adv-x="2242" d="M338 649q61 285 381 518q317 231 676 232q416 0 630 -254q205 -240 136 -574q-61 -283 -389 -454q-293 -152 -654 -152q-384 0 -608 185q-238 194 -172 499zM670 641q-39 -190 118 -303q147 -104 402 -105q211 0 397 91q207 100 238 251q43 199 -96 375 q-145 182 -383 183q-209 0 -424 -160t-252 -332zM817 631q37 168 223 291q184 121 402 120q227 0 196 -139q-29 -135 -172 -135q-4 0 -24 4q-10 2 -25 2q-95 0 -172 -43t-92 -110q-9 -49 104 -50q76 0 117 9q29 4 35 4q70 0 111 -39q45 -41 32 -94q-31 -145 -319 -146 q-195 0 -315 78q-136 86 -101 248z" />
<glyph unicode="&#xad;" d="M365 557q12 53 67 96t125 43q45 0 80 -2q70 -4 80 -4q90 0 227 8.5t227 8.5q74 0 115 -41q39 -39 27 -99q-12 -57 -71.5 -98t-129.5 -41q-25 0 -246 -8q-166 -6 -248 -6q-143 0 -205 35.5t-48 107.5z" />
<glyph unicode="&#xae;" horiz-adv-x="2172" d="M346 688q61 280 307 486q272 225 615 225q422 0 657 -180q260 -193 189 -531q-61 -297 -336 -500q-287 -215 -654 -215q-365 0 -602 213t-176 502zM682 682q-41 -182 129 -315q0 18 2 26q8 33 31 119l28 119l39 182q-109 18 -112 107q-90 -109 -117 -238zM1020 262 q82 -23 180 -22q76 0 150 18l-140 76q-8 4 -32.5 15t-38.5 18q-43 -80 -119 -105zM1096 1106q86 14 164 14q184 0 292 -65q131 -80 100.5 -231.5t-239.5 -252.5l10 -4q181 -74 191 -159q131 125 166 286q37 178 -113 307q-152 129 -385 129q-98 1 -186 -24zM1243 782 q70 29 76 62q6 20 -43 20h-19z" />
<glyph unicode="&#xb4;" horiz-adv-x="823" d="M467 1561q6 33 143 151q127 111 185 143q65 37 123 37q74 0 112 -37q45 -41 33 -98q-8 -43 -68 -96q-51 -45 -227 -180q-84 -63 -157.5 -63.5t-114.5 42.5q-41 46 -29 101z" />
<glyph unicode="&#x2000;" horiz-adv-x="944" />
<glyph unicode="&#x2001;" horiz-adv-x="1892" />
<glyph unicode="&#x2002;" horiz-adv-x="944" />
<glyph unicode="&#x2003;" horiz-adv-x="1892" />
<glyph unicode="&#x2004;" horiz-adv-x="630" />
<glyph unicode="&#x2005;" horiz-adv-x="471" />
<glyph unicode="&#x2006;" horiz-adv-x="313" />
<glyph unicode="&#x2007;" horiz-adv-x="313" />
<glyph unicode="&#x2008;" horiz-adv-x="235" />
<glyph unicode="&#x2009;" horiz-adv-x="376" />
<glyph unicode="&#x200a;" horiz-adv-x="104" />
<glyph unicode="&#x2010;" d="M365 557q12 53 67 96t125 43q45 0 80 -2q70 -4 80 -4q90 0 227 8.5t227 8.5q74 0 115 -41q39 -39 27 -99q-12 -57 -71.5 -98t-129.5 -41q-25 0 -246 -8q-166 -6 -248 -6q-143 0 -205 35.5t-48 107.5z" />
<glyph unicode="&#x2011;" d="M365 557q12 53 67 96t125 43q45 0 80 -2q70 -4 80 -4q90 0 227 8.5t227 8.5q74 0 115 -41q39 -39 27 -99q-12 -57 -71.5 -98t-129.5 -41q-25 0 -246 -8q-166 -6 -248 -6q-143 0 -205 35.5t-48 107.5z" />
<glyph unicode="&#x2012;" d="M365 557q12 53 67 96t125 43q45 0 80 -2q70 -4 80 -4q90 0 227 8.5t227 8.5q74 0 115 -41q39 -39 27 -99q-12 -57 -71.5 -98t-129.5 -41q-25 0 -246 -8q-166 -6 -248 -6q-143 0 -205 35.5t-48 107.5z" />
<glyph unicode="&#x2013;" d="M365 557q12 53 67 96t125 43q45 0 80 -2q70 -4 80 -4q90 0 227 8.5t227 8.5q74 0 115 -41q39 -39 27 -99q-12 -57 -71.5 -98t-129.5 -41q-25 0 -246 -8q-166 -6 -248 -6q-143 0 -205 35.5t-48 107.5z" />
<glyph unicode="&#x2014;" horiz-adv-x="1781" d="M375 557q12 55 67 96q57 43 125 43q45 0 80 -2q70 -4 80 -4q160 0 389.5 8.5t386.5 8.5q72 0 113 -41q39 -39 26 -99q-12 -58 -67 -98q-57 -41 -131 -41q-47 0 -408 -8q-270 -6 -407 -6q-143 0 -205.5 35.5t-48.5 107.5z" />
<glyph unicode="&#x2018;" horiz-adv-x="806" d="M418 1266q12 59 75.5 96t133.5 37q92 0 129 -64l23.5 -38.5l20.5 -33l25 -38.5q63 -117 56 -162q-12 -55 -78 -96q-63 -39 -133 -39q-92 0 -129 65q-139 197 -123 273z" />
<glyph unicode="&#x2019;" horiz-adv-x="786" d="M377 1047q6 34 98 147q68 86 119 137q70 68 164 68q72 0 112.5 -39t28.5 -96q-10 -45 -98 -154q-72 -92 -123 -137q-72 -68 -150 -68q-70 0 -116.5 41.5t-34.5 100.5z" />
<glyph unicode="&#x201c;" horiz-adv-x="1464" d="M479 1266q12 59 75.5 96t133.5 37q90 0 127 -64l72 -110q66 -113 55 -162q-12 -55 -78 -96q-63 -39 -133 -39q-94 -12 -129 65q-139 197 -123 273zM995 1253q12 57 78 98.5t135 41.5q77 0 123 -62l131 -180q35 -43 25 -90q-12 -57 -74 -100q-63 -45 -131 -46 q-55 0 -108 41q-51 39 -115 134q-76 112 -64 163z" />
<glyph unicode="&#x201d;" horiz-adv-x="1390" d="M436 1047q6 31 101 147q68 86 118 137q70 68 164 68q72 0 113 -39t29 -96q-12 -49 -99 -154q-74 -90 -123 -137q-72 -68 -149 -68q-72 0 -119 41.5t-35 100.5zM901 1040q6 27 39 66q33 35 174 199q76 94 184 94q72 0 113 -39q43 -41 31 -96q-10 -51 -101 -160 q-74 -90 -135 -141q-78 -63 -157 -64q-72 0 -115 43q-45 45 -33 98z" />
<glyph unicode="&#x2022;" horiz-adv-x="1456" d="M350 633q33 164 168 270q147 113 352 113q230 0 387 -123q168 -133 129 -315q-33 -160 -210 -269q-176 -109 -371 -108q-248 0 -373 116.5t-82 315.5z" />
<glyph unicode="&#x2026;" horiz-adv-x="1984" d="M252 119q12 66 98 117q88 53 162 53q88 0 125 -51q33 -47 18.5 -111t-80.5 -113q-65 -49 -147 -49q-49 27 -129 64q-59 29 -47 90zM852 156q12 61 100 114.5t160 53.5q88 0 125 -52q33 -47 18 -108q-14 -63 -79 -113q-65 -49 -148 -49q-84 -37 -137 27t-39 127zM1378 113 q14 63 64 112q59 57 151 58q74 0 136 -43q59 -43 47 -111q-16 -66 -80 -113q-70 -51 -150 -51q-76 0 -129 43.5t-39 104.5z" />
<glyph unicode="&#x202f;" horiz-adv-x="376" />
<glyph unicode="&#x205f;" horiz-adv-x="471" />
<glyph unicode="&#x20ac;" horiz-adv-x="2134" d="M188 389q20 100 172 131q82 18 246 19q10 33 35 98h-121q-126 0 -178 18q-90 31 -72 119q12 55 72 96q57 39 127 39q33 0 59 -2h64q80 0 211 8q158 211 377 338q248 145 520 146q154 0 278 -66q129 -72 158 -188q10 -39 4 -66q-12 -55 -67 -92q-57 -39 -127 -39 q-92 0 -146 92q-53 90 -151 90q-90 0 -209 -53q-125 -55 -211 -125q193 16 303 17q70 0 108 -43q41 -43 29 -95q-12 -57 -70 -96q-59 -41 -129 -41q-57 0 -268 -18q-59 -4 -207 -17q-31 -59 -49 -118q303 8 381 8q72 0 111 -39t26 -94q-22 -95 -123 -123q-59 -18 -192 -19 q-84 0 -127 -2q68 -33 201 -32q115 0 247 22l248 45q8 2 27 2q70 0 108.5 -43t26.5 -98q-18 -86 -143 -125q-244 -78 -580 -78q-205 0 -352 72q-162 78 -207 221q-111 -4 -268 -4q-66 0 -111 41q-43 39 -31 94z" />
<glyph unicode="&#x2122;" horiz-adv-x="2414" d="M455 1249q18 86 139 111q57 12 194 12q55 0 252 14q168 12 254 13q141 0 158 -72q55 61 137 62q78 0 103 -60q14 -29 14 -108q-2 -147 16 -375q94 190 250 440q61 102 162 103q90 0 109 -70q10 -39 -2 -127q-14 -111 -3 -238q12 -119 27 -235l12 -146q3 -83 -12 -153 q-10 -49 -47 -84q-47 -41 -111 -41q-86 0 -110 57q-12 33 -10 113q6 74 -15 321q-94 -178 -162 -325q-74 -166 -188 -166q-111 0 -131 131q-29 195 -41 383q-101 -200 -160 -344q-33 -76 -63 -113q-49 -57 -133 -57q-57 0 -88 35t-23 76q20 100 385 788q-41 -14 -117 -14 h-174l-76 -357q-70 -256 -88 -350q-37 -178 -184 -178q-53 0 -88 31q-33 31 -25 75q8 41 43 205q70 229 113 428q14 57 25 121q-154 -12 -232 -12q-57 0 -87.5 30.5t-22.5 75.5z" />
<glyph unicode="&#xe000;" horiz-adv-x="1400" d="M0 1400h1400v-1400h-1400v1400z" />
<glyph unicode="&#xfb01;" horiz-adv-x="2000" d="M1468 100q31 150 109 394l123 393l55 194q33 119 80 197q70 121 188 121q70 0 111 -39q33 -31 33 -71q0 -11 -2 -23q-33 -156 -113 -379q-113 -313 -131 -377q-49 -152 -84 -317q-49 -227 -227 -228q-66 0 -111 41q-33 31 -33 71q-1 11 2 23zM170 100q31 139 102 383 q94 301 111 381q18 61 35 125q25 78 53 121q133 193 377 254q150 35 446 35q165 0 166 -102q0 -15 -4 -31q-12 -55 -65.5 -94t-126.5 -39h-80q-240 0 -326 -43q-100 -49 -137 -220q-8 -23 -27 -100q329 104 436 104q70 0 111 -45q30 -32 30 -73q0 -13 -3 -27 q-16 -80 -142 -119q-31 -12 -190 -51l-326 -86l-41 -190q-31 -121 -67 -191q-66 -127 -193 -127q-63 0 -108 41q-33 31 -34 71q0 11 3 23z" />
<glyph unicode="&#xfb02;" horiz-adv-x="2578" d="M1552 326q10 49 82 258q84 242 125 438q47 186 66 231q68 145 204 146q70 0 111 -39q33 -31 33 -71q0 -11 -2 -23v1l-99 -339q-20 -86 -86 -301q-94 -283 -106 -340q-4 -18 -4 -45q0 -6 -8 -6q88 0 479 210q100 53 149 54q68 0 113 -41q35 -33 35 -73q0 -11 -2 -21 q-12 -53 -96 -111q-145 -98 -359 -184q-252 -104 -397 -105q-253 0 -253 234q0 57 15 127zM170 100q31 139 102 383q94 301 111 381q18 61 35 125q25 78 53 121q133 193 377 254q150 35 446 35q165 0 166 -102q0 -15 -4 -31q-12 -55 -65.5 -94t-126.5 -39h-80 q-240 0 -326 -43q-100 -49 -137 -220q-8 -23 -27 -100q329 104 436 104q70 0 111 -45q30 -32 30 -73q0 -13 -3 -27q-16 -80 -142 -119q-31 -12 -190 -51l-326 -86l-41 -190q-31 -121 -67 -191q-66 -127 -193 -127q-63 0 -108 41q-33 31 -34 71q0 11 3 23z" />
<glyph unicode="&#xfb03;" horiz-adv-x="3328" d="M2797 100q31 150 109 394l123 393l55 194q33 119 80 197q70 121 188 121q70 0 111 -39q33 -31 33 -71q0 -11 -2 -23q-33 -156 -113 -379q-113 -313 -131 -377q-49 -152 -84 -317q-49 -227 -227 -228q-66 0 -111 41q-33 31 -33 71q-1 11 2 23zM1499 100q31 139 102 383 q94 301 111 381q18 61 35 125q25 78 53 121q133 193 377 254q150 35 446 35q165 0 166 -102q0 -15 -4 -31q-12 -55 -65.5 -94t-126.5 -39h-80q-240 0 -326 -43q-100 -49 -137 -220q-8 -23 -27 -100q329 104 436 104q70 0 111 -45q30 -32 30 -73q0 -13 -3 -27 q-16 -80 -142 -119q-31 -12 -190 -51l-326 -86l-41 -190q-31 -121 -67 -191q-66 -127 -193 -127q-63 0 -108 41q-33 31 -34 71q0 11 3 23zM170 100q31 139 102 383q94 301 111 381q18 61 35 125q25 78 53 121q133 193 377 254q150 35 446 35q165 0 166 -102q0 -15 -4 -31 q-12 -55 -65.5 -94t-126.5 -39h-80q-240 0 -326 -43q-100 -49 -137 -220q-8 -23 -27 -100q329 104 436 104q70 0 111 -45q30 -32 30 -73q0 -13 -3 -27q-16 -80 -142 -119q-31 -12 -190 -51l-326 -86l-41 -190q-31 -121 -67 -191q-66 -127 -193 -127q-63 0 -108 41 q-33 31 -34 71q0 11 3 23z" />
<glyph unicode="&#xfb04;" horiz-adv-x="3907" d="M2881 326q10 49 82 258q84 242 125 438q47 186 66 231q68 145 204 146q70 0 111 -39q33 -31 33 -71q0 -11 -2 -23v1l-99 -339q-20 -86 -86 -301q-94 -283 -106 -340q-4 -18 -4 -45q0 -6 -8 -6q88 0 479 210q100 53 149 54q68 0 113 -41q35 -33 35 -73q0 -11 -2 -21 q-12 -53 -96 -111q-145 -98 -359 -184q-252 -104 -397 -105q-253 0 -253 234q0 57 15 127zM1499 100q31 139 102 383q94 301 111 381q18 61 35 125q25 78 53 121q133 193 377 254q150 35 446 35q165 0 166 -102q0 -15 -4 -31q-12 -55 -65.5 -94t-126.5 -39h-80 q-240 0 -326 -43q-100 -49 -137 -220q-8 -23 -27 -100q329 104 436 104q70 0 111 -45q30 -32 30 -73q0 -13 -3 -27q-16 -80 -142 -119q-31 -12 -190 -51l-326 -86l-41 -190q-31 -121 -67 -191q-66 -127 -193 -127q-63 0 -108 41q-33 31 -34 71q0 11 3 23zM170 100 q31 139 102 383q94 301 111 381q18 61 35 125q25 78 53 121q133 193 377 254q150 35 446 35q165 0 166 -102q0 -15 -4 -31q-12 -55 -65.5 -94t-126.5 -39h-80q-240 0 -326 -43q-100 -49 -137 -220q-8 -23 -27 -100q329 104 436 104q70 0 111 -45q30 -32 30 -73q0 -13 -3 -27 q-16 -80 -142 -119q-31 -12 -190 -51l-326 -86l-41 -190q-31 -121 -67 -191q-66 -127 -193 -127q-63 0 -108 41q-33 31 -34 71q0 11 3 23z" />
</font>
</defs>
</svg>
