<?xml version="1.0" standalone="no"?>
<!DOCTYPE svg PUBLIC "-//W3C//DTD SVG 1.1//EN" "http://www.w3.org/Graphics/SVG/1.1/DTD/svg11.dtd" >
<svg xmlns="http://www.w3.org/2000/svg">
<metadata>
This is a custom SVG webfont generated by Font Squirrel.
Copyright   : Copyright c ShyFonts Type Foundry 2000 All rights reserved
Designer    : ShyFonts Type Foundry
Foundry URL : httpwwwshyfontscom
</metadata>
<defs>
<font id="webfontsjl9mMwt" horiz-adv-x="1443" >
<font-face units-per-em="2048" ascent="1638" descent="-410" />
<missing-glyph horiz-adv-x="751" />
<glyph unicode=" "  horiz-adv-x="751" />
<glyph unicode="&#x09;" horiz-adv-x="751" />
<glyph unicode="&#xa0;" horiz-adv-x="751" />
<glyph unicode="!" horiz-adv-x="829" d="M119 96q0 52 43 111q55 68 133 67q72 0 131 -45t59 -102q0 -66 -59 -113q-61 -49 -141 -49q-59 0 -115 39q-51 37 -51 92zM188 467q0 131 68 426q72 315 131 414q59 92 162 92q66 0 117 -41q49 -39 49 -94q0 -80 -43 -252l-68 -256q-23 -106 -82 -299q-45 -125 -166 -125 q-72 0 -118 39q-50 39 -50 96z" />
<glyph unicode="&#x22;" horiz-adv-x="1310" d="M256 1264q0 57 51 96t125 39t121 -39q51 -41 51 -96q0 -18 4 -145.5t4 -143.5q0 -55 -51 -94q-49 -37 -119 -37q-186 0 -186 420zM653 981q0 92 64 285q39 127 172 127q63 0 118.5 -37t55.5 -92q0 -187 -74 -326q-47 -92 -155 -92q-74 0 -125 37q-56 40 -56 98z" />
<glyph unicode="#" horiz-adv-x="2074" d="M147 930q0 113 162 137q61 8 312 8q0 12 -5 99q-2 39 -2 90q0 57 51.5 96t122.5 39q178 0 179 -295q41 4 184 4q-6 133 -6 156q0 57 51 96t123 39q121 0 160 -101q18 -47 18 -178h154q266 0 266 -139q0 -57 -51 -100q-49 -41 -121 -41q-12 0 -53 1t-68 1q-25 0 -53.5 1 t-44 2t-21.5 1v-137q51 0 101.5 1t75 2t30.5 1q76 0 123 -41t47 -101q0 -58 -49 -98q-51 -41 -311 -41q10 -168 10 -180q0 -55 -53 -96q-51 -39 -119 -39q-129 0 -168 114q-18 49 -18 199q-104 -2 -244 -2q-6 -154 -21 -197q-37 -115 -164 -114q-68 0 -120 41q-51 39 -52 96 q0 61 11 160q-174 -14 -222 -15q-68 0 -116 43q-47 41 -47 97q0 104 151 135q57 10 256 10q2 20 3 61t1 64q-246 -18 -299 -18q-71 0 -116 43q-48 43 -48 96zM956 702q41 0 112 3.5t95 3.5v127q-80 -2 -207 -2v-132z" />
<glyph unicode="$" horiz-adv-x="1587" d="M102 356q0 59 51.5 98.5t122.5 39.5q57 0 174 -18.5t177 -18.5h2q14 82 22 166q-446 100 -446 292q0 129 176 220q139 72 328 100q12 164 178 164q66 0 121 -37t55 -94v-27q139 -23 237 -67q137 -63 138 -142q0 -57 -56 -100q-57 -45 -125 -45q-28 0 -67 24l-62 37 q-27 16 -88 23q-14 -133 -16 -148q403 -117 403 -331q0 -266 -493 -306q-12 -104 -39 -145q-45 -76 -154 -76q-88 0 -133 51q-37 43 -37 107q0 29 9 61q-104 2 -181 11q-102 8 -174 30q-123 41 -123 131zM614 928q12 -12 68 -21l4 39q-45 -10 -72 -18zM977 459 q111 -9 110 18q0 33 -100 64z" />
<glyph unicode="%" horiz-adv-x="2406" d="M170 969q0 121 129 268q141 162 297 162q215 0 360 -99q154 -104 154 -278q0 -160 -137 -274.5t-334 -114.5q-182 0 -317 92q-152 99 -152 244zM516 961q0 -53 113 -54q55 0 96 35t41 80q0 37 -39 65q-35 27 -84 27q-127 1 -127 -153zM682 104q0 76 504 838l223 336 q84 121 190 121q70 0 121.5 -39t51.5 -96q0 -18 -7 -37q-37 -100 -196 -318l-199 -274q-123 -215 -350 -574q-68 -96 -160 -96q-66 0 -123 41q-55 39 -55 98zM1294 286.5q0 149.5 144 276.5q139 125 331 125q170 0 310 -94q147 -101 147 -240q0 -160 -139 -272 q-145 -117 -338 -117q-184 0 -311 82q-144 90 -144 239.5zM1632 311q0 -40 37 -67q39 -29 84 -29q51 0 86 28.5t35 69.5t-37 72t-84 31t-84 -31t-37 -74z" />
<glyph unicode="&#x26;" horiz-adv-x="1308" d="M115 434q0 145 164 248q-61 59 -62 127q0 117 121 213q96 80 250 121q18 256 203 256q70 0 120 -41q49 -39 50 -96q0 -25 -17 -95q240 -31 240 -155q0 -55 -54 -99q-52 -43 -122 -43q-53 0 -156 19q-90 16 -154 16q-92 0 -92 -57q0 -29 96 -41q135 -23 175 -37 q96 -37 96 -123q0 -133 -244 -133q-10 0 -80 4q-35 2 -80 2q-80 0 -80 -41q0 -29 37 -45q63 -25 367 -24q70 0 121 -41q49 -40 49 -99q0 -58 -49 -98q-47 -39 -121 -39h-111q-6 -96 -24 -121q-35 -47 -152 -47q-86 0 -133 53q-35 45 -35 107q0 10 4 43q-327 63 -327 266z " />
<glyph unicode="'" horiz-adv-x="819" d="M215 1264q0 57 51 96t123 39q76 0 123 -39q49 -41 49 -96q0 -18 4 -145.5t4 -143.5q0 -55 -51 -94q-49 -37 -119 -37q-184 0 -184 420z" />
<glyph unicode="(" horiz-adv-x="905" d="M170 530q0 453 221 742q94 127 203 127q70 0 117 -39q51 -41 51 -94q0 -20 -80 -146l-90 -149q-82 -170 -82 -432q0 -131 92 -402q8 -18 8 -37q0 -53 -53 -94t-121 -41q-129 0 -207 240q-59 178 -59 325z" />
<glyph unicode=")" horiz-adv-x="907" d="M137 98q0 20 47 86l70 86q139 197 139 572q0 90 -82 338q-16 49 -16 84q0 53 53 94t121 41q138 0 209 -234q51 -162 51 -323q0 -453 -219 -748q-96 -129 -199 -129q-70 0 -121 39q-53 41 -53 94z" />
<glyph unicode="*" horiz-adv-x="1624" d="M158 594q0 92 293 254q-260 162 -261 244q0 55 55.5 98t125.5 43q57 0 135 -47l110 -80q-8 96 -8 164q0 55 55.5 92t118.5 37q119 0 162 -105q25 -63 25 -182q199 106 268.5 106.5t122.5 -40.5q51 -39 51 -97q0 -96 -240 -207q-4 -2 -106 -47q135 -68 332 -188 q76 -55 76 -121q0 -57 -53.5 -96t-125.5 -39q-49 0 -110 35l-103 59l-104 62v-95q0 -59 -51 -96q-53 -37 -125 -37q-74 0 -123 37t-49 96v158l-178 -115q-57 -35 -115 -34q-70 0 -125 43q-53 41 -53 98z" />
<glyph unicode="+" horiz-adv-x="1351" d="M96 508q0 57 47 98t121 41h228q-18 144 -19 166q0 55 55 94q53 39 121 39q119 0 160 -98q27 -63 27 -178q68 2 174 2q117 0 174 -23q82 -31 82 -121q0 -59 -49 -96q-51 -39 -121 -39q-25 0 -43.5 2t-42.5 2h-158q0 -12 1 -27.5t1 -17.5q0 -180 -172 -180q-113 0 -150 68 q-29 45 -28 137q-138 -6 -240 -6q-72 0 -119 39q-49 40 -49 98z" />
<glyph unicode="," horiz-adv-x="780" d="M154 -104q0 31 28 71l47 66l50 147q37 80 155 80q78 0 123 -37q49 -39 49 -96q0 -102 -78 -227q-90 -145 -204 -146q-70 0 -119 43q-51 46 -51 99z" />
<glyph unicode="-" d="M246 557q0 53 47 96t117 43q45 0 79 -2q70 -4 80 -4q94 0 227.5 8.5t225.5 8.5q76 0 123 -41t47 -99t-49 -98q-51 -41 -121 -41q-29 0 -246 -8q-163 -6 -246 -6q-284 0 -284 143z" />
<glyph unicode="." horiz-adv-x="800" d="M180 119q0 63 76 116.5t150 53.5q88 0 137 -51q39 -41 39 -111q0 -66 -54 -113q-55 -49 -137 -49q-72 0 -143 45q-68 43 -68 109z" />
<glyph unicode="/" horiz-adv-x="929" d="M80 92q0 55 67 242l338 893q68 172 197 172q70 0 117 -41q49 -43 49 -94q0 -55 -201 -600q-203 -550 -239 -609q-61 -90 -156 -90q-61 0 -115 35q-57 37 -57 92z" />
<glyph unicode="0" horiz-adv-x="1718" d="M211 582q0 262 137 503q178 313 488 314q332 0 520 -191q170 -170 170 -438q0 -274 -189 -518q-221 -287 -557 -287q-291 0 -446 211q-123 169 -123 406zM547 582q0 -129 47 -217q66 -129 197 -129q137 0 272 196q127 182 127 318q0 158 -94 260q-106 119 -277 118 q-135 -53 -211 -233q-61 -141 -61 -313z" />
<glyph unicode="1" horiz-adv-x="966" d="M70 1137q0 61 77 114q55 33 179 88q143 59 200 60q78 0 125 -35q49 -37 49 -98q0 46 0 -738q-33 -117 -32 -243q-12 -176 -41 -228q-45 -92 -162 -92q-74 0 -119 39q-47 41 -47 96q0 6 6 29q31 133 31 315v-1v-2v-2v-3v-2v-1v-3v-1v-2v-3v-2v-2v-1v-1v-1v-2v-1v-1v-1v0 v-1v0v-1v0v0v0v0v0v0v0v1v0v1v0v1v1v0v1v1v1v1v1v1v1v2v0v2v0v2v1v1v2v1v1v2v1v2v1v2v1v2v2v2v2v2v2v3v2v1v2v3v2v1v2v3v2v2v2v1v3v2v2v2v2v2v2v3v1v3v1v3v1v3v2v2v2v1v3v2v3v1v2v3v1v2v3v1v2v3v2v1v3v2v2v1v3v2v2v1v3v2v2v1v4v1v2v2v3v2v2v1v2v3v2v2v2v1v4v2v1v2v2v2v3v2v2 v1v2v2v2v3v2v2v2v2v2v1v2v4v2v2v1v2v2v2v2v2v2v2v3v2v2v2v2v2v2v2v2v2v2v1v2v2v4v2v2v2v2v2v2v2v2v2v2v2v2v2v2v2v2v2v2v2v2v2v2v19v268q-61 -25 -98 -24q-72 0 -119 38q-49 40 -49 95z" />
<glyph unicode="2" horiz-adv-x="1576" d="M162 227q0 156 217 353q49 47 401 311q217 162 217 229q0 10 -45 10q-104 0 -284 -67q-39 -88 -154 -88q-70 0 -119 37q-51 39 -51 98q0 131 236 217q193 72 376 72q164 0 267 -58q123 -72 123 -200q0 -147 -201 -336q-88 -84 -256 -205q-201 -143 -262 -199 q-117 -102 -117 -145q0 -20 76 -20q106 0 456 51q76 12 141.5 12t112.5 -43t47 -94q0 -88 -110 -121q-39 -12 -199 -31q-84 -10 -223 -28q-141 -16 -225 -17q-424 0 -424 262z" />
<glyph unicode="3" horiz-adv-x="1593" d="M199 190q0 57 47 96.5t116 39.5q31 0 144 -45q109 -43 205 -43q293 0 293 98q0 92 -144 149l-239 72q-102 35 -103 119q0 82 92 119l181 43q86 20 165 77q86 59 86 112.5t-90 80.5q-72 23 -143 22q-66 0 -193 -28q-119 -27 -172 -27q-66 0 -118 41q-51 39 -52 96 q0 95 215 148q158 39 316 39q227 0 389 -92q184 -102 184 -287q0 -205 -250 -338q213 -135 213 -338q0 -184 -208 -291q-172 -88 -404 -88q-160 0 -321 49q-209 67 -209 176z" />
<glyph unicode="4" horiz-adv-x="1556" d="M125 760q0 74 22.5 237.5t22.5 239.5q0 55 51 92q53 37 121 37q70 0 119 -37t49 -92q0 -53 -25 -231q-23 -164 -22 -236q0 -201 129 -201q223 0 293 242q20 70 20 369q27 219 201 219q172 0 172 -166q0 -144 -12 -430q-12 -287 -13 -428q0 -46 7 -142q6 -94 6 -139 q0 -55 -54 -92q-52 -37 -116 -37q-186 0 -187 262v158q-150 -82 -336 -82q-448 0 -448 457z" />
<glyph unicode="5" horiz-adv-x="1624" d="M217 115q0 70 96 100q68 25 164 25q12 0 103 -4q45 -2 102 -3q385 0 385 152q0 115 -451 115q-176 0 -266 293q-61 199 -61 407q0 109 225 148q313 51 711 51q68 0 110 -41q45 -43 45 -92q0 -94 -133 -129q-57 -14 -229 -15q-305 -29 -385 -39q14 -184 65 -305q20 2 64 2 q246 0 426 -92q219 -109 219 -303q0 -420 -889 -420q-301 0 -301 150z" />
<glyph unicode="6" horiz-adv-x="1554" d="M203 496q0 389 301 784q92 119 186 119q68 0 121 -37t53 -94q0 -35 -202 -348q66 4 98 4q270 0 471 -125q219 -139 219 -357q0 -205 -213 -346q-201 -131 -455 -131q-289 0 -442 160q-137 140 -137 371zM539 489q0 -252 252 -251q117 0 219 63q104 63 104 143 q0 88 -110 152q-109 59 -228 59q-104 0 -223 -30q-14 -81 -14 -136z" />
<glyph unicode="7" horiz-adv-x="1480" d="M166 1264q0 49 47 92q45 43 112.5 43t120.5 -2q106 -4 242 -4q688 0 688 -277q0 -113 -184 -368l-254 -355q-68 -102 -115 -227q-41 -111 -57 -129q-47 -72 -137 -72q-68 0 -123 37q-57 39 -57 94q0 18 8 37q115 319 358 658l113 139q92 119 92 139q0 55 -146 68h-202 q-16 0 -152 -4q-68 -2 -151 -3q-72 0 -133 29q-70 37 -70 105z" />
<glyph unicode="8" horiz-adv-x="1536" d="M217 412q0 217 191 340q-137 117 -138 274q0 172 115 272.5t332 100.5q209 0 364 -109q162 -113 162 -282q0 -168 -156 -269q260 -150 261 -372q0 -195 -201 -306q-176 -96 -418 -96q-236 0 -375 131q-137 126 -137 316zM557 406q0 -61 51 -114.5t117 -53.5 q256 0 256 165q0 59 -82 111q-84 53 -160 53q-72 0 -125 -51q-57 -53 -57 -110zM606 1001q0 -41 41 -63q43 -25 105 -25q66 0 110.5 27t44.5 72q0 51 -53 86t-125 35q-123 -1 -123 -132z" />
<glyph unicode="9" horiz-adv-x="1402" d="M80 877q0 193 244 362q233 160 473 160q211 0 309 -152q72 -113 72 -280q0 -131 -45 -318q-63 -260 -70 -315q-35 -199 -43 -223q-55 -145 -184 -146q-61 0 -111 37q-55 37 -55 90q0 109 84 375q-16 -2 -47 -2q-254 0 -426 96q-201 115 -201 316zM432 864 q0 -125 211 -125q82 0 180 19q20 117 21 250q0 68 -8 86q-18 43 -80 43q-121 0 -221 -88q-103 -91 -103 -185z" />
<glyph unicode=":" horiz-adv-x="821" d="M207 710.5q0 63.5 37 112.5q49 57 141 58q74 0 145 -45q68 -43 68 -109q0 -63 -55 -113q-57 -51 -140 -51q-76 0 -135 41q-61 43 -61 106.5zM221 119q0 63 76 116.5t147 53.5q88 0 138 -51q41 -45 41 -111t-54 -113q-55 -49 -139 -49q-76 0 -143 45q-66 43 -66 109z" />
<glyph unicode=";" horiz-adv-x="798" d="M158 -104q0 33 26 71l47 66l50 147q39 80 157 80q76 0 121 -37q49 -39 49 -96q0 -106 -76 -227q-90 -145 -204 -146q-72 0 -121 43.5t-49 98.5zM242 717q0 59 57 114.5t133 55.5q86 0 143 -58q53 -53 53.5 -114.5t-57 -100.5t-131.5 -39q-78 0 -135 33q-63 39 -63 109z " />
<glyph unicode="&#x3c;" horiz-adv-x="1175" d="M82 598q0 117 151 219l273 150q57 45 170 108q29 12 65 12q72 0 123 -38q53 -41 54 -97q0 -82 -132 -168l-190 -102l-137 -84q66 -45 182 -98q135 -65 184 -92q82 -49 82 -109q0 -53 -49 -100q-51 -47 -121 -47q-37 0 -86 20q-199 78 -348 172q-221 141 -221 254z" />
<glyph unicode="=" horiz-adv-x="1527" d="M242 709q0 57 47 98t121 41q160 0 358 10q240 12 358 12q72 0 119 -39q49 -40 49 -98q0 -57 -49 -96q-51 -41 -119 -41q-119 0 -358.5 -12.5t-357.5 -12.5q-76 0 -121 39q-47 42 -47 99zM268 338q0 102 129 139q80 23 236 23q111 4 233 4q98 5 200 9l28 1q70 0 123 -41 q51 -39 51 -96q0 -115 -166 -139q-33 -4 -246 -5q-53 -10 -194 -18q-106 -8 -191 -8q-203 0 -203 131z" />
<glyph unicode="&#x3e;" horiz-adv-x="1181" d="M201 932q0 57 51 96q53 41 123 41q47 0 125 -37q51 -23 116 -59l302 -135q168 -96 167.5 -225.5t-172.5 -245.5q-76 -41 -297 -177q-66 -45 -124 -45q-71 0 -123 43q-53 43 -54 101q0 61 103 135q57 35 192 111q102 59 103 75q0 25 -150 74q-123 41 -221 96 q-141 84 -141 152z" />
<glyph unicode="?" horiz-adv-x="1648" d="M229 115q0 66 66 121q68 57 147 57q82 0 136 -60q43 -53 43 -110q0 -68 -63.5 -113t-145.5 -45q-78 0 -129 45q-54 48 -54 105zM254 1225q0 98 195 143q133 31 296 31q260 0 439 -64q246 -86 246 -266q0 -133 -117 -225q-78 -61 -250 -119l-227 -72q-150 -55 -183 -114 q-14 -27 -14 -74q0 -55 -53 -90q-51 -33 -115 -33q-170 0 -170 170q0 190 242 317q20 10 297 107q231 82 231 115q0 84 -278 84q-82 0 -218 -25q-125 -23 -182 -23q-68 0 -106 52q-33 39 -33 86z" />
<glyph unicode="@" horiz-adv-x="2134" d="M201 612q0 319 288.5 553t681.5 234q340 0 563.5 -178.5t223.5 -450.5q0 -184 -96 -334q-120 -190 -351 -190q-227 0 -321 168q-78 -39 -166 -39q-147 0 -254 90q-104 88 -104 207q0 150 151 284q151 135 344 136q102 0 199 -54q111 -59 110 -145q0 -23 -8 -39 q59 -43 60 -119q0 -27 -17 -96q-14 -59 -14 -98q0 -45 45 -45q59 0 72 100q0 2 1 19.5t1 49v68.5q0 399 -457 400q-195 0 -405 -152q-209 -150 -209 -305q0 -436 471 -436q28 0 80 6q70 8 81 8q66 0 119 -37t53 -94q0 -90 -112 -133q-61 -25 -242 -25q-344 0 -569 189 q-219 179 -219 458zM995 657q0 -16 37 -16q49 0 101 49q46 46 67 105q-41 29 -59 28q-57 0 -101 -51q-45 -56 -45 -115z" />
<glyph unicode="A" horiz-adv-x="1406" d="M84 109q0 2 1 10t1 14q63 385 133 578q109 297 322 534q138 154 313 154q383 0 383 -656v-90v-88q0 -96 16 -233q18 -154 19 -234q0 -57 -55 -94q-57 -39 -123 -39q-86 0 -123 49q-14 14 -49 103q-84 207 -445 274q-18 -71 -43 -215q-8 -94 -35 -137q-45 -74 -149 -74 q-74 0 -119 43q-47 44 -47 101zM551 655q188 -33 348 -114v333q-12 96 -16 125q-8 82 -35 121l4 6q-34 0 -154 -178q-90 -129 -147 -293z" />
<glyph unicode="B" horiz-adv-x="1370" d="M131 254q0 94 35 246q57 236 57 241q12 82 47 410q-76 45 -75 115q0 133 225 133q850 0 850 -414q0 -236 -285 -364q186 -125 186 -285q0 -135 -116 -227q-84 -66 -250 -107q-145 -37 -281 -37q-393 0 -393 289zM467 238q29 -4 43 -5q96 0 184 21q123 29 142 82 q-49 104 -328 153q-41 -160 -41 -239v-12zM567 780q367 74 367 197q0 104 -326 145q-12 -143 -41 -342z" />
<glyph unicode="C" horiz-adv-x="1284" d="M100 422q0 152 54 336q52 181 141 319q203 322 487 322q354 0 355 -418q0 -219 -174 -219q-65 0 -117 37q-51 37 -51 90q0 10 4 76l5 48.5t5 59.5q2 25 0 39q-6 20 -18 21q-129 0 -265 -316q-92 -219 -92 -391q0 -184 170 -184q76 0 213 77q133 76 189 76q68 0 119 -39 t51 -96q0 -55 -72 -113q-88 -70 -254 -124q-172 -57 -289 -58q-221 0 -350 152q-111 133 -111 305z" />
<glyph unicode="D" horiz-adv-x="1486" d="M143 1249q0 104 136 135q59 14 235 15q371 0 614 -150q276 -166 277 -456q0 -270 -324 -547q-330 -281 -665 -281q-139 0 -207 96q-49 71 -49 179q0 72 24 358q18 209 58 535q-99 33 -99 116zM494 246q197 47 387 213q186 162 186 309q0 100 -31 162q-47 90 -186 143 q-123 47 -272 47q-25 -129 -43 -342q-23 -223 -41 -532z" />
<glyph unicode="E" horiz-adv-x="1380" d="M111 295q0 176 96 459q115 336 139 454q12 72 23 84q23 29 94 56q139 51 543 51q283 0 282 -142q0 -53 -49 -94q-51 -41 -117 -41q-8 0 -86 4t-84 4q-133 0 -290 -22q-23 -98 -60 -211q197 61 313 61q70 0 119 -36.5t49 -92.5q0 -80 -96 -122q-39 -16 -180 -50 q-102 -25 -307 -82q-49 -162 -49 -288q-2 -10 -11 -31q-6 -23 4 -23q117 0 310 91q197 92 268 92q68 0 119 -41t51 -92q0 -59 -82 -113q-102 -70 -305 -133q-219 -72 -338 -72q-184 0 -274 101q-82 84 -82 229z" />
<glyph unicode="F" horiz-adv-x="1298" d="M133 100q0 135 23 383q27 285 26 381q4 43 8 125q6 70 29 121q94 193 324 254q139 35 440 35q188 0 188 -133q0 -55 -45 -94t-116 -39h-82q-240 0 -316 -43q-90 -47 -90 -220q-8 -45 -8 -100q307 104 414 104q72 0 121 -45t49 -100q0 -78 -115 -119q-31 -14 -182 -51 l-303 -86v-190q-6 -111 -31 -191q-37 -127 -166 -127q-66 0 -117 41t-51 94z" />
<glyph unicode="G" horiz-adv-x="1331" d="M106 584q0 453 326 698q158 117 330 117q115 0 223 -56q111 -57 166 -133q27 -37 27 -63q0 -55 -50 -98q-47 -41 -118 -41q-70 0 -131 59q-65 61 -105 61q-160 0 -256 -210q-74 -164 -74 -324q0 -141 62 -240q74 -119 207 -118q111 0 161 81q-37 43 -112 43q-14 0 -25 -2 h-20q-72 0 -115 41q-47 43 -47 95q0 74 76 106q57 29 137 29q168 0 305 -84q145 -90 146 -234q0 -139 -177 -248q-160 -98 -333 -98q-176 0 -332 103q-139 94 -205 227q-66 127 -66 289z" />
<glyph unicode="H" horiz-adv-x="1505" d="M145 100q0 145 25 375q33 344 35 377q12 154 12 340q0 207 176 207q70 0 119 -37q47 -35 47 -94v-500q244 51 434 63q10 80 27 279q3 138 18 184q37 104 160 105q70 0 117 -39q51 -41 51 -94q0 -201 -72 -797q-12 -88 -34 -313q-23 -190 -181 -191q-68 0 -118 41 q-49 39 -50 96q0 96 50 453q-188 -20 -443 -70q-14 -137 -14 -309q-23 -211 -189 -211q-66 0 -118 41q-52 39 -52 94z" />
<glyph unicode="I" horiz-adv-x="1052" d="M137 1245q0 156 355 156q174 0 213 -2q250 -18 249 -146q0 -53 -49 -94q-47 -39 -119 -39q-49 0 -81 4q-25 -362 -25 -499q0 -145 16 -373q66 -6 111 -39q49 -37 49 -92q0 -92 -100 -123q-47 -16 -191 -33q-49 -6 -129 -20q-86 -18 -119 -19q-70 0 -112 43q-45 45 -45 94 q0 111 196 148q-16 246 -16 385q0 197 25 522q-41 -4 -56 -4q-68 0 -119 37q-53 37 -53 94z" />
<glyph unicode="J" horiz-adv-x="1267" d="M53 303q0 55 53.5 92t118.5 37q55 0 127 -47l109 -78q104 -74 170 -74q164 0 164 578q0 184 -41 295q-123 -35 -215 -35q-70 0 -115 39q-47 41 -47 92q0 63 43 94q25 18 108 41q233 61 334 62q137 0 213 -242q55 -175 55 -332q0 -551 -157 -727q-121 -133 -322 -133 q-147 0 -309 74q-168 76 -246 172q-43 52 -43 92z" />
<glyph unicode="K" horiz-adv-x="1421" d="M137 104q0 119 33 359q37 287 43 360q4 37 11 139.5t12 151.5q4 137 20 180q37 104 160 105q70 0 116 -39q49 -41 50 -94q0 -117 -17 -281q410 426 502 426q66 0 117 -41t51 -92q0 -96 -274 -330q-272 -233 -273 -317q0 -88 154 -199l282 -174q154 -96 154 -162 q0 -58 -55 -98q-57 -41 -121 -41q-78 0 -283 135q-131 84 -225 162q-43 33 -88 78q-4 -88 -37 -254q-37 -113 -170 -113q-70 0 -115 43q-47 43 -47 96z" />
<glyph unicode="L" horiz-adv-x="1234" d="M143 326q0 51 27 258q31 231 31 438q10 203 16 231q37 145 176 146q72 0 119 -39q49 -41 49 -94v0l-26 -338q-10 -160 -23 -301q-35 -303 -35 -340q0 -29 6 -45q2 -2 -1 -4t-7 -2q88 0 434 210q88 53 142 54q66 0 119 -41t53 -94q0 -51 -72 -111q-121 -96 -322 -184 q-230 -104 -374 -105q-312 1 -312 361z" />
<glyph unicode="M" horiz-adv-x="1918" d="M119 102q0 57 96 414q70 256 121 416q18 59 108 321q55 145 191 146q98 0 143 -74q23 -37 45 -139q46 -233 142 -547q63 217 102 324l100 258q25 76 56 118q49 59 137 60q113 0 151 -88q18 -43 31 -162q6 -90 51 -254l113 -397q88 -313 88 -396q0 -57 -45 -96 q-47 -41 -117 -41q-106 0 -149 74q-25 37 -43 143q-20 115 -125 475q-90 -276 -137 -481q-25 -96 -50 -137q-47 -74 -143 -74q-84 0 -137 55q-31 33 -62 115q-96 268 -178 555q-90 -315 -129 -508q-20 -100 -47 -143q-49 -74 -149 -74q-71 0 -117 43q-47 43 -47 94z" />
<glyph unicode="N" horiz-adv-x="1615" d="M137 96q0 254 60 621q72 432 176 592q61 90 155 90q139 0 172 -131q12 -37 13 -213q16 -268 51 -463q63 -365 188 -365q100 0 152 166q35 121 35 238q0 100 -52 317q-49 209 -49 316q0 55 45 94q47 41 117 41q137 0 191 -158q12 -45 39 -244q47 -340 47 -368 q0 -180 -72 -340q-61 -133 -158 -217q-126 -111 -289 -111q-319 0 -469 391q-4 -94 -4 -141q0 -246 -184 -246q-68 0 -117 39q-47 37 -47 92z" />
<glyph unicode="O" horiz-adv-x="1611" d="M123 569q0 293 145 529q186 301 539 301q324 0 512 -170q178 -160 178 -422q0 -283 -197 -541q-231 -301 -575 -301q-285 0 -457 203q-145 174 -145 401zM457 569q0 -221 159 -303q57 -29 103 -28q180 0 321 211q121 188 121 364q0 313 -393 313q-139 0 -236 -229 q-75 -187 -75 -328z" />
<glyph unicode="P" horiz-adv-x="1421" d="M160 1243q0 111 196 141q84 14 303 15q266 0 465 -78q264 -109 265 -315q0 -223 -310 -394q-231 -129 -547 -188q0 -10 -24 -279q-16 -180 -172 -180q-68 0 -119 41q-49 39 -49 94q0 201 27 514q35 377 34 514q-69 43 -69 115zM551 707q500 123 500 303q0 119 -451 118 h-33q0 -206 -16 -421z" />
<glyph unicode="Q" horiz-adv-x="1607" d="M94 614q0 270 158 502q195 283 524 283q340 0 545 -232q182 -201 182 -477q0 -199 -108 -366q-115 -182 -320 -281q72 -139 72 -180q0 -55 -51.5 -94t-114.5 -39q-145 0 -231 235h-9h-8q-303 0 -483 213q-156 190 -156 436zM428 610q0 -98 47 -184q47 -96 133 -150l-2 7 q-33 68 -33 102q0 53 51.5 92t116.5 39q141 0 222 -207q207 141 206 381q0 121 -65 230q-63 113 -184 174q-72 39 -132 39q-156 0 -266 -193q-94 -164 -94 -330z" />
<glyph unicode="R" horiz-adv-x="1509" d="M129 1212q0 98 178 150q132 37 277 37q342 0 577 -158q244 -170 244 -444q0 -319 -444 -473q223 -131 223 -224q0 -55 -53.5 -92t-120.5 -37q-47 0 -109 35q-125 82 -309 178v-24q0 -195 -174 -195q-66 0 -117 39q-49 37 -49 92q0 141 16 377q14 188 15 606h12 q-66 0 -117 41q-49 39 -49 92zM606 514q461 108 461 289q0 106 -141 205q-137 96 -287 120q-8 -204 -33 -614z" />
<glyph unicode="S" horiz-adv-x="1431" d="M94 199q0 53 47 94q45 39 115 39q12 0 68 -10v2l10 -5q63 -16 217 -51q147 -33 295 -32q86 0 86 40q0 90 -178 232l-326 254q-176 158 -176 301q0 162 184 256q160 80 357 80q154 0 280 -51q145 -57 207 -166q18 -34 18 -68q0 -53 -49 -92q-47 -39 -116 -39 q-74 0 -158 72q-86 74 -182 73q-209 0 -209 -65q0 -53 178 -189q248 -190 332 -274q178 -182 178 -340q0 -145 -152 -225q-129 -70 -307 -70q-115 0 -328 33q-240 37 -315.5 86t-75.5 115z" />
<glyph unicode="T" horiz-adv-x="1421" d="M63 1227q0 115 170 141q29 4 281 4q51 8 307 29q203 16 305 16q227 0 228 -139q0 -133 -224 -133h-247v-477q-18 -310 -19 -473q0 -229 -178 -230q-68 0 -117 39t-49 92v273q29 338 29 571v174q-195 -16 -324 -16q-71 0 -116 37q-46 37 -46 92z" />
<glyph unicode="U" horiz-adv-x="1517" d="M147 758q0 442 70 549q57 92 162 92q74 0 117 -41q49 -45 49 -96q0 -25 -31 -170q-29 -121 -29 -344q0 -514 260 -515q293 0 293 682q0 58 -12 172t-12 173q0 53 45 96q46 43 117 43q144 0 184 -148q16 -57 16 -235q0 -1051 -635 -1051q-346 0 -495 291q-99 197 -99 502z " />
<glyph unicode="V" horiz-adv-x="1435" d="M96 1262q0 51 47 94q46 43 117 43q102 0 164 -92q45 -63 74 -185q25 -115 45 -194q20 -76 116 -367l334 656q39 86 72 120q55 61 141 62q68 0 119 -37t51 -94q0 -41 -63 -148q-35 -55 -82 -137q-197 -326 -406 -836q-72 -182 -204 -182q-117 0 -195 203q-2 4 -3 10 t-5 21.5t-11.5 41t-21.5 81l-33 127.5q-37 144 -123 393q-90 258 -125 391q-8 25 -8 29z" />
<glyph unicode="W" horiz-adv-x="1966" d="M123 1264q0 53 47 94t117 41q152 0 186 -158q0 -18 6 -55q4 -27 78 -273l82 -290q98 297 141 501q23 104 43 138q47 72 140 71q119 0 157 -82q23 -45 29 -155q8 -186 86 -504l248 602q37 90 69 131q57 74 146 74q72 0 119 -39q51 -41 51 -94q0 -88 -135 -377l-183 -379 l-145 -365q-72 -180 -205 -180q-104 0 -160 90q-27 45 -53 158q-14 66 -57 233q-14 -45 -115 -323q-29 -76 -59 -113q-47 -53 -135 -53q-96 0 -144 74q-23 39 -47 139q-45 193 -147 530q-129 434 -156 533q-4 25 -4 31z" />
<glyph unicode="X" horiz-adv-x="1382" d="M125 133q0 72 367 580q-266 457 -267 561q0 55 58 92q55 33 116 33q92 0 154 -86q29 -39 154 -316q238 334 374 334q72 0 121 -41q51 -43 51 -96q0 -45 -180 -256l-201 -238l238 -352q127 -188 127 -252q0 -55 -47 -92q-49 -39 -119 -39q-137 0 -399 451l-183 -285 q-92 -133 -200 -133q-74 0 -119 39t-45 96z" />
<glyph unicode="Y" horiz-adv-x="1536" d="M96 1245q0 66 39 105q43 49 129 49q135 0 168 -137l31 -281q20 -168 127 -221q37 -18 59 -19q34 0 86 25q104 45 176 164q66 104 93 223q23 100 45 141q43 72 145 72q137 0 180 -149q23 -78 23 -234q0 -340 -56 -516q-86 -293 -356 -436q-125 -66 -262 -66q-72 0 -123 37 t-51 94q0 109 176 144q31 4 68 14q187 58 245 362q-158 -143 -374 -143q-568 0 -568 772z" />
<glyph unicode="Z" horiz-adv-x="1560" d="M129 1257q0 139 256 140h150q39 0 88 1t63 1q256 0 428 -51q252 -74 252 -244q0 -92 -109 -223q-76 -92 -235 -232q-213 -186 -217 -190q-137 -129 -187 -211q43 -6 87 -6q115 0 235 16q14 2 231 37q41 4 111 4q63 0 110.5 -41t47.5 -90q0 -106 -314 -164 q-213 -39 -421 -39q-147 0 -285 53q-170 63 -170 172q0 150 194 353q68 74 363 325q195 164 194 219q0 41 -88 48l-131 -2q-66 0 -201 -6.5t-200 -6.5q-252 0 -252 137z" />
<glyph unicode="[" horiz-adv-x="1067" d="M213 109q0 141 31 385q35 285 35 385l1 7q1 7 1 22.5t1 39t1 55v70.5q0 117 12 178q12 49 35 76q18 23 82 45q78 27 227 27q70 0 119 -37t49 -92q0 -123 -178 -144q-18 -547 -64 -893h31q221 0 221 -135q0 -53 -47 -94q-45 -39 -117 -39h-155q-285 1 -285 144z" />
<glyph unicode="\" horiz-adv-x="999" d="M66 1266q0 55 47 94t116 39q94 0 146 -64q27 -33 65 -123l369 -796q121 -276 121 -318q0 -55 -51.5 -94t-116.5 -39q-96 0 -164 94q-31 43 -80 158l-164 397l-168 334q-120 248 -120 318z" />
<glyph unicode="]" horiz-adv-x="1067" d="M246 1266q0 59 47 96q46 37 258 37q299 0 299 -144q0 -129 -29 -381q-39 -293 -39 -385q-2 2 -2 -44v-175q0 -96 -10 -153q-23 -90 -119 -123q-86 -29 -227 -29q-68 0 -121 37q-49 35 -49 94q0 121 182 146q16 543 62 888h-86q-72 0 -119 41.5t-47 94.5z" />
<glyph unicode="^" horiz-adv-x="1306" d="M152 559q0 49 157 393q156 338 201 383q61 63 139 64q88 0 152 -64q88 -90 192 -358l140 -393q10 -31 10 -43q0 -57 -56 -95q-51 -35 -120 -34q-106 0 -164 90q-23 39 -62 162q-16 55 -82 251l-79 -225q-61 -150 -111 -201q-63 -63 -145 -63q-76 0 -123 39q-49 39 -49 94 z" />
<glyph unicode="_" horiz-adv-x="1425" d="M293 -35v205h837v-205h-837z" />
<glyph unicode="`" horiz-adv-x="808" d="M133 1755q0 59 60 98q49 35 120 35q80 0 140 -57q207 -201 206 -270q0 -57 -49 -100.5t-123 -43.5q-78 0 -147 64q-52 46 -123 135q-84 102 -84 139z" />
<glyph unicode="a" horiz-adv-x="1439" d="M96 109v24q61 375 135 578q109 297 322 534q135 154 311 154q385 0 385 -656q0 -6 -1 -36.5t-1 -53.5v-88q0 -80 19 -233q16 -137 16 -234q0 -59 -53 -94q-57 -39 -123 -39q-86 0 -123 49q-14 14 -49 103q-84 207 -445 274q-18 -71 -43 -215q-8 -94 -34 -137 q-45 -74 -152 -74q-71 0 -117 43q-47 44 -47 101zM561 655q190 -33 350 -114v333q-12 96 -16 125q-8 82 -35 121l4 6q-34 0 -153 -178q-95 -135 -150 -293z" />
<glyph unicode="b" horiz-adv-x="1404" d="M150 254q0 94 34 246q57 236 58 241q12 59 49 410q-76 45 -76 115q0 133 223 133q852 0 852 -414q0 -236 -286 -364q188 -127 188 -285q0 -135 -117 -227q-88 -66 -252 -107q-143 -37 -280 -37q-393 0 -393 289zM485 238q29 -4 43 -5q100 0 185 21q123 27 141 82 q-49 104 -328 153q-41 -160 -41 -239v-12zM586 780q367 74 366 197q0 104 -325 145q-12 -143 -41 -342z" />
<glyph unicode="c" horiz-adv-x="1310" d="M115 422q0 152 53 336q51 178 139 319q203 322 488 322q356 0 356 -418q0 -219 -174 -219q-65 0 -117 37q-51 37 -51 90q0 10 4 76q2 29 10 108v39q-6 20 -20 21q-131 0 -262 -316q-92 -219 -92 -391q0 -184 169 -184q74 0 211 77q133 76 191 76q68 0 119 -39t51 -96 q0 -55 -74 -113q-92 -74 -252 -124q-176 -57 -289 -58q-225 0 -354 152q-106 127 -106 305z" />
<glyph unicode="d" horiz-adv-x="1519" d="M166 1249q0 104 133 135q59 14 238 15q365 0 612 -150q279 -168 278 -456q0 -270 -323 -547q-330 -281 -668 -281q-141 0 -207 96q-49 71 -49 179q0 49 27 358q14 217 53 535q-94 32 -94 116zM514 246q199 49 387.5 213t188.5 309q0 102 -33 162q-45 90 -185 143 q-123 47 -274 47q-25 -129 -80 -803q0 -6 -1 -16t-2 -26.5t-1 -28.5z" />
<glyph unicode="e" horiz-adv-x="1404" d="M125 295q0 182 94 459q120 350 141 454q12 68 23 84q23 29 92 56q139 51 545 51q283 0 283 -142q0 -53 -50 -94q-51 -41 -116 -41q-8 0 -86 4t-84 4q-133 0 -291 -22q-23 -98 -60 -211q197 61 312 61q70 0 119 -36q51 -39 51 -93q0 -80 -97 -122q-39 -16 -180 -50 q-102 -25 -307 -82q-49 -162 -49 -288q-4 -10 -10 -31q-6 -23 4 -23q117 0 309 91q197 92 268 92q68 0 119 -41q49 -39 49 -92q0 -61 -80 -113q-100 -70 -307 -133q-219 -72 -338 -72q-182 0 -272 101q-82 84 -82 229z" />
<glyph unicode="f" horiz-adv-x="1327" d="M147 100q0 135 23 383q29 305 29 381q4 43 8 125q6 78 29 121q90 193 321 254q143 35 440 35q190 0 191 -133q0 -53 -47 -95q-45 -39 -119 -38h-80q-237 0 -313 -43q-92 -49 -92 -220q-6 -35 -7 -100q307 104 414 104q70 0 121 -45q47 -41 47 -100q0 -80 -115 -119 q-27 -12 -182 -51l-305 -86v-190q-2 -106 -29 -191q-41 -127 -164 -127q-68 0 -119 41t-51 94z" />
<glyph unicode="g" horiz-adv-x="1351" d="M117 584q0 453 325 698q160 117 328 117q119 0 225 -56q111 -57 166 -133q25 -35 25 -63q0 -55 -49 -98q-47 -41 -117 -41t-131 59q-66 61 -107 61q-160 0 -256 -210q-74 -164 -73 -324q0 -145 61 -240q70 -119 209 -118q111 0 162 81q-37 43 -115 43q-12 0 -22 -2h-23 q-66 0 -113 41q-49 43 -49 95q0 74 76 106q57 29 137 29q168 0 305 -84q145 -92 145.5 -233.5t-173.5 -248.5q-160 -98 -336 -98q-174 0 -330 103q-139 94 -205 227q-65 123 -65 289z" />
<glyph unicode="h" horiz-adv-x="1533" d="M160 100q0 156 20 375q29 307 37 377q12 154 12 340q0 207 177 207q70 0 118 -37q47 -35 47 -94v-500q244 51 435 63q4 37 24 279q2 131 21 184q40 104 159 105q72 0 119 -39q49 -41 49 -94q0 -225 -71 -797q-12 -88 -35 -313q-23 -190 -180 -191q-68 0 -119 41 q-49 39 -49 96q0 96 49 453q-188 -20 -443 -70q-14 -137 -14 -309q-25 -211 -186 -211q-66 0 -119 41q-51 39 -51 94z" />
<glyph unicode="i" horiz-adv-x="671" d="M119 100q0 160 24 394q18 197 39 393l13 194q10 121 38 197q43 121 164 121q72 0 119 -39q51 -41 51 -94q0 -156 -32 -379q-47 -313 -52 -377q-16 -154 -16 -317q0 -227 -178 -228q-68 0 -119 41t-51 94z" />
<glyph unicode="j" horiz-adv-x="1284" d="M55 303q0 55 55.5 92t118.5 37q57 0 129 -47l107 -78q104 -74 168 -74q164 0 164 578q0 187 -37 295q-123 -35 -219 -35q-70 0 -115 39t-45 92q0 63 43 94q23 18 108 41q238 61 332 62q139 0 215 -242q55 -175 56 -332q0 -555 -158 -727q-121 -133 -320 -133 q-150 0 -313 74t-246 172q-43 52 -43 92z" />
<glyph unicode="k" d="M147 104q0 133 31 359q43 336 45 360q6 68 21 291q6 139 22 180q37 104 158 105q72 0 119 -39q49 -41 49 -94q0 -117 -17 -281q410 426 502 426q66 0 117 -41q47 -39 47 -92q0 -96 -270.5 -329.5t-270.5 -317.5q0 -92 150 -199l285 -174q150 -94 149 -162q0 -59 -51 -98 q-53 -41 -123 -41q-74 0 -281 135q-125 80 -227 162q-43 33 -88 78q-2 -82 -35 -254q-37 -113 -168 -113q-74 0 -119 43t-45 96z" />
<glyph unicode="l" horiz-adv-x="1249" d="M156 326q0 68 24 258q33 246 33 438q10 203 16 231q37 145 174 146q72 0 119 -39q51 -41 51 -94v1l-26 -339q-10 -160 -23 -301q-35 -303 -35 -340q0 -29 7 -45q2 -2 -1 -4t-8 -2q88 0 435 210q88 53 141 54q68 0 121 -41t53 -94q0 -51 -76 -111q-125 -100 -317 -184 q-230 -104 -375 -105q-313 1 -313 361z" />
<glyph unicode="m" horiz-adv-x="1935" d="M127 102q0 63 94 414q76 276 123 416q33 117 107 321q55 145 192 146q95 0 141 -74q27 -41 47 -139q49 -252 140 -547q47 164 102 324l101 258q25 76 55 118q49 59 137 60q115 0 154 -88q18 -35 30 -162q6 -90 52 -254l110 -397q92 -317 92 -396q0 -55 -47 -96t-115 -41 q-109 0 -151 74q-25 37 -43 143q-18 94 -127 475q-90 -276 -137 -481q-20 -88 -49 -137q-46 -74 -142 -74q-88 0 -139 55q-29 35 -59 115q-100 279 -177 555q-96 -326 -133 -508q-23 -104 -45 -143q-49 -74 -151 -74q-71 0 -117 43q-45 43 -45 94z" />
<glyph unicode="n" horiz-adv-x="1636" d="M147 96q0 272 60 621q66 422 178 592q61 90 154 90q137 0 174 -131q12 -37 12 -213q12 -260 49 -463q63 -365 191 -365q96 0 147 166q39 123 39 238q0 100 -51 317q-49 209 -49 316q0 55 45 94q47 41 116 41q135 0 189 -158q12 -39 41 -244q45 -324 45 -368 q0 -186 -70 -340q-61 -131 -160 -217q-127 -111 -286 -111q-319 0 -469 391q-4 -47 -4 -141q0 -246 -185 -246q-70 0 -118 39q-48 37 -48 92z" />
<glyph unicode="o" horiz-adv-x="1624" d="M129 569q0 293 145 529q188 301 537 301q326 0 514 -170q178 -160 178 -422q0 -283 -196 -541q-229 -301 -576 -301q-285 0 -457 203q-145 174 -145 401zM465 569q0 -221 158 -303q57 -29 102 -28q182 0 324 211q121 188 120 364q0 313 -395 313q-139 0 -235 -229 q-74 -181 -74 -328z" />
<glyph unicode="p" horiz-adv-x="1429" d="M166 1243q0 111 199 141q80 14 299 15q270 0 469 -78q262 -109 262 -315q0 -223 -308 -394q-231 -129 -548 -188q-2 -4 -27 -279q-16 -180 -172 -180q-66 0 -117 41q-49 39 -49 94q0 201 27 514q35 377 35 514q-70 43 -70 115zM555 707q502 123 502 303q0 119 -451 118 h-31q-4 -196 -20 -421z" />
<glyph unicode="q" horiz-adv-x="1619" d="M96 614q0 270 160 502q195 283 524 283q342 0 543 -232q186 -205 186 -477q0 -195 -110 -366q-117 -182 -320 -281q72 -135 72 -180q0 -57 -49 -94q-51 -39 -119 -39q-143 0 -229 235h-11h-8q-301 0 -481 213q-158 188 -158 436zM432 610q0 -94 47 -184q47 -96 133 -150 l-4 7q-29 66 -28 102q0 53 51 92t114 39q141 0 222 -207q205 141 204 381q0 127 -61 230q-63 111 -186 174q-72 39 -129 39q-158 0 -269 -193q-94 -164 -94 -330z" />
<glyph unicode="r" horiz-adv-x="1523" d="M137 1212q0 98 176 150q133 37 279 37q340 0 575 -158q246 -168 246 -444q0 -319 -444 -473q223 -131 223 -224q0 -53 -55 -92q-51 -37 -119 -37q-51 0 -109 35q-127 84 -311 178v-24q4 -195 -172 -195q-68 0 -119 39q-49 37 -49 92q0 141 16 377q14 236 15 606h14 q-66 0 -117 41q-49 39 -49 92zM612 514q463 109 463 289q0 104 -143 205q-133 96 -285 120q-4 -102 -35 -614z" />
<glyph unicode="s" horiz-adv-x="1439" d="M96 199q0 53 47 94q45 39 115 39q14 0 70 -10v2l8 -5q53 -14 219 -51q147 -33 293 -32q88 0 88 40q0 90 -178 232l-326 254q-178 160 -178 301q0 162 186 256q160 80 355 80q156 0 282 -51q145 -57 205 -166q20 -37 21 -68q0 -53 -50 -92q-47 -39 -116 -39q-74 0 -158 72 q-86 74 -184 73q-207 0 -207 -65q0 -53 178 -189q248 -190 332 -274q178 -182 178 -340q0 -143 -154 -225q-129 -70 -305 -70q-117 0 -330 33q-237 37 -313 86q-78 49 -78 115z" />
<glyph unicode="t" horiz-adv-x="1427" d="M66 1227q0 115 170 141q29 4 278 4q49 6 309 29q203 16 305 16q229 0 230 -139q0 -133 -225 -133h-248v-477q-18 -310 -19 -473q0 -229 -178 -230q-68 0 -119 39q-47 35 -47 92v273q29 338 29 571v174q-195 -16 -324 -16q-71 0 -116 37t-45 92z" />
<glyph unicode="u" horiz-adv-x="1525" d="M150 758q0 442 69 549q61 92 164 92q72 0 119 -41q49 -43 49 -96q0 -20 -35 -170q-27 -113 -27 -344q0 -514 261 -515q295 0 294 682q0 58 -12 172t-12 173q0 53 43 96t119 43q141 0 182 -148q16 -57 16 -235q0 -1051 -635 -1051q-344 0 -493 291q-102 199 -102 502z" />
<glyph unicode="v" d="M100 1262q0 51 47 94q45 43 119 43q98 0 162 -92q45 -70 74 -187l47 -192q27 -104 115 -367l333 656q39 86 72 120q55 61 141 62q63 0 117 -37q51 -37 51 -94q0 -43 -59 -148l-84 -137q-197 -330 -404 -836q-74 -182 -206 -182q-117 0 -195 203q-16 51 -76 281 q-43 168 -121 393q-90 258 -124 391q-9 25 -9 29z" />
<glyph unicode="w" horiz-adv-x="1970" d="M125 1264q0 53 47 94t117 41q154 0 184 -158q6 -43 8 -55q4 -27 78 -273l82 -290q98 297 141 501q23 104 43 138q43 72 140 71q119 0 157 -82q23 -45 29 -155q12 -203 86 -504l248 602q37 90 69 131q59 74 146 74q72 0 119 -39q51 -41 51 -94q0 -88 -135 -377l-183 -379 l-145 -365q-72 -180 -205 -180q-104 0 -160 90q-27 45 -53 158q-14 66 -57 233l-115 -323q-29 -76 -59 -113q-47 -53 -135 -53q-98 0 -144 74q-23 39 -47 139q-53 211 -149 530q-129 434 -156 533q-2 13 -2 31z" />
<glyph unicode="x" horiz-adv-x="1384" d="M125 133q0 72 367 580q-266 457 -267 561q0 55 58 92q59 33 116 33q92 0 154 -86q29 -39 154 -316q238 334 374 334q72 0 121 -41q51 -43 51 -96q0 -45 -180 -256l-203 -238l240 -352q127 -188 127 -252q0 -55 -47 -92q-49 -39 -119 -39q-139 0 -399 451l-183 -285 q-92 -133 -200 -133q-74 0 -119 39t-45 96z" />
<glyph unicode="y" horiz-adv-x="1538" d="M96 1245q0 63 41 105q43 49 129 49q135 0 168 -137l16.5 -140.5t14.5 -140.5q25 -170 127 -221q35 -18 57 -19q35 0 88 25q104 45 176 164q61 100 91 223q25 104 47 141q43 72 145 72q137 0 180 -149q20 -70 21 -234q0 -338 -54 -516q-86 -293 -358 -436 q-125 -66 -262 -66q-68 0 -121 37q-51 37 -51 94q0 111 174 144q35 4 70 14q184 57 243 362q-156 -143 -372 -143q-570 0 -570 772z" />
<glyph unicode="z" horiz-adv-x="1662" d="M176 1257q0 139 254 140h152q37 0 88 1t63 1q256 0 428 -51q252 -74 252 -244q0 -96 -106 -223q-68 -80 -240 -232q-188 -162 -217 -190q-133 -125 -184 -211q43 -6 88 -6q111 0 231 16q16 2 236 37q41 4 106.5 4t112.5 -41t47 -90q0 -106 -316 -164q-209 -39 -417 -39 q-150 0 -287 53q-172 65 -172 172q0 145 197 353q68 74 362 325q197 166 197 219q0 41 -93 48q1 0 2 -1q0 -2 -131 -1q-66 0 -200.5 -6.5t-200.5 -6.5q-252 0 -252 137z" />
<glyph unicode="{" horiz-adv-x="1310" d="M104 612q0 133 306 170q-119 170 -119 279q0 174 215 266q168 72 389 72q71 0 117 -37q47 -37 47 -96q0 -96 -121 -127q-92 -10 -219 -29q-96 -18 -96 -47q0 -43 82 -160q80 -113 79 -192q0 -68 -65 -109q57 -43 57 -117q0 -53 -55 -100q-66 -61 -82 -84q35 -29 145 -51 q119 -23 162 -41q78 -35 78 -109q0 -55 -51 -94q-53 -41 -119 -41q-201 0 -365 82q-195 96 -194 260q0 82 82 152q-123 15 -178 37q-95 36 -95 116z" />
<glyph unicode="|" horiz-adv-x="839" d="M217 1268q6 59 53 94q49 37 119 37q74 0 119 -37q47 -37 47 -94q0 -272 -2 -491.5t-2 -493.5q0 -51 2 -92t2 -95q0 -55 -47 -92q-49 -39 -119 -39q-172 0 -172 1303z" />
<glyph unicode="}" horiz-adv-x="1310" d="M254 106q0 78 70 111q51 23 155 29q109 6 139 18q63 25 64 62q0 47 -78 149.5t-78 173.5q0 66 66 107q-55 49 -55 118q0 96 120 193q-27 27 -133 49q-127 23 -162 39q-80 33 -79 111q0 53 49 94q47 39 119 39q203 0 364 -82q197 -98 197 -262q0 -86 -78 -152 q274 -37 274 -160q0 -133 -303 -163q117 -162 117 -269q0 -176 -215 -268q-166 -74 -389 -74q-74 0 -119 39t-45 98z" />
<glyph unicode="~" horiz-adv-x="1777" d="M207 391q0 154 145 293q154 147 348 147q188 0 275 -120q23 -29 29 -82q4 -61 8 -88q12 -72 65 -72q92 0 117 86q10 33 10 145q0 154 154 154q70 0 123 -41t53 -96q0 -233 -104 -350q-121 -139 -416 -140q-131 0 -191 84q-31 41 -63 170q-18 76 -51 76q-74 0 -115 -80 l-66 -147q-45 -80 -143 -80q-82 0 -129 39q-49 39 -49 102z" />
<glyph unicode="&#xa2;" horiz-adv-x="1536" d="M133 639q0 201 172 365q168 156 418 198q31 197 192 197q77 0 123 -43q47 -43 47 -99q0 -27 -12 -63q264 -68 340 -279q8 -23 8 -41q0 -49 -43 -92t-112 -43q-119 0 -162 109q-22 52 -25 55q-18 20 -61 27l-113 -473q141 4 266 22q4 0 10.5 1t10.5 1q72 0 123 -39t51 -96 q0 -94 -116.5 -133t-418.5 -39q-29 -106 -45 -135q-43 -74 -143 -74q-70 0 -125 37q-59 39 -59 100q0 37 26 127q-352 111 -352 410zM473 629q0 -70 88 -123q70 260 94 381q-182 -98 -182 -258z" />
<glyph unicode="&#xa3;" horiz-adv-x="1918" d="M113 668q0 43 34 88q43 51 111 51q20 0 37 -2q119 -20 227 -21q-35 98 -35 160q0 205 134 326q141 129 393 129q137 0 243 -33q145 -43 199 -129q23 -39 23 -66q0 -57 -57.5 -100t-127.5 -43q-23 0 -120 47q-92 45 -168 45q-72 0 -121 -47q-51 -49 -51 -112 q0 -66 43 -177h80.5t73.5 1t63.5 1h54.5h45h36.5h27h14.5h12q78 0 123 -38q47 -41 47 -99q0 -55 -47 -96t-123 -41h-299q18 -78 19 -143q0 -70 -25 -127h63q88 0 263 6q233 8 260 8q76 0 123 -41t47 -98q0 -58 -49 -99q-51 -41 -121 -41q-88 0 -266.5 -6t-268.5 -6 q-346 0 -485 51q-117 43 -117 129q0 68 59 107q2 2 13.5 7l41 18.5t58.5 25.5q59 29 59 66q0 57 -30 139q-145 0 -178 2q-100 4 -177 18q-161 27 -161 140z" />
<glyph unicode="&#xa5;" horiz-adv-x="1671" d="M236 1030q0 182 34 268q39 100 183 101q72 0 118 -41q49 -43 50 -96q0 -37 -11 -136q-12 -119 -12 -135q0 -102 51 -153q49 -49 170 -50q162 0 223 89q49 68 50 225q0 8 -1 32.5t-1 45.5v80q0 53 43 96t118 43q145 0 189 -90q29 -68 28 -213q0 -283 -190 -437 q68 -40 68 -110q0 -58 -50 -98q-51 -41 -120 -41h-197v-88q119 6 164 6q70 0 123 -41t53 -97q0 -102 -143 -135q-70 -14 -248 -14q-51 -76 -152 -76q-88 0 -139 64q-80 -8 -117 -9q-203 0 -203 132q0 147 297 147q4 55 7 90q-123 -4 -162 -4q-70 0 -121 41q-47 39 -47 96 q0 86 90 123q-145 123 -145 385z" />
<glyph unicode="&#xa9;" horiz-adv-x="2242" d="M201 649q0 285 270 518q268 231 627 232q418 0 686 -254q256 -240 256 -574q0 -283 -293 -454q-262 -152 -621 -152q-385 0 -649 185q-276 194 -276 499zM535 641q0 -190 182 -303q169 -104 424 -105q211 0 379 91q182 96 182 251q0 199 -176 375q-186 182 -422 183 q-207 0 -389 -160q-180 -160 -180 -332zM682 631q0 166 162 291q158 121 375 120q227 0 227 -139q0 -135 -141 -135q-2 0 -27 4q-12 2 -25 2q-96 0 -163.5 -43t-67.5 -110q0 -49 113 -50q78 0 116 9q25 4 33 4q70 0 121 -39t51 -94q0 -145 -289 -146q-195 0 -331 78 q-154 86 -154 248z" />
<glyph unicode="&#xad;" d="M246 557q0 53 47 96t117 43q45 0 79 -2q70 -4 80 -4q94 0 227.5 8.5t225.5 8.5q76 0 123 -41t47 -99t-49 -98q-51 -41 -121 -41q-29 0 -246 -8q-163 -6 -246 -6q-284 0 -284 143z" />
<glyph unicode="&#xae;" horiz-adv-x="2172" d="M201 688q0 280 202 486q221 225 568 225q424 0 696 -180q301 -195 301 -531q0 -293 -231 -500q-240 -215 -607 -215q-362 0 -647 213q-282 211 -282 502zM537 682q0 -184 194 -315q-2 10 -2 26q0 66 4 119q6 80 6 119v182q-115 18 -137 107q-65 -109 -65 -238zM860 1106 q84 14 162 14q182 0 307 -65q150 -80 150 -232q0 -154 -187 -252l11 -4q199 -74 223 -159q106 125 106 286q0 178 -178 307t-412 129q-100 1 -182 -24zM963 262q84 -23 186 -22q78 0 145 18q-25 12 -41 20.5t-44.5 22.5l-67.5 33q-8 4 -19.5 8t-30 11t-30.5 14 q-24 -78 -98 -105zM1073 864l4 -82q63 27 64 62q0 20 -49 20h-19z" />
<glyph unicode="&#xb4;" horiz-adv-x="823" d="M135 1561q0 35 111 151q100 106 155.5 143t112.5 37q74 0 123 -37q51 -39 51 -98q0 -45 -45 -96q-37 -43 -188 -180q-72 -63 -145.5 -63.5t-123.5 42.5q-51 46 -51 101z" />
<glyph unicode="&#x2000;" horiz-adv-x="944" />
<glyph unicode="&#x2001;" horiz-adv-x="1892" />
<glyph unicode="&#x2002;" horiz-adv-x="944" />
<glyph unicode="&#x2003;" horiz-adv-x="1892" />
<glyph unicode="&#x2004;" horiz-adv-x="630" />
<glyph unicode="&#x2005;" horiz-adv-x="471" />
<glyph unicode="&#x2006;" horiz-adv-x="313" />
<glyph unicode="&#x2007;" horiz-adv-x="313" />
<glyph unicode="&#x2008;" horiz-adv-x="235" />
<glyph unicode="&#x2009;" horiz-adv-x="376" />
<glyph unicode="&#x200a;" horiz-adv-x="104" />
<glyph unicode="&#x2010;" d="M246 557q0 53 47 96t117 43q45 0 79 -2q70 -4 80 -4q94 0 227.5 8.5t225.5 8.5q76 0 123 -41t47 -99t-49 -98q-51 -41 -121 -41q-29 0 -246 -8q-163 -6 -246 -6q-284 0 -284 143z" />
<glyph unicode="&#x2011;" d="M246 557q0 53 47 96t117 43q45 0 79 -2q70 -4 80 -4q94 0 227.5 8.5t225.5 8.5q76 0 123 -41t47 -99t-49 -98q-51 -41 -121 -41q-29 0 -246 -8q-163 -6 -246 -6q-284 0 -284 143z" />
<glyph unicode="&#x2012;" d="M246 557q0 53 47 96t117 43q45 0 79 -2q70 -4 80 -4q94 0 227.5 8.5t225.5 8.5q76 0 123 -41t47 -99t-49 -98q-51 -41 -121 -41q-29 0 -246 -8q-163 -6 -246 -6q-284 0 -284 143z" />
<glyph unicode="&#x2013;" d="M246 557q0 53 47 96t117 43q45 0 79 -2q70 -4 80 -4q94 0 227.5 8.5t225.5 8.5q76 0 123 -41t47 -99t-49 -98q-51 -41 -121 -41q-29 0 -246 -8q-163 -6 -246 -6q-284 0 -284 143z" />
<glyph unicode="&#x2014;" horiz-adv-x="1781" d="M256 557q0 55 47 96q49 43 117 43q45 0 80 -2q70 -4 80 -4q158 0 387 8.5t387 8.5q74 0 121 -41t47 -98.5t-47.5 -98.5t-120.5 -41q-45 0 -406 -8q-270 -6 -407 -6q-285 0 -285 143z" />
<glyph unicode="&#x2018;" horiz-adv-x="806" d="M147 1266q0 57 58 96q55 37 125 37q90 0 141 -64l94 -110q90 -119 90 -162q0 -57 -57 -96t-125 -39q-94 0 -143 65q-183 199 -183 273z" />
<glyph unicode="&#x2019;" horiz-adv-x="786" d="M154 1047q0 34 67 147q53 88 90 137q57 68 150 68q74 0 121 -39q49 -41 49 -96q0 -41 -66 -154q-55 -96 -94 -137q-58 -68 -135 -68q-70 0 -127 41q-55 42 -55 101z" />
<glyph unicode="&#x201c;" horiz-adv-x="1464" d="M211 1266q0 59 55.5 96t124.5 37q90 0 141 -64l95 -110q90 -115 90 -162q0 -57 -57.5 -96t-124.5 -39q-94 -12 -144 65q-180 195 -180 273zM729 1253q0 57 57.5 98.5t126.5 41.5q77 0 136 -62l170 -180q43 -43 43 -90q0 -57 -54 -100q-55 -45 -121 -46q-57 0 -116 41 q-68 47 -144 134q-98 110 -98 163z" />
<glyph unicode="&#x201d;" horiz-adv-x="1390" d="M215 1047q0 34 68 147q53 88 90 137q57 68 149 68q74 0 121 -39q49 -41 49 -96q0 -47 -65 -154q-49 -84 -95 -137q-57 -68 -137 -68q-68 0 -125 41q-55 42 -55 101zM682 1040q0 33 23 66q27 35 133 199q55 94 163 94q70 0 121.5 -39t51.5 -96q0 -49 -68 -160 q-61 -98 -105 -141q-63 -63 -145 -64q-71 0 -123 43q-51 43 -51 98z" />
<glyph unicode="&#x2022;" horiz-adv-x="1456" d="M215 633q0 166 111 270q123 113 327 113q229 0 414 -123q197 -135 197 -315q0 -160 -154 -269q-156 -109 -348 -108q-246 0 -397 116q-150 117 -150 316z" />
<glyph unicode="&#x2026;" horiz-adv-x="1984" d="M227 119q0 66 74 117q76 53 150 53q88 0 137 -51q41 -45 41 -111q0 -63 -55.5 -112.5t-139.5 -49.5l-141 64q-66 29 -66 90zM819 156q0 61 76 114.5t147 53.5q92 0 138 -52q41 -45 41 -108.5t-55.5 -112.5t-137.5 -49q-74 -35 -143 27q-66 59 -66 127zM1356 113 q0 63 37 112q49 57 141 58q76 0 145.5 -43t69.5 -111q0 -61 -57.5 -112.5t-139.5 -51.5q-74 0 -135 43.5t-61 104.5z" />
<glyph unicode="&#x202f;" horiz-adv-x="376" />
<glyph unicode="&#x205f;" horiz-adv-x="471" />
<glyph unicode="&#x20ac;" horiz-adv-x="2134" d="M106 389q0 100 144 131q80 18 244 19q4 49 14 98h-123q-127 0 -182 18q-96 31 -97 119q0 57 50 96q47 39 118 39q35 0 62 -2h63q78 0 209 8q111 207 305 338q217 145 490 146q156 0 293 -66q145 -72 198 -188q16 -33 17 -66q0 -55 -47 -92q-49 -39 -119 -39 q-92 0 -166 92q-72 90 -170 90q-88 0 -198.5 -53t-184.5 -125q186 16 299 17q70 0 119 -43t49 -95q0 -57 -49 -96q-51 -41 -121 -41q-55 0 -264 -18q-70 -4 -205 -17q-16 -49 -23 -118q303 8 381 8q72 0 117 -39q47 -41 47 -94q0 -94 -96 -123q-51 -18 -188 -19 q-84 0 -127 -2q78 -33 206 -32q115 0 244 22l240 45q8 2 24 2q68 0 117 -43t49 -98q0 -84 -119 -125q-227 -78 -563 -78q-205 0 -366 72q-178 78 -252 221q-111 -4 -271 -4q-68 0 -118 41t-50 94z" />
<glyph unicode="&#x2122;" horiz-adv-x="2414" d="M188 1249q0 86 115 111q55 12 195 12q55 0 250 14q166 12 249 13q145 0 174 -72q43 61 123 62q78 0 115 -60q20 -29 39 -108q33 -168 94 -375q61 211 156 440q41 102 141 103q88 0 123 -70q16 -37 25 -127q8 -98 49 -238l78 -235l43 -146q18 -72 18 -153q0 -49 -29 -84 q-37 -41 -100 -41q-88 0 -125 57q-16 27 -33 113q-16 96 -82 321q-57 -176 -94 -325q-40 -166 -153 -166q-111 0 -160 131q-55 154 -121 383q-58 -200 -86 -344q-18 -78 -41 -113q-37 -57 -121 -57q-55 0 -94 35t-39 76q0 96 217 788q-37 -14 -115 -14h-174v-357 q-14 -213 -14 -350q0 -178 -143 -178q-57 0 -97 31q-41 31 -41 75v205q23 254 23 428q0 74 -2 121q-151 -12 -227 -12q-59 0 -97 31q-39 32 -39 75z" />
<glyph unicode="&#xe000;" horiz-adv-x="1400" d="M0 1400h1400v-1400h-1400v1400z" />
<glyph unicode="&#xfb01;" horiz-adv-x="2000" d="M1448 100q0 160 24 394q18 197 39 393l13 194q10 121 38 197q43 121 164 121q72 0 119 -39q51 -41 51 -94q0 -156 -32 -379q-47 -313 -52 -377q-16 -154 -16 -317q0 -227 -178 -228q-68 0 -119 41t-51 94zM147 100q0 135 23 383q29 305 29 381q4 43 8 125q6 78 29 121 q90 193 321 254q143 35 440 35q190 0 191 -133q0 -53 -47 -95q-45 -39 -119 -38h-80q-237 0 -313 -43q-92 -49 -92 -220q-6 -35 -7 -100q307 104 414 104q70 0 121 -45q47 -41 47 -100q0 -80 -115 -119q-27 -12 -182 -51l-305 -86v-190q-2 -106 -29 -191q-41 -127 -164 -127 q-68 0 -119 41t-51 94z" />
<glyph unicode="&#xfb02;" horiz-adv-x="2578" d="M1485 326q0 68 24 258q33 246 33 438q10 203 16 231q37 145 174 146q72 0 119 -39q51 -41 51 -94v1l-26 -339q-10 -160 -23 -301q-35 -303 -35 -340q0 -29 7 -45q2 -2 -1 -4t-8 -2q88 0 435 210q88 53 141 54q68 0 121 -41t53 -94q0 -51 -76 -111q-125 -100 -317 -184 q-230 -104 -375 -105q-313 1 -313 361zM147 100q0 135 23 383q29 305 29 381q4 43 8 125q6 78 29 121q90 193 321 254q143 35 440 35q190 0 191 -133q0 -53 -47 -95q-45 -39 -119 -38h-80q-237 0 -313 -43q-92 -49 -92 -220q-6 -35 -7 -100q307 104 414 104q70 0 121 -45 q47 -41 47 -100q0 -80 -115 -119q-27 -12 -182 -51l-305 -86v-190q-2 -106 -29 -191q-41 -127 -164 -127q-68 0 -119 41t-51 94z" />
<glyph unicode="&#xfb03;" horiz-adv-x="3328" d="M2777 100q0 160 24 394q18 197 39 393l13 194q10 121 38 197q43 121 164 121q72 0 119 -39q51 -41 51 -94q0 -156 -32 -379q-47 -313 -52 -377q-16 -154 -16 -317q0 -227 -178 -228q-68 0 -119 41t-51 94zM1476 100q0 135 23 383q29 305 29 381q4 43 8 125q6 78 29 121 q90 193 321 254q143 35 440 35q190 0 191 -133q0 -53 -47 -95q-45 -39 -119 -38h-80q-237 0 -313 -43q-92 -49 -92 -220q-6 -35 -7 -100q307 104 414 104q70 0 121 -45q47 -41 47 -100q0 -80 -115 -119q-27 -12 -182 -51l-305 -86v-190q-2 -106 -29 -191q-41 -127 -164 -127 q-68 0 -119 41t-51 94zM147 100q0 135 23 383q29 305 29 381q4 43 8 125q6 78 29 121q90 193 321 254q143 35 440 35q190 0 191 -133q0 -53 -47 -95q-45 -39 -119 -38h-80q-237 0 -313 -43q-92 -49 -92 -220q-6 -35 -7 -100q307 104 414 104q70 0 121 -45q47 -41 47 -100 q0 -80 -115 -119q-27 -12 -182 -51l-305 -86v-190q-2 -106 -29 -191q-41 -127 -164 -127q-68 0 -119 41t-51 94z" />
<glyph unicode="&#xfb04;" horiz-adv-x="3907" d="M2814 326q0 68 24 258q33 246 33 438q10 203 16 231q37 145 174 146q72 0 119 -39q51 -41 51 -94v1l-26 -339q-10 -160 -23 -301q-35 -303 -35 -340q0 -29 7 -45q2 -2 -1 -4t-8 -2q88 0 435 210q88 53 141 54q68 0 121 -41t53 -94q0 -51 -76 -111q-125 -100 -317 -184 q-230 -104 -375 -105q-313 1 -313 361zM1476 100q0 135 23 383q29 305 29 381q4 43 8 125q6 78 29 121q90 193 321 254q143 35 440 35q190 0 191 -133q0 -53 -47 -95q-45 -39 -119 -38h-80q-237 0 -313 -43q-92 -49 -92 -220q-6 -35 -7 -100q307 104 414 104q70 0 121 -45 q47 -41 47 -100q0 -80 -115 -119q-27 -12 -182 -51l-305 -86v-190q-2 -106 -29 -191q-41 -127 -164 -127q-68 0 -119 41t-51 94zM147 100q0 135 23 383q29 305 29 381q4 43 8 125q6 78 29 121q90 193 321 254q143 35 440 35q190 0 191 -133q0 -53 -47 -95q-45 -39 -119 -38 h-80q-237 0 -313 -43q-92 -49 -92 -220q-6 -35 -7 -100q307 104 414 104q70 0 121 -45q47 -41 47 -100q0 -80 -115 -119q-27 -12 -182 -51l-305 -86v-190q-2 -106 -29 -191q-41 -127 -164 -127q-68 0 -119 41t-51 94z" />
</font>
</defs>
</svg>
