<?xml version="1.0" standalone="no"?>
<!DOCTYPE svg PUBLIC "-//W3C//DTD SVG 1.1//EN" "http://www.w3.org/Graphics/SVG/1.1/DTD/svg11.dtd" >
<svg xmlns="http://www.w3.org/2000/svg">
<metadata>
This is a custom SVG webfont generated by Font Squirrel.
Copyright   : Copyright c ShyFonts Type Foundry 2000 All rights reserved
Designer    : ShyFonts Type Foundry
Foundry URL : httpwwwshyfontscom
</metadata>
<defs>
<font id="webfont2GaeDN5r" horiz-adv-x="1331" >
<font-face units-per-em="2048" ascent="1638" descent="-410" />
<missing-glyph horiz-adv-x="751" />
<glyph unicode=" "  horiz-adv-x="751" />
<glyph unicode="&#x09;" horiz-adv-x="751" />
<glyph unicode="&#xa0;" horiz-adv-x="751" />
<glyph unicode="!" horiz-adv-x="692" d="M115 96q10 45 59 94q51 51 104.5 51.5t94.5 -36.5q37 -35 28 -78q-14 -57 -63 -90q-55 -37 -121 -37q-43 0 -78 29q-33 27 -24 67zM264 467q27 123 158 420q137 313 213 405q58 74 135 74q51 0 82 -31q33 -33 22 -71q-14 -74 -96 -248l-121 -252q-45 -106 -143 -297 q-59 -102 -145 -102q-51 0 -82 30q-33 31 -23 72z" />
<glyph unicode="&#x22;" horiz-adv-x="1198" d="M512 1264q8 41 55 71.5t101 30.5q51 0 86 -31q31 -27 20 -73q-18 -90 -26 -144q-16 -106 -25 -143q-10 -41 -53 -70q-45 -29 -97 -28q-144 0 -61 387zM850 981q16 76 121 274q55 104 153 105q49 0 84 -28.5t27 -67.5q-37 -174 -135 -312q-55 -74 -135 -73q-53 0 -88 28 q-37 29 -27 74z" />
<glyph unicode="#" horiz-adv-x="1933" d="M287 539q18 86 149 104q10 2 277 2q25 94 47 203l-344 -25q-51 0 -78 33q-29 35 -21 74q18 86 150 104q78 10 174 10q145 8 174 9l4 16l19 98l10 60.5t6 36.5q8 39 57 71q46 31 99 31q135 0 69 -299q92 6 275 6q8 39 16 98q2 16 16 93q8 39 54 71q43 31 98 31 q100 0 107 -100q0 -28 -31 -179h196q113 0 162 -26.5t39 -79.5q-10 -47 -53 -76q-46 -31 -98 -31q-78 0 -141.5 2.5t-139.5 2.5l-45 -205h129q102 4 123 4q55 0 86 -31t20 -76q-8 -41 -53 -73q-41 -29 -334 -29l-26 -163l-9 -54q-10 -43 -53 -72q-45 -31 -94 -30 q-111 0 -111 104q0 35 39 211q-33 0 -143.5 -1t-189.5 -1q-12 -59 -60 -209q-43 -104 -149 -104q-55 0 -86 30.5t-23 73.5l57 197l-137 -11q-115 -8 -135 -8q-51 0 -80 35q-26 33 -18 72zM987 668q127 4 293 4l43 200q-246 -8 -293 -8z" />
<glyph unicode="$" horiz-adv-x="1449" d="M156 356q8 39 53 72q43 31 98 31q61 0 172 -19q98 -16 209 -16q59 158 80 225q-430 94 -393 266q27 125 223 205q150 59 340 84q20 78 47 113q39 49 125 49q49 0 86 -31q35 -29 27 -67q-2 -4 -17 -56q111 -8 219 -51q138 -55 123 -129q-8 -41 -59 -75.5t-103 -34.5 q-14 0 -49 22q-53 39 -69 47q-29 14 -117 15l-68 -205q190 -53 276.5 -131t63.5 -178q-51 -246 -542 -246q-47 -145 -62 -166q-49 -80 -145 -80q-125 0 -101 123q6 27 37 94q-180 6 -194 8q-125 12 -185 33q-91 30 -75 98zM657 926q80 -39 181 -64l39 129q-169 -32 -220 -65 zM952 428h9q193 0 204 49q12 57 -153 113z" />
<glyph unicode="%" horiz-adv-x="2291" d="M360 969q25 113 175 250q160 147 292 147q201 0 318 -94q115 -94 82 -250q-31 -145 -178.5 -249.5t-325.5 -104.5q-166 0 -274 84q-116 90 -89 217zM621 961q-8 -41 38 -66q39 -20 97 -21q76 0 137 43.5t74 104.5q12 53 -31 90t-107 37q-89 0 -147 -62q-45 -50 -61 -126z M688 104q15 68 676 824l244 278q41 49 102 111q55 49 121 49q52 0 86 -31q31 -29 22 -71q-2 -18 -28 -54q-83 -117 -240 -282q-229 -244 -260 -279q-127 -162 -471 -569q-72 -80 -137 -80q-51 0 -88 30.5t-27 73.5zM1341 287q27 137 185 254q156 115 325 114q150 0 263 -88 q113 -92 88 -213q-31 -145 -181 -250q-151 -104 -331 -104q-168 0 -269 76q-107 80 -80 211zM1599 311q-12 -53 27 -92t107 -39q72 0 125 39q55 41 67 94q12 57 -27 97q-41 41 -106 41t-123 -43q-58 -42 -70 -97z" />
<glyph unicode="&#x26;" horiz-adv-x="1423" d="M309 434q31 147 242 242q-74 57 -55 133q23 111 159 199q119 76 273 110q68 248 215 248q49 0 82 -33q33 -31 22 -71q0 -3 -49 -123q121 -8 175 -40t42 -87q-10 -45 -53 -74q-49 -33 -102 -33q-61 0 -150 17q-98 18 -152 18q-131 0 -153 -92q-6 -27 14.5 -44.5 t67.5 -27.5l168 -28q90 -29 75 -101q-20 -96 -223 -96q-43 0 -77.5 2t-79.5 2q-123 0 -140 -76q-12 -51 45 -76q70 -29 379 -28q53 0 84 -31t21 -74q-10 -47 -52 -73q-45 -29 -98 -29q-106 0 -145 2q-14 -41 -39 -121q-27 -49 -137 -49q-125 0 -99 125q2 18 23 68 q-160 29 -231.5 88t-51.5 153z" />
<glyph unicode="'" horiz-adv-x="718" d="M469 1264q10 43 53 71q47 31 99 31q53 0 88 -31q31 -27 20 -73q-18 -90 -26.5 -143.5t-26.5 -143.5q-10 -41 -53 -70q-45 -29 -97 -28q-141 0 -57 387z" />
<glyph unicode="(" horiz-adv-x="780" d="M246 225q-8 150 24 305q96 446 367 723q109 113 190 113q47 0 82 -31q33 -29 23 -69q-4 -12 -107 -131q-106 -131 -120 -152q-123 -176 -181 -444q-27 -129 8 -412q2 -18 0 -27q-10 -41 -53 -69q-46 -31 -98 -31q-123 0 -135 225z" />
<glyph unicode=")" horiz-adv-x="782" d="M135 98q2 10 62 76l82 80q190 209 270 588q25 117 0 272q-18 109 -10 150q8 39 57 71q47 31 96 31q123 0 135 -217q6 -135 -28 -307q-96 -446 -369 -731q-104 -111 -186 -111q-49 0 -84 28.5t-25 69.5z" />
<glyph unicode="*" horiz-adv-x="1486" d="M256 594q14 74 379 252q-100 68 -117 82q-49 41 -100 94q-29 37 -23 70q8 41 58 73q47 33 102 33q41 0 80 -27l176 -145l39 244q9 40 55 67q47 29 96 29q104 0 109 -102q6 -47 -31 -213l172 79q115 53 166 54q53 0 88 -31t25 -72q-12 -53 -82 -92q-74 -43 -176 -84 l-180 -74q109 -57 338 -219q53 -47 40 -94q-8 -41 -55 -71.5t-102 -30.5q-23 0 -56 16q-4 2 -16 10.5t-39.5 26.5l-56.5 37l-154 98l-33 -160q-10 -43 -53 -71q-45 -29 -102 -29q-53 0 -86 29q-31 27 -21 71q2 6 13.5 63.5l33.5 164.5l-278 -158q-57 -29 -96 -29 q-55 0 -88 33t-25 76z" />
<glyph unicode="+" horiz-adv-x="1218" d="M180 508q10 43 51 74q43 31 97 30h272q2 12 10 105q6 66 15 96q10 41 55 70q49 31 96 30q100 0 109 -106q0 -25 -19 -174q123 6 213 6q98 0 142 -16q63 -25 49 -95q-20 -100 -150 -100q-25 0 -43 2t-41 2h-202l-7 -43l-5 -20.5t-3 -16.5q-31 -145 -162 -145 q-92 0 -106 63q-8 37 16 144q-195 -10 -282 -11q-55 0 -84 31q-29 33 -21 74z" />
<glyph unicode="," horiz-adv-x="655" d="M106 -104q8 29 41 63l58 59q6 8 55 108.5t156 100.5q53 0 86 -28q29 -27 20 -72q-23 -98 -106 -207q-104 -133 -205 -133q-53 0 -84 33t-21 76z" />
<glyph unicode="-" d="M352 557q8 39 51 72q41 33 93 33q45 0 79.5 -2.5t79.5 -2.5q74 0 228 7q205 8 227 8q53 0 84 -31t20 -74q-8 -45 -51 -75q-41 -29 -96 -29q-100 0 -247.5 -8.5t-248.5 -8.5q-244 0 -219 111z" />
<glyph unicode="." horiz-adv-x="694" d="M193 119q10 49 81 92t129 43q135 0 107 -127q-10 -47 -61 -88q-47 -39 -113 -39q-61 0 -109 35q-44 33 -34 84z" />
<glyph unicode="/" horiz-adv-x="804" d="M80 92q8 47 115 232q109 193 530 893q12 23 45 71q61 78 141 78q47 0 80 -33q29 -31 21 -69q-9 -43 -326 -590q-317 -551 -364 -602q-61 -72 -134 -72q-47 0 -81.5 26.5t-26.5 65.5z" />
<glyph unicode="0" horiz-adv-x="1607" d="M319 582q55 256 238 489q233 295 510 295q309 0 449 -178q129 -166 73 -418q-59 -268 -289 -502q-268 -268 -577 -268q-270 0 -371 193q-82 158 -33 389zM569 582q-29 -137 9 -242q53 -139 196 -139q164 0 354 215q174 188 205 334q37 164 -41 282q-90 133 -291 133 q-166 -57 -296 -256q-97 -149 -136 -327z" />
<glyph unicode="1" horiz-adv-x="843" d="M291 1137q10 49 82 88q49 31 188 84q147 57 193 57q63 0 89.5 -25.5t16.5 -74.5q-10 -52 -155 -736q-57 -117 -82 -237q-49 -176 -84 -221q-55 -72 -140 -72q-53 0 -81.5 28.5t-18.5 71.5l10 25q53 123 97 317l69 318q33 156 80 327q-113 -49 -162 -49t-82 29 q-30 27 -20 70z" />
<glyph unicode="2" horiz-adv-x="1466" d="M199 227q31 139 280 332q123 94 414 279q313 200 332 282q9 43 -80 43q-117 0 -336 -76q-37 -78 -133 -77q-57 0 -86 26q-31 27 -21 74q25 123 262 197q190 59 363 59q145 0 227 -53q94 -59 70 -172q-29 -137 -256 -316q-121 -94 -381 -254q-371 -229 -389 -315 q-12 -55 108 -55q139 0 340 30q205 33 271 33q49 0 76 -31q29 -33 20 -71q-15 -74 -147 -99q-16 -4 -152 -20q-66 -6 -225 -29q-123 -14 -226 -14q-380 0 -331 227z" />
<glyph unicode="3" horiz-adv-x="1480" d="M229 190q10 43 50 72q43 31 94 31q27 0 88 -31q111 -59 241 -59q98 0 207 28q141 37 158 105q20 96 -92 162q-63 37 -217 77q-66 18 -80 31q-33 25 -25 70q16 68 107 94q45 8 86 18.5l74 18.5q104 20 202 82q117 70 131 139q12 61 -86 102q-74 33 -161 33 q-104 0 -340 -49q-16 -4 -35 -4q-53 0 -84 30.5t-23 71.5q18 84 226 123q158 31 292 31q217 0 347 -86q147 -92 112 -260q-43 -207 -358 -336q102 -55 151 -145t27 -195q-33 -166 -242 -262q-176 -82 -399 -82q-117 0 -238 29q-139 33 -188 92q-33 38 -25 69z" />
<glyph unicode="4" horiz-adv-x="1437" d="M266 760q14 66 76 237q53 152 74 240q8 41 51 68q45 29 96 28q49 0 82 -28q31 -29 23 -68q-14 -55 -88 -272q-37 -100 -58 -195q-49 -233 121 -233q352 0 469 553q39 72 78 176q51 100 143 100q129 0 101 -133q-25 -115 -103 -430q-82 -328 -102 -428l-5 -33.5 t-8.5 -51.5l-9.5 -57q-14 -84 -24 -139q-10 -37 -54 -65q-45 -29 -94 -29q-145 0 -96 227q8 43 49 230q-180 -119 -403 -119q-408 0 -318 422z" />
<glyph unicode="5" horiz-adv-x="1492" d="M215 115q20 90 240 90q55 0 100 -2t100 -2q427 0 467 184q8 45 -35 76t-139 49q-121 25 -284 25q-168 0 -183 276q-10 176 37 389q12 59 109 90q41 12 108 23q332 53 711 53q45 0 73.5 -30.5t18.5 -69.5q-16 -76 -145 -101q-43 -10 -199 -10q-227 -16 -436 -43 q-33 -236 0 -371q66 4 94 4q233 0 385 -86q176 -96 139 -274q-84 -385 -925 -385q-131 0 -189.5 29t-46.5 86z" />
<glyph unicode="6" horiz-adv-x="1439" d="M293 496q70 334 418 723q129 147 213 147q49 0 83.5 -28.5t24.5 -69.5q-8 -27 -143 -187l-174 -204q88 12 176 12q258 0 420 -119q174 -125 131 -328q-41 -188 -266 -319q-213 -123 -451 -123q-268 0 -379 145q-100 130 -53 351zM541 489q-25 -127 26 -198 q59 -88 207 -88q131 0 258 69q139 74 162 172q23 106 -90 179q-106 66 -240 65q-123 0 -270 -39q-39 -94 -53 -160z" />
<glyph unicode="7" horiz-adv-x="1349" d="M401 1264q10 41 50 69q45 33 90 33q14 0 121 -4q53 -2 241 -2q322 0 471.5 -61.5t122.5 -182.5q-20 -96 -254 -350l-332 -356q-92 -113 -166 -234q-20 -43 -63 -104q-53 -72 -129 -72q-49 0 -88 29q-37 29 -29 67q2 12 15 29q176 313 489 647l238 242q33 39 34 55 q23 102 -366 102q-18 0 -153.5 -4t-151.5 -4q-65 0 -105 25q-45 27 -35 76z" />
<glyph unicode="8" horiz-adv-x="1417" d="M291 412q49 229 284 336q-141 109 -104 278q35 158 158 248q127 92 319.5 92t317.5 -102q125 -104 92 -256q-37 -178 -248 -271q111 -57 174 -155q63 -100 39 -215q-37 -178 -242 -279q-176 -88 -409 -88q-213 0 -316 115q-102 117 -65 297zM543 406q-14 -68 33 -135.5 t133 -67.5q299 0 342 200q16 78 -66 138q-84 61 -176 61q-84 0 -168 -61q-82 -61 -98 -135zM719 1001q-12 -59 39 -92q49 -31 123 -30q80 0 147.5 36.5t79.5 96.5q15 68 -43 110q-57 43 -145 43q-166 0 -201 -164z" />
<glyph unicode="9" horiz-adv-x="1286" d="M252 877q37 178 299 335q258 154 477 154q184 0 244 -133q45 -98 10 -266q-25 -127 -111 -318q-135 -307 -137 -311q-63 -172 -82 -201q-74 -137 -174 -137q-47 0 -80 27q-35 29 -24 65q20 96 78 209l106 207q-57 -10 -102 -10q-236 0 -383 94q-160 103 -121 285z M514 864q-34 -160 221 -159q98 0 221 24q61 152 86 279q16 78 5 110q-16 53 -101 53q-137 0 -272 -98q-140 -100 -160 -209z" />
<glyph unicode=":" horiz-adv-x="700" d="M231.5 119q10.5 49 82 92t126.5 43q137 0 109 -127q-27 -41 -74 -88q-39 -39 -102 -39q-61 0 -106.5 35t-35 84zM342 711q12 57 51 92q45 45 113 45q59 0 108 -37q47 -37 39 -84q-12 -49 -65 -90q-51 -39 -115 -39q-61 0 -100 33q-40 34 -31 80z" />
<glyph unicode=";" horiz-adv-x="688" d="M119 -104q8 27 39 63q12 12 19 20.5t16.5 17.5t19.5 21q12 14 57 109q49 100 156 100q53 0 86 -28q31 -29 23 -72q0 -94 -107 -207q-104 -133 -205 -133q-53 0 -83.5 33t-20.5 76zM377 717q12 53 63 92q57 45 115 45q59 0 98 -45q37 -43 25 -94q-10 -45 -59.5 -76 t-108.5 -31t-104 31q-39 27 -29 78z" />
<glyph unicode="&#x3c;" horiz-adv-x="1067" d="M195 598q20 102 192 201l287 139q4 2 141 84q52 31 92 31q55 0 90 -29t25 -72q-16 -70 -143 -141l-211 -100q-70 -33 -201 -113q49 -51 172 -115q150 -78 186 -102q55 -41 47 -82q-10 -43 -53 -78q-45 -35 -98 -35q-29 0 -64 17q-250 106 -366 205.5t-96 189.5z" />
<glyph unicode="=" horiz-adv-x="1404" d="M324 338q16 80 116 106q90 23 234 23q80 2 237 2q72 4 135.5 6t81 3t9.5 1q55 0 86 -28q33 -29 22 -74q6 -88 -153 -107q-14 -2 -240 -2q-53 -10 -197 -18q-106 -8 -192 -8q-80 0 -114.5 23.5t-24.5 72.5zM375 709q8 43 51 73q41 29 96 29q117 0 361 12q243 12 362 13 q53 0 82 -29q31 -31 21 -74q-8 -41 -52 -74q-37 -29 -96 -28q-119 0 -360.5 -12.5t-360.5 -12.5q-57 0 -85.5 29t-18.5 74z" />
<glyph unicode="&#x3e;" horiz-adv-x="1067" d="M362 289q16 68 238 176q221 106 229 145q9 46 -153 105q-158 57 -229.5 111.5t-61.5 105.5q9 43 55 74q47 31 97 30q39 0 106 -37l96 -55l258 -127q143 -88 119 -205q-25 -111 -203 -219l-303 -157q-96 -57 -137 -58q-51 0 -86 35q-33 33 -25 76z" />
<glyph unicode="?" horiz-adv-x="1386" d="M260 115q12 53 75.5 98t127.5 45q61 0 90 -43q29 -45 16 -92q-12 -49 -69 -86q-58 -37 -123 -37q-55 0 -90 35q-37 37 -27 80zM420 512q37 175 282 289l332 110q258 90 269 140q18 80 -99 104q-55 14 -198 14q-133 0 -381 -45q-25 -4 -27 -4q-45 0 -66 37q-18 31 -12 68 q31 141 481 141q246 0 400 -55q215 -74 178 -242q-33 -158 -233 -250q-40 -18 -381 -123q-221 -68 -277 -159q-18 -27 -29 -70q-10 -41 -51 -66q-47 -27 -92 -26q-123 0 -96 137z" />
<glyph unicode="@" horiz-adv-x="2019" d="M315 612q63 303 390 529q324 225 702 225q319 0 495.5 -170t120.5 -426q-37 -174 -157 -317q-151 -172 -350 -172q-111 0 -180.5 51t-82.5 137q-94 -61 -198 -61q-129 0 -205 79q-77 80 -55 185q27 135 194.5 260t337.5 125q88 0 166 -45q84 -49 70 -119q-6 -28 -31 -49 q66 -29 47 -109q-6 -31 -37 -96q-29 -61 -37 -98q-18 -80 74 -80q115 0 172 272q92 434 -405 434q-211 0 -469 -161q-256 -160 -293 -330q-102 -471 413 -471q27 0 82.5 6t79.5 6q53 0 86 -27q34 -28 25 -67q-16 -70 -111 -103q-55 -20 -225 -20q-330 0 -500 176 q-174 172 -119 436zM1036 657q-6 -25 11.5 -37t58.5 -12q74 0 156 72q70 59 104 127q-70 51 -100 51q-84 0 -154 -70q-60 -59 -76 -131z" />
<glyph unicode="A" horiz-adv-x="1318" d="M102 109q55 254 258 581q205 334 428 535q158 141 310 141q246 0 246 -324q0 -125 -37 -299q-16 -74 -21 -90l-18 -88q-14 -68 -25 -127q-2 -12 -16 -168q-10 -121 -23 -172q-8 -41 -55 -69.5t-100 -28.5q-68 0 -86 41q-2 2 -21 86q-49 242 -453 305q-33 -70 -104 -252 q-10 -43 -45 -108q-49 -72 -137 -72q-53 0 -80 33q-22 27 -23 57q0 10 2 19zM586 631q240 -39 413 -156l86 402q0 74 5 110q5 34 4 67q0 25 -2 48q-8 59 -39 59q-59 0 -236 -194q-129 -146 -231 -336z" />
<glyph unicode="B" horiz-adv-x="1277" d="M182 254q23 100 86 244q109 236 109 239q4 10 19.5 58.5l49 157l70.5 218.5q-58 25 -58 73q0 10 3 22q20 100 203 100q734 0 734 -315q0 -31 -7 -66q-53 -242 -398 -358q167 -102 168 -240q0 -25 -6 -51q-25 -121 -147 -203q-96 -61 -256 -98q-150 -35 -275 -35 q-302 0 -302 189q-1 30 7 65zM428 209q31 -8 78 -8q106 0 223 30q152 41 178 107q-25 131 -366 192q-92 -197 -111 -280q-3 -20 -3 -29q0 -6 1 -12zM625 735q481 90 512 242q2 9 2 17q0 66 -133 116q-106 41 -238 51q-67 -229 -143 -426z" />
<glyph unicode="C" horiz-adv-x="1193" d="M188 422q29 139 123 328q89 178 203 313q254 303 512 303q249 0 249 -242q0 -63 -18 -143q-41 -186 -170 -186q-47 0 -79 28q-26 24 -27 52q0 7 2 14q12 51 20.5 75.5t20.5 75.5q8 39 8 67q0 61 -39 60q-84 0 -217 -139q-90 -92 -158 -201q-143 -225 -180 -401 q-8 -39 -8 -71q0 -146 174 -146q88 0 242 76q160 78 192 77q51 0 82 -30q26 -26 27 -57q0 -8 -2 -15q-10 -41 -78 -88q-90 -61 -266 -119q-162 -53 -285 -53q-201 0 -287 135q-53 82 -52 185q-1 48 11 102z" />
<glyph unicode="D" horiz-adv-x="1400" d="M211 240q14 66 102 358q45 164 179 555q-84 16 -85 76q0 10 3 20q18 84 145 109q43 8 209 8q354 0 559 -143q178 -124 178 -322q0 -51 -12 -108q-55 -260 -422 -523q-371 -270 -692 -270q-174 0 -174 156q0 38 10 84zM457 203q227 35 477 211q262 182 299 354 q12 59 12 104q0 41 -10 72q-33 106 -191 166q-135 51 -296 51q-61 -147 -265 -842q-16 -51 -20 -75z" />
<glyph unicode="E" horiz-adv-x="1370" d="M203 295q41 184 192 457q190 342 236 450q27 68 33 74q16 20 81 41q143 49 537 49q219 0 219 -91q0 -8 -2 -18q-8 -39 -51 -69.5t-92 -30.5q-12 0 -86 4q-37 2 -84 2q-164 0 -332 -26q-27 -68 -149 -297q292 86 393 86q49 0 82 -29q25 -22 24 -51q0 -8 -2 -17 q-12 -68 -112 -100q-35 -12 -164 -41q-82 -18 -348 -88q-96 -188 -123 -313q-6 -26 -6 -45q0 -41 26 -41q123 0 340 90t275 90q51 0 81 -31q25 -25 25 -51q0 -8 -2 -16q-8 -45 -84 -88q-109 -66 -324 -129q-221 -66 -333 -66q-157 0 -222 86q-38 50 -38 126q1 38 10 83z" />
<glyph unicode="F" horiz-adv-x="1103" d="M147 100q33 152 105 383q92 303 108 381q14 47 33 119q23 74 53 117q121 176 345 231q143 35 434 35q128 0 127 -76q0 -11 -2 -24q-8 -43 -52 -72q-41 -29 -174 -29q-369 0 -458 -143q-33 -49 -56 -150l-35 -153q393 121 484 121q49 0 80 -33q23 -25 22 -57q0 -10 -2 -21 q-12 -57 -106 -88q-33 -12 -189 -49l-352 -94l-43 -199q-27 -115 -74 -199q-51 -100 -141 -100q-53 0 -84 31q-25 25 -25 53q0 7 2 16z" />
<glyph unicode="G" horiz-adv-x="1241" d="M227 584q92 436 457 671q174 111 324 111q98 0 190 -51q88 -49 127 -121q11 -22 11 -40q0 -40 -56 -81q-45 -33 -94 -33q-43 0 -96 62q-51 59 -113 59q-178 0 -334 -223q-121 -172 -160 -344q-13 -61 -12 -116q0 -76 25 -138q53 -139 215 -139q66 0 135 35q66 33 98 83 q-25 74 -143 74h-25h-20q-51 0 -78 31q-22 25 -23 52q0 8 2 18q20 100 193 100q154 0 260 -78q93 -68 93 -162q0 -21 -5 -43q-25 -123 -207 -221q-168 -90 -327 -90q-162 0 -283 94q-115 88 -150 213q-20 64 -19 138q-1 66 15 139z" />
<glyph unicode="H" horiz-adv-x="1411" d="M164 100q27 127 102 375l117 375q47 166 84 342q18 82 43 115q41 59 127 59q51 0 84 -29q23 -20 23 -49q0 -9 -3 -20l-49 -230l-92 -313q358 66 553 66q66 201 98 319q16 70 45 156q51 100 146 100q45 0 80 -31q27 -24 26 -53q0 -8 -2 -16q-43 -209 -239 -793l-86 -258 q-10 -43 -37 -113q-53 -102 -150 -102q-51 0 -82 31q-25 25 -24 54q0 8 2 17q20 94 71 246l89 244q-203 -12 -549 -78l-76 -260q-12 -52 -49 -154q-51 -100 -146 -100q-53 0 -84 31q-25 25 -24 53q0 7 2 16z" />
<glyph unicode="I" horiz-adv-x="946" d="M164 63q20 92 225 119q47 322 68 414q51 242 147 563q-72 -10 -104 -10q-49 0 -84 29q-25 20 -25 49q0 9 2 18q25 121 336 121q5 0 18.5 0.5t23.5 0.5q14 0 28 -1h73q254 0 254 -97q0 -8 -2 -16q-8 -39 -51 -69.5t-94 -30.5q-47 0 -121 8q-115 -416 -141 -536 q-33 -154 -70 -410q10 2 27 2q55 0 88 -27q27 -22 26 -52q0 -8 -2 -17q-15 -74 -110 -98q-10 -2 -170 -23q-10 -2 -38 -6t-76 -12.5l-95 -16.5q-18 -4 -41 -4q-51 0 -76 31q-19 23 -18 52q0 9 2 19z" />
<glyph unicode="J" horiz-adv-x="1173" d="M111 303q10 41 53 68q45 27 96 26q37 0 78 -28l104 -88q51 -41 131 -70q31 -10 50 -10q123 0 231 264q61 147 104 346q30 141 31 240q0 56 -10 100q-158 -45 -256 -45q-49 0 -78 29q-21 21 -21 48q0 9 3 19q10 51 47 74q20 12 96 31q244 59 332 59q125 0 137 -227 q2 -32 2 -66q0 -123 -27 -248q-113 -535 -301 -706q-131 -119 -311 -119q-135 0 -276 68q-137 66 -195 161q-22 34 -22 62z" />
<glyph unicode="K" horiz-adv-x="1323" d="M154 104q25 119 106 359q119 348 123 358l84 293q18 76 43 152q51 100 145 100q47 0 82 -31q25 -22 25 -52q0 -8 -2 -17q-16 -80 -107 -377q49 31 152 121q111 96 254 204q207 162 252 162q51 0 80 -28q25 -25 24 -53q0 -8 -2 -17q-14 -66 -184 -199l-311 -233 q-172 -139 -187 -215q-3 -15 -3 -30q0 -89 110 -185l245 -174q122 -85 122 -136q0 -5 -1 -10q-10 -43 -55 -73q-47 -31 -100 -31q-29 0 -76 28q-231 150 -340 256q-82 78 -119 150l-82 -244q-25 -88 -49 -121q-43 -61 -131 -61q-55 0 -82 31q-19 21 -19 50q0 11 3 23z" />
<glyph unicode="L" horiz-adv-x="1138" d="M209 326q14 66 80 254q86 240 127 442q23 90 28 121q23 78 45 123q53 100 148 100q47 0 82 -31q25 -22 24 -52q0 -8 -2 -17q0 1 1 1q-1 0 -99 -337q-18 -72 -86 -299q-96 -291 -106 -344q-6 -26 -6 -45q0 -42 28 -41q113 0 445 184q72 41 122 66q39 16 64 16q45 0 82 -33 q27 -24 26 -53q0 -8 -2 -16q-10 -41 -77 -86q-145 -96 -349 -181q-240 -98 -376 -98q-212 0 -213 207q0 53 14 119z" />
<glyph unicode="M" horiz-adv-x="1822" d="M135 102l8 25q258 563 381 797l144 260q49 90 73 119q55 63 133 63q76 0 99 -68q9 -22 9 -79q0 -17 -1 -37q0 -285 39 -695l240 465l155 260q49 82 68 101q47 53 116 53q49 0 78.5 -28t29.5 -80q0 -22 -11 -111q-8 -58 -8 -139q0 -55 4 -121l32 -400q11 -138 11 -233.5 t-11 -151.5q-8 -41 -49 -71q-40 -31 -92 -31q-82 0 -104 66q-5 22 -5 76q0 21 1 46v33q0 80 -13 277q-16 197 -22 309l-316 -623q-41 -88 -63 -116q-49 -68 -125 -68q-72 0 -98 47q-14 20 -29 98q-47 309 -66 703q-158 -311 -317 -660q-39 -98 -59 -122q-49 -66 -136 -66 q-51 0 -77 31q-21 23 -21 52q0 9 2 19z" />
<glyph unicode="N" horiz-adv-x="1521" d="M152 96q55 258 190 617q160 422 297 581q61 72 131 72q49 0 80 -27.5t31 -78.5q0 -36 -35 -207q-35 -238 -35 -482q0 -379 135 -378q111 0 215 182q84 145 107 256q18 88 17 236q0 39 -1 81.5t-1 80.5q0 149 17 235q8 39 52 71q41 31 90 31q83 0 110 -74q14 -39 14 -102 q0 -21 -1 -45q-2 -23 -7.5 -74t-7.5 -78q-27 -344 -30 -364q-39 -182 -138 -330q-203 -303 -473 -303q-363 0 -363 537q0 18 1 36q-74 -199 -107 -358q-47 -211 -186 -211q-49 0 -82 29q-23 20 -23 48q1 9 3 19z" />
<glyph unicode="O" horiz-adv-x="1517" d="M240 569q61 289 252 512q238 283 557 283q309 0 450 -158q95 -108 95 -266q0 -63 -15 -133q-57 -274 -299 -522q-279 -285 -600 -285q-264 0 -381 186q-73 114 -73 255q0 61 14 128zM489 569q-13 -58 -12 -108q0 -153 119 -223q63 -35 119 -35q211 0 407 229 q170 197 209 381q11 50 11 93q0 255 -373 255q-152 0 -316 -243q-133 -199 -164 -349z" />
<glyph unicode="P" horiz-adv-x="1320" d="M180 100q35 164 144 523q104 356 141 522q-51 28 -51 77q0 10 2 21q12 59 110 90q104 33 373 33q256 0 430 -76q186 -81 186 -229q0 -27 -6 -55q-47 -213 -385 -375q-268 -127 -585 -180l-76 -238q-27 -104 -45 -133q-43 -80 -133 -80q-51 0 -82 31q-25 25 -25 53 q0 7 2 16zM596 659q205 43 389 123q250 104 275 228q2 8 1 15q0 77 -176 114q-113 23 -286 22h-76q-41 -185 -127 -502z" />
<glyph unicode="Q" horiz-adv-x="1511" d="M217 614q55 262 258 488q238 264 543 264q313 0 463 -217q94 -138 94 -310q0 -71 -16 -149q-43 -195 -191 -364q-158 -178 -383 -269q42 -132 42 -179q0 -9 -1 -15q-8 -37 -53 -70q-43 -31 -92 -31q-131 0 -152 240q-12 -2 -39 -2q-285 0 -411 201q-77 123 -78 272 q0 67 16 141zM467 610q-10 -47 -10 -92q0 -80 32 -151q57 -127 195 -162q-36 122 -36 165q0 9 1 15q8 35 53 68q43 31 95 30q113 0 145 -229q144 68 246 190q94 119 121 246q10 49 10 97q0 78 -27 149q-47 121 -159 186q-80 45 -146 45q-182 0 -348 -213 q-135 -172 -172 -344z" />
<glyph unicode="R" horiz-adv-x="1413" d="M268 96q31 145 97 375q63 225 153 649q-6 -6 -33 -6q-47 0 -79 29q-23 20 -23 50q0 9 2 19q18 86 186 125q121 29 256 29q326 0 516 -154q153 -122 154 -307q0 -52 -12 -108q-68 -326 -590 -465q221 -123 221 -216q0 -8 -2 -16q-10 -41 -53 -67q-47 -29 -96 -29 q-25 0 -76 31l-158 110q-95 65 -178 93l-16 -78q-33 -160 -164 -160q-49 0 -82 29q-25 22 -25 50q0 8 2 17zM614 469q199 37 369 111q227 98 252 223q4 20 4 39q0 108 -129 207q-143 106 -311 118q-35 -151 -185 -698z" />
<glyph unicode="S" d="M129 199q10 43 49 69q41 29 92 29q29 0 54 -6h-2q289 -90 516 -90q129 0 145 75q3 14 3 28q0 94 -128 216l-270 254q-123 131 -123 247q0 21 4 42q31 141 215 227q168 76 348 76q139 0 252 -47q125 -53 156 -152q6 -19 6 -35q0 -10 -2 -18q-10 -43 -51 -69.5t-93 -26.5 q-53 0 -124.5 71.5t-186.5 71.5q-80 0 -155 -20q-104 -27 -115 -78q-1 -6 -2 -13q0 -64 135 -190q231 -215 274 -270q115 -142 115 -271q0 -30 -6 -59q-27 -127 -176 -199q-125 -61 -293 -61q-125 0 -315 31q-223 37 -281 80q-42 32 -42 72q-1 8 1 16z" />
<glyph unicode="T" horiz-adv-x="1316" d="M317 1227q18 80 142 104q61 12 147 12q98 4 146 5q154 6 311 18q207 16 307 16q164 0 164 -83q0 -10 -2 -21q-20 -98 -201 -98h-291l-112 -496l-115 -489q-18 -88 -43 -127q-43 -68 -133 -68q-49 0 -82 29q-23 20 -23 48q0 9 3 19l20 93.5l37 177.5q92 311 149 573 l45 211q-233 -18 -368 -18q-104 0 -104 68q0 12 3 26z" />
<glyph unicode="U" horiz-adv-x="1419" d="M291 270q-26 89 -26 202q0 128 34 286q92 433 178 534q63 74 141 74q47 0 80 -33q23 -23 23 -52q0 -9 -2 -19q-10 -33 -66 -162q-51 -111 -102 -352q-27 -131 -28 -234q0 -52 7 -98q31 -215 207 -215q197 0 344 293q94 186 144 421q12 58 24.5 172t24.5 173q9 43 49 73 q43 33 92 33q80 0 109 -74q7 -19 7 -53q0 -74 -32 -223q-88 -412 -211 -631q-219 -385 -600 -385q-317 0 -397 270z" />
<glyph unicode="V" horiz-adv-x="1335" d="M354 1239q0 6 1 13.5t1 9.5q10 43 52 71q45 33 92 33q78 0 110 -74q27 -63 31 -182q4 -127 4 -188l20.5 -195l30.5 -276l543 753q49 72 78 105q63 57 129 57q47 0 82 -31q26 -24 26 -52q0 -7 -2 -15q-8 -33 -200 -271q-313 -389 -543 -774q-55 -92 -92 -137 q-70 -86 -150 -86q-94 0 -118 195q-4 86 -9 262q-8 123 -41 391q-35 256 -45 391z" />
<glyph unicode="W" horiz-adv-x="1863" d="M381 1239q0 6 1 14.5t1 10.5q10 43 49 71q43 31 94 31q82 0 107 -74q7 -16 7 -71q0 -18 -1 -41v-13q0 -55 18 -262q4 -49 14.5 -194.5l16.5 -233.5q217 401 322 643q39 92 57 115q49 63 121 63q92 0 108 -71q2 -10 2 -27q0 -39 -10 -106q-24 -146 -24 -367q0 -124 8 -268 l452 725q27 45 76 108q63 74 137 74q49 0 80 -31q26 -26 27 -54q0 -7 -2 -15q-20 -88 -207 -365l-266 -383l-187 -299q-80 -129 -86 -135q-68 -84 -145 -84q-88 0 -113 82q-10 35 -12 137q-8 106 -14 385q-113 -215 -260 -471q-37 -66 -66 -94q-49 -49 -119 -49 q-76 0 -98 65q-10 31 -10 121q-6 199 -37 533q-35 436 -41 530z" />
<glyph unicode="X" horiz-adv-x="1273" d="M141 133q8 27 23 49q39 66 475 531q-156 426 -156 537q0 14 2 24q8 39 53.5 65.5t98.5 26.5q66 0 100.5 -69.5t59.5 -186.5q37 -164 45 -188l213 221q170 154 250 153q51 0 81 -30q26 -26 27 -57q0 -8 -2 -15q-6 -33 -223 -238l-268 -254q6 -14 170 -370q73 -157 73 -219 q0 -9 -2 -17q-8 -41 -49 -69q-39 -27 -92 -27q-80 0 -184 213q-18 43 -111 281q-61 -68 -236 -277q-47 -57 -127 -135q-61 -49 -118 -49q-106 0 -106 73q0 12 3 27z" />
<glyph unicode="Y" horiz-adv-x="1433" d="M330 768q-18 69 -19 160q0 132 39 317q25 121 152 121q108 0 104 -135q-2 -10 -31 -275q-1 -14 0 -27q0 -146 93 -200q45 -23 77 -22q49 0 115 26q121 49 230 182q92 111 147 232q12 37 55 113q53 72 133 71q88 0 107 -96q4 -21 4 -50q0 -74 -27 -202q-68 -332 -159 -510 q-145 -283 -426 -414q-121 -59 -254 -59q-55 0 -88 27q-27 22 -27 52q0 8 2 17q14 68 94 92l150 33q274 82 401 522q-215 -236 -483 -235q-321 0 -389 260z" />
<glyph unicode="Z" horiz-adv-x="1458" d="M276 190q27 139 269 340q39 35 430 324q231 168 244 233q1 5 1 11q0 70 -247 69q-66 0 -201 -6q-180 -8 -203 -8q-188 0 -188 86q0 9 2 18q23 104 235 105q12 0 61.5 1t88.5 1t88 1t64 1q588 0 588 -222q0 -19 -5 -40q-20 -104 -229 -279l-406 -305q-242 -184 -317 -297 q63 -16 141 -16q132 0 381 37q158 23 209 22q46 0 74 -30q21 -23 21 -50q0 -9 -3 -18q-23 -98 -321 -141q-184 -27 -404 -27q-137 0 -250 41q-126 48 -125 125q-1 12 2 24z" />
<glyph unicode="[" horiz-adv-x="913" d="M215 109q29 135 115 385q88 264 155 579q27 111 54 170q23 47 39 64q14 14 71 34q77 25 215 25q51 0 84 -29q31 -29 23 -67q-20 -96 -203 -113q-137 -578 -268 -956h75q90 0 129 -25.5t29 -77.5q-8 -41 -51 -69q-41 -29 -250 -29q-119 0 -173 28t-44 81z" />
<glyph unicode="\" horiz-adv-x="880" d="M317 1266q10 45 50 69q47 31 94 31q70 0 104 -59q12 -20 31 -107q66 -244 199 -797q31 -117 57 -276q0 -20 -2 -29q-8 -39 -53 -67q-47 -31 -97 -31q-71 0 -104 74q-25 51 -47 155l-80 398l-96 329q-70 253 -56 310z" />
<glyph unicode="]" horiz-adv-x="917" d="M229 96q23 100 209 115q133 565 267 950q-43 2 -132 2q-53 0 -81 31q-29 33 -21 72q10 43 51 69q47 31 234 31q127 0 185 -28.5t48 -82.5q-29 -133 -110 -381q-94 -270 -166 -604q-25 -104 -45 -149q-31 -72 -113 -96q-80 -25 -217 -25q-55 0 -84 27q-33 30 -25 69z" />
<glyph unicode="^" horiz-adv-x="1185" d="M252 559q10 45 235.5 381t276.5 377q59 49 115 49q68 0 106 -49q66 -88 115 -354l53 -390q4 -23 0 -32q-9 -40 -55 -68q-47 -29 -99 -29q-80 0 -110 74q-18 45 -27 154q-8 104 -47 352q0 -2 -16.5 -29.5l-57.5 -96.5l-84 -144q-102 -178 -178 -244q-57 -51 -121 -51 q-51 0 -83.5 28.5t-22.5 71.5z" />
<glyph unicode="_" horiz-adv-x="1302" d="M272 0l29 137h754l-29 -137h-754z" />
<glyph unicode="`" horiz-adv-x="681" d="M487 1755q10 45 58 72q51 29 102 28q57 0 94 -49q158 -190 146 -245q-8 -41 -53.5 -76t-98.5 -35q-57 0 -104 53q-37 39 -90 123q-60 92 -54 129z" />
<glyph unicode="a" horiz-adv-x="1333" d="M109 109q57 258 256 581q199 322 430 535q157 141 307 141q247 0 247 -326q0 -125 -36 -297l-23 -90l-18 -88q-14 -68 -25 -127q-2 -12 -16 -168q-10 -121 -23 -172q-8 -41 -55 -69.5t-100 -28.5q-66 0 -84 41q-2 2 -21 86q-49 242 -452 305q-45 -92 -107 -252 q-10 -43 -45 -108q-49 -72 -135 -72q-55 0 -82 33q-21 25 -21 55q1 10 3 21zM590 631q244 -39 416 -156l86 402q0 92 2 110q5 34 5 67q0 25 -3 48q-8 59 -37 59q-59 0 -236 -194q-133 -152 -233 -336z" />
<glyph unicode="b" horiz-adv-x="1296" d="M193 254q23 100 86 244q109 236 108 239q4 8 141 434q-60 26 -60 74q0 10 3 21q20 100 203 100q736 0 736 -316q0 -31 -7 -65q-53 -242 -399 -358q167 -102 167 -240q0 -25 -6 -51q-25 -121 -147 -203q-92 -61 -254 -98q-152 -35 -277 -35q-302 0 -302 189q0 30 8 65z M438 209q33 -8 78 -8q106 0 223 30q154 41 179 107q-20 131 -367 192q-90 -201 -109 -280q-4 -29 -4 -41zM637 735q479 88 510 242q2 9 2 17q0 67 -131 116q-106 41 -238 51q-67 -229 -143 -426z" />
<glyph unicode="c" horiz-adv-x="1208" d="M197 422q29 145 120 328q89 178 203 313q254 303 512 303q249 0 249 -242q0 -63 -17 -143q-41 -186 -170 -186q-45 0 -80 28q-27 22 -27 50q0 8 2 16q12 51 20.5 75.5t20.5 75.5q9 40 9 69q0 59 -40 58q-84 0 -217 -139q-96 -102 -157 -201q-141 -221 -179 -401 q-8 -40 -8 -72q0 -145 172 -145q88 0 242 76q160 78 192 77q53 0 84 -30q25 -25 25 -55q0 -8 -2 -17q-10 -41 -78 -88q-90 -61 -266 -119q-162 -53 -283 -53q-201 0 -286 135q-53 82 -53 185q0 48 12 102z" />
<glyph unicode="d" horiz-adv-x="1413" d="M219 240q14 66 103 358q45 164 178 555q-82 16 -82 76q0 10 2 20q18 84 143 109q47 8 207 8q356 0 557 -143q182 -125 182 -324q0 -51 -12 -106q-55 -258 -424 -523q-373 -270 -690 -270q-174 0 -174 157q0 37 10 83zM463 203q227 35 477 211q262 182 299 354 q12 59 12 104q0 41 -10 72q-33 106 -188 166q-135 51 -299 51q-61 -147 -265 -842q-20 -72 -20 -75z" />
<glyph unicode="e" horiz-adv-x="1388" d="M211 295q41 184 192 457q190 342 236 450q23 63 33 74q16 18 82 41q143 49 536 49q219 0 219 -91q0 -8 -2 -18q-8 -39 -51 -69.5t-92 -30.5q-12 0 -86 4q-37 2 -84 2q-164 0 -332 -26q-27 -68 -149 -297q291 86 395 86q49 0 82 -29q25 -22 24 -51q0 -8 -2 -17 q-12 -68 -112 -100q-45 -14 -166 -41q-102 -23 -348 -88q-94 -182 -121 -313q-6 -29 -6 -48q0 -38 24 -38q123 0 340 90t275 90q51 0 82 -31q25 -25 24 -51q0 -8 -2 -16q-8 -45 -82 -88q-108 -65 -325 -129q-221 -66 -334 -66q-160 0 -221 86q-38 50 -38 126q0 38 9 83z" />
<glyph unicode="f" horiz-adv-x="1110" d="M154 100q31 139 102 383q92 292 111 381l32 119q23 74 54 117q121 176 342 231q143 35 434 35q130 0 129 -77q0 -11 -2 -23q-10 -45 -51 -72q-45 -29 -172 -29q-369 0 -459 -143q-35 -53 -58 -150l-36 -153q393 121 485 121q51 0 82 -33q23 -25 23 -57q0 -10 -3 -21 q-12 -57 -108 -88q-35 -12 -187 -49l-354 -94l-43 -189q-27 -123 -72 -209q-51 -100 -145 -100q-49 0 -80 31q-26 26 -26 54q0 7 2 15z" />
<glyph unicode="g" horiz-adv-x="1251" d="M233 584q92 436 457 671q174 111 322 111q98 0 190 -51t127 -121q9 -18 9 -37q0 -5 -1 -10q-10 -41 -51 -74t-96 -33q-46 0 -98 62q-51 59 -111 59q-176 0 -332 -223q-127 -180 -164 -344q-12 -58 -12 -110q0 -78 27 -144q55 -139 215 -139q66 0 135.5 34.5t97.5 83.5 q-25 74 -141 74h-25h-22q-47 0 -78 31q-23 23 -23 51q0 9 3 19q20 100 192 100q154 0 260 -78q90 -68 91 -161q0 -21 -5 -44q-25 -123 -203 -221q-170 -90 -329 -90q-164 0 -283 94q-111 86 -149 213q-19 61 -19 132q-1 68 16 145z" />
<glyph unicode="h" horiz-adv-x="1429" d="M170 100q27 127 102 375q88 270 119 375q37 135 82 342q18 82 43 115q43 59 129 59q49 0 82 -29q23 -20 23 -49q0 -9 -2 -20l-50 -230l-90 -313q358 66 555 66q35 111 94 319q16 70 46 156q49 100 147 100q45 0 80 -31q27 -24 26 -53q0 -8 -2 -16q-39 -193 -241 -793 q-10 -29 -84 -258q-27 -80 -39 -113q-53 -102 -150 -102q-51 0 -82 31q-23 23 -22 52q0 9 2 19q25 115 72 246l88 244q-205 -12 -549 -78q-29 -78 -80 -260q-16 -68 -47 -154q-49 -100 -143 -100q-53 0 -84 31q-26 26 -27 54q0 7 2 15z" />
<glyph unicode="i" horiz-adv-x="552" d="M121 100q39 176 106 394l123 391q10 39 53 192q33 113 76 189q59 100 146 100q47 0 82 -31q25 -22 24 -52q0 -8 -2 -17q-31 -152 -113 -377q-125 -354 -131 -377q-49 -156 -84 -319q-39 -193 -176 -193q-51 0 -82 31q-25 25 -24 53q0 7 2 16z" />
<glyph unicode="j" horiz-adv-x="1181" d="M113 303q9 40 55 68q45 27 96 26q35 0 76 -28l104 -88q51 -41 131 -70q35 -10 50 -10q121 0 229 264q70 176 107 346q29 137 29 240q0 56 -9 100q-154 -45 -256 -45q-49 0 -78 29q-21 21 -21 48q0 9 3 19q10 51 47 74q23 12 96 31q244 59 332 59q125 0 137 -227 q2 -32 2 -65q0 -120 -26 -249q-114 -538 -302 -706q-131 -119 -309 -119q-137 0 -278 68q-137 66 -195 161q-22 34 -22 62z" />
<glyph unicode="k" horiz-adv-x="1333" d="M160 104q25 119 106 359q106 311 121 358l84 293q12 55 45 152q49 100 143 100q49 0 84 -31q25 -22 25 -52q0 -8 -2 -17q-16 -80 -107 -377q49 31 152 121q111 96 254 204q207 162 252 162q51 0 80 -28q23 -23 22 -51q0 -9 -2 -19q-16 -70 -180 -199l-313 -233 q-172 -139 -187 -215q-3 -15 -3 -30q0 -88 108 -185q12 -10 248 -174q122 -85 121 -136q0 -5 -1 -10q-10 -43 -55 -73q-46 -31 -98 -31q-31 0 -78 28q-225 143 -340 256q-76 72 -119 150l-80 -244q-25 -84 -51 -121q-45 -61 -131 -61q-52 0 -80 31q-21 23 -21 53q1 9 3 20z " />
<glyph unicode="l" horiz-adv-x="1148" d="M213 326q10 47 82 254q80 227 125 442q20 66 31 121q23 78 45 123q49 100 145 100q49 0 84 -31q25 -22 25 -52q0 -8 -2 -17v1q-1 0 -99 -337l-88 -299q-96 -291 -106 -344q-6 -26 -6 -45q0 -42 28 -41q115 0 447 184q41 25 125 66q39 16 59 16q47 0 84 -33q27 -24 26 -53 q0 -8 -1 -16q-10 -41 -78 -86q-145 -98 -351 -181q-240 -98 -372 -98q-216 0 -217 208q0 53 14 118z" />
<glyph unicode="m" horiz-adv-x="1832" d="M137 102q4 12 10 25q246 545 379 797l146 260q49 90 73 119q55 63 136 63q74 0 96 -68q11 -27 11 -88q0 -13 -1 -28v-40q0 -264 37 -655l240 465l155 260q41 74 68 101q47 53 115 53q49 0 78 -28t29 -80q0 -22 -11 -111q-7 -51 -7 -134q0 -52 3 -126q16 -199 35 -400 q13 -141 12 -240q0 -91 -10 -145q-8 -41 -50 -71q-40 -31 -92 -31q-84 0 -106 66q-7 21 -7 79q0 20 1 43q1 28 0 58q0 116 -11 252q-20 279 -22 309q-82 -152 -316 -623q-41 -88 -63 -116q-53 -68 -125 -68t-98 47q-18 25 -29 98q-51 338 -65 703q-127 -242 -318 -660 q-37 -92 -61 -122q-49 -66 -133 -66q-52 0 -80 31q-21 23 -21 52q0 9 2 19z" />
<glyph unicode="n" horiz-adv-x="1568" d="M178 96q55 258 191 617q160 426 295 581q66 72 133 72q98 0 108 -100q1 -4 1 -11q0 -38 -34 -202q-33 -206 -33 -440q0 -21 1 -42q0 -379 133 -378q111 0 215 182q82 137 106 256q19 97 20 247q0 34 -1 70q-2 51 -2 96q0 143 16 220q8 39 51 71q39 31 90 31q80 0 109 -74 q16 -38 16 -103q0 -20 -2 -44q0 -6 -4 -63.5t-8 -88.5q-25 -322 -35 -364q-39 -182 -137 -330q-199 -303 -469 -303q-365 0 -365 538v35q-74 -199 -106 -358q-47 -211 -184 -211q-51 0 -84 29q-23 20 -23 48q0 9 2 19z" />
<glyph unicode="o" horiz-adv-x="1525" d="M244 569q61 289 252 512q233 283 557 283q305 0 450 -158q95 -108 95 -266q0 -63 -15 -133q-57 -272 -301 -522q-279 -285 -600 -285q-264 0 -381 186q-72 112 -72 252q1 62 15 131zM494 569q-13 -58 -13 -108q0 -153 119 -223q59 -35 119 -35q211 0 407 229 q170 197 209 381q11 50 11 93q0 255 -373 255q-152 0 -316 -243q-132 -199 -163 -349z" />
<glyph unicode="p" horiz-adv-x="1327" d="M188 100q45 211 140 523q104 344 143 522q-49 27 -49 76q0 10 2 22q12 59 108 90q104 33 371 33q260 0 434 -76q184 -80 185 -228q0 -27 -6 -56q-47 -213 -386 -375q-268 -127 -585 -180l-76 -238q-27 -100 -43 -133q-43 -80 -135 -80q-51 0 -82 31q-23 23 -23 50 q0 9 2 19zM600 659q203 43 391 123q250 106 275 228q2 8 1 15q0 77 -175 114q-113 23 -289 22h-74q-47 -209 -129 -502z" />
<glyph unicode="q" horiz-adv-x="1515" d="M219 614q55 266 256 488q240 264 545 264q311 0 463 -217q96 -137 96 -311q0 -71 -16 -148q-43 -195 -195 -364q-158 -180 -381 -269q42 -125 43 -177q0 -10 -2 -17q-8 -37 -53 -70q-43 -31 -92 -31q-129 0 -150 240q-12 -2 -41 -2q-283 0 -409 201q-79 122 -80 273 q0 67 16 140zM469 610q-10 -45 -10 -89q0 -80 33 -154q57 -129 194 -162q-36 122 -36 165q0 9 1 15q8 39 54 68q45 31 94 30q115 0 145 -229q144 68 246 190q94 119 121 246q10 49 10 97q0 78 -27 149q-45 119 -159 186q-80 45 -146 45q-186 0 -350 -213 q-133 -168 -170 -344z" />
<glyph unicode="r" horiz-adv-x="1421" d="M272 96q20 94 97 375q55 195 151 649q-4 -6 -28 -6q-49 0 -82 29q-25 22 -25 52q0 8 2 17q18 84 188 125q121 29 256 29q324 0 519 -154q153 -122 153 -307q0 -52 -12 -108q-68 -326 -594 -465q225 -125 225 -216q0 -8 -2 -16q-10 -41 -53 -67q-47 -29 -98 -29 q-25 0 -76 31l-160 110q-92 65 -178 93l-16 -78q-35 -160 -164 -160q-49 0 -82 29q-23 20 -23 48q0 9 2 19zM618 469q197 37 369 111q225 98 250 223q4 20 4 39q0 108 -129 207q-139 106 -309 118q-35 -151 -185 -698z" />
<glyph unicode="s" horiz-adv-x="1337" d="M131 199q10 43 49 69q41 29 90 29q31 0 56 -6h-2q289 -90 516 -90q129 0 145 75q3 14 3 28q0 94 -128 216l-272 254q-121 129 -121 246q0 22 4 43q31 141 215 227q168 76 348 76q139 0 250 -47q127 -53 158 -152q6 -19 6 -35q0 -10 -2 -18q-10 -43 -51 -69.5t-95 -26.5 q-51 0 -122.5 71.5t-186.5 71.5q-80 0 -155 -20q-106 -27 -117 -78q-1 -6 -2 -13q0 -65 137 -190q231 -215 274 -270q115 -142 115 -271q0 -30 -6 -59q-27 -127 -176 -199q-126 -61 -295 -61q-123 0 -313 31q-223 37 -281 80q-42 32 -42 72q-1 8 1 16z" />
<glyph unicode="t" horiz-adv-x="1320" d="M317 1227q18 80 142 104q61 12 147 12q98 4 146 5q154 6 311 18q209 16 307 16q166 0 166 -83q0 -10 -2 -21q-23 -98 -203 -98h-291l-112 -496l-115 -489q-18 -88 -43 -127q-43 -68 -133 -68q-49 0 -82 29q-23 20 -23 48q0 9 3 19q4 18 11 55t20.5 98.5l25.5 117.5 q92 311 149 573l45 211q-233 -18 -368 -18q-104 0 -104 68q0 12 3 26z" />
<glyph unicode="u" horiz-adv-x="1439" d="M299 270q-26 89 -26 202q0 128 34 286q92 434 180 534q66 74 140 74q47 0 80 -33q25 -25 24 -54q0 -8 -2 -17q-6 -18 -67 -162q-53 -123 -103 -352q-26 -124 -26 -227q0 -55 8 -105q31 -215 204 -215q197 0 345 293q98 193 145 421q12 58 25 172q14 133 22 173 q9 43 49 73q43 33 94 33q82 0 109 -74q6 -17 6 -49q0 -71 -33 -227q-88 -412 -211 -631q-219 -385 -596 -385q-319 0 -401 270z" />
<glyph unicode="v" horiz-adv-x="1337" d="M358 1262q10 43 52 71q45 33 94 33q74 0 106 -74q29 -68 35 -182q0 -125 2 -188q31 -256 51 -471l543 753q52 77 80 105q61 57 127 57q47 0 82 -31q25 -22 24 -50q0 -8 -2 -17q-10 -39 -196 -271q-311 -383 -545 -774q-55 -92 -92 -137q-71 -86 -148 -86q-94 0 -118 195 q-8 170 -11 262q-4 117 -39 391q-46 345 -46 401q0 3 0.5 7.5t0.5 5.5z" />
<glyph unicode="w" horiz-adv-x="1865" d="M381 1239q0 6 1 14.5t1 10.5q10 43 49 71q43 31 94 31q82 0 107 -74q7 -16 7 -71q0 -18 -1 -41v-13q0 -55 18 -262q4 -49 14.5 -194.5l16.5 -233.5q217 401 322 643q39 92 57 115q49 63 121 63q92 0 108 -71q2 -10 2 -27q0 -39 -10 -106q-24 -146 -24 -367q0 -124 8 -268 l452 725q27 45 76 108q63 74 137 74q49 0 80 -31q26 -26 27 -54q0 -7 -2 -15q-20 -88 -207 -365l-266 -383l-187 -299q-80 -129 -86 -135q-68 -84 -145 -84q-88 0 -113 82q-10 35 -12 137q-8 106 -14 385q-113 -215 -260 -471q-37 -66 -66 -94q-49 -49 -119 -49 q-76 0 -98 65q-10 31 -10 121q-6 199 -37 533q-35 436 -41 530z" />
<glyph unicode="x" horiz-adv-x="1277" d="M143 133q4 18 23 49q39 66 475 531q-156 426 -156 537q0 14 2 24q8 39 53.5 65.5t98.5 26.5q66 0 100 -70q31 -63 58 -186q33 -143 47 -188l213 221q166 154 250 153q51 0 82 -30q26 -26 26 -57q0 -8 -2 -15q-8 -37 -223 -238l-270 -254l172 -370q73 -157 73 -219 q0 -9 -2 -17q-8 -41 -49 -69q-39 -27 -92 -27q-82 0 -184 213q-47 106 -113 281l-236 -277q-35 -45 -127 -135q-61 -49 -118 -49q-104 0 -104 73q0 12 3 27z" />
<glyph unicode="y" horiz-adv-x="1431" d="M330 768q-18 69 -19 160q0 132 39 317q25 121 152 121q103 0 102 -121v-14l-29 -275q-1 -14 0 -27q0 -146 93 -200q45 -23 77 -22q49 0 115 26q121 49 230 182q98 117 147 232q20 53 55 113q53 72 133 71q88 0 107 -96q3 -18 3 -44q0 -77 -28 -208q-70 -338 -157 -510 q-150 -283 -426 -414q-125 -59 -256 -59q-53 0 -86 27q-27 22 -27 52q0 8 2 17q14 68 94 92q92 18 150 33q276 83 399 522q-215 -236 -481 -235q-321 0 -389 260z" />
<glyph unicode="z" horiz-adv-x="1458" d="M276 190q27 139 269 340q39 35 432 324q231 168 244 233q1 5 1 11q0 70 -247 69q-68 0 -203 -6q-180 -8 -201 -8q-190 0 -190 86q0 9 2 18q23 104 235 105q12 0 63.5 1t88.5 1t88 1t64 1q586 0 586 -222q0 -19 -5 -40q-20 -104 -229 -279l-404 -305q-242 -184 -317 -297 q59 -16 141 -16q132 0 381 37q154 23 207 22q49 0 76 -30q21 -23 21 -50q0 -9 -3 -18q-23 -98 -323 -141q-180 -27 -404 -27q-135 0 -248 41q-128 48 -127 126q-1 11 2 23z" />
<glyph unicode="{" horiz-adv-x="1167" d="M213 612q15 74 147 111q35 10 211 31q-47 100 -65 147q-28 86 -12 160q35 156 241 237q180 68 383 68q53 0 82 -28.5t21 -71.5q-16 -78 -144 -101q-47 -6 -94 -11t-96 -11q-133 -25 -145.5 -80t44.5 -168q58 -114 43 -184q-18 -88 -149 -107q113 -12 92 -119 q-10 -39 -90 -98q-82 -59 -96 -92q39 -55 221 -88q74 -16 106.5 -42t24.5 -65q-8 -37 -53 -69q-43 -31 -97 -31q-186 0 -325 78q-158 90 -127 229q12 53 61 96q12 10 109 76q-45 6 -94.5 14.5l-100.5 16.5q-114 28 -98 102z" />
<glyph unicode="|" horiz-adv-x="727" d="M332 0q-131 0 139 1268q14 41 55 69.5t95 28.5q55 0 84 -29q29 -31 20 -69l-107 -492l-106 -493l-18 -93l-9.5 -54.5t-7.5 -39.5q-8 -41 -51 -69q-39 -27 -94 -27z" />
<glyph unicode="}" horiz-adv-x="1169" d="M244 106q12 61 82 87q47 16 143 22q102 6 139 18q98 34 111 93q12 51 -45 157q-55 104 -43 166q18 88 131 103q-95 28 -74 122q12 57 64 107q20 20 110 82q-23 61 -200 92q-164 31 -146 111q8 37 53 69q43 31 95 31q184 0 325 -80q158 -88 127 -231q-12 -61 -55 -99 q-18 -16 -109 -73q121 -18 193 -33q119 -31 102 -107q-20 -106 -358 -135q57 -111 63 -141q31 -82 15 -156q-35 -154 -244 -239q-174 -70 -381 -70q-55 0 -82 31q-26 28 -16 73z" />
<glyph unicode="~" horiz-adv-x="1660" d="M274 391q31 139 195 271q170 135 342 135q168 0 217 -105q12 -23 2 -98q-8 -78 -2 -109q16 -53 82 -53q115 0 174 98q31 51 55.5 170t133.5 119q53 0 88 -28q33 -27 22 -74q-45 -223 -164 -332q-139 -125 -407 -125q-123 0 -150 86q0 4 -2 20.5t-6 59.5l-8 82 q-6 84 -70 84q-92 0 -158 -80l-98 -147q-59 -82 -135 -82q-57 0 -88 30.5t-23 77.5z" />
<glyph unicode="&#xa2;" horiz-adv-x="1648" d="M358 639q41 197 244 350.5t455 184.5q29 88 59 124q51 68 137 68q51 0 84 -33q29 -29 19 -76q-6 -31 -39 -86q262 -53 293 -266q4 -23 2 -31q-10 -39 -49 -69q-43 -33 -86 -33q-78 0 -97 51q-4 25 -9 48.5l-9 43.5q-27 51 -131 52l-244 -547q143 0 316 24q16 2 28 2 q61 0 90 -26q31 -29 23 -74q-16 -72 -115 -102q-129 -39 -442 -39l-25 -45q-43 -89 -55 -105q-45 -55 -119 -55q-53 0 -90 30.5t-29 71.5q6 29 66 150q-338 98 -277 387zM610 629q-25 -119 123 -176q154 326 228 497q-133 -63 -230 -141q-101 -82 -121 -180z" />
<glyph unicode="&#xa3;" horiz-adv-x="1800" d="M236 668q6 33 45 69q39 35 79 35q12 0 27 -2q139 -23 289 -22q-20 133 -6 196q41 190 186 303q156 119 385 119q125 0 223 -31q121 -41 152 -114q10 -23 6 -50q-8 -43 -57 -75q-47 -33 -107 -33q-10 0 -98 47q-84 45 -170 45q-90 0 -166 -59q-74 -59 -90 -135 q-15 -74 12 -209h217q90 2 221 2q55 0 84 -29q31 -29 21 -76q-10 -43 -51 -74q-41 -29 -99 -28h-178q-147 -6 -176 -6q10 -96 -8 -172q-18 -94 -82 -158q94 -4 129 -4q31 0 264 8q174 6 262 6q53 0 84 -30.5t21 -73.5t-51 -74q-43 -31 -97 -31q-92 0 -270 -6t-268 -6 q-342 0 -459 47q-84 35 -70 98q14 66 141.5 115t139.5 109q15 68 -6 172q-115 2 -189 2q-111 4 -184 18q-124 25 -106 107z" />
<glyph unicode="&#xa5;" horiz-adv-x="1636" d="M358 152q18 78 129 106q49 14 193 14l19.5 75t21.5 79q-123 -6 -207 -6q-55 0 -84 29q-31 31 -20 73q22 104 159 105q-170 111 -106 403q41 199 92 270q49 66 154 66q47 0 79 -33q31 -31 23 -71q-12 -59 -39 -135t-39 -136q-53 -238 211 -237q190 0 285 106 q74 84 106 242q2 12 15 78l16 80q10 45 47 73q43 33 94 33q111 0 133 -70q16 -57 -14 -200q-63 -303 -321 -447q98 -14 79 -100q-8 -45 -51 -76q-41 -29 -96 -29h-240l-32 -159q57 2 108 5t73.5 4t24.5 1q52 0 86 -31t25 -74q-18 -80 -156 -104q-61 -10 -213 -10 q-33 0 -59 -39q-25 -37 -113 -37q-80 0 -102 66l-141 -11q-80 0 -115 24t-25 73z" />
<glyph unicode="&#xa9;" horiz-adv-x="2131" d="M326 649q57 270 364 493.5t643 223.5q395 0 604 -244q195 -231 127 -551q-59 -268 -366 -426q-281 -145 -627 -145q-365 0 -582 176q-224 184 -163 473zM573 641q-43 -209 127 -330q160 -111 428 -110q227 0 422 94q225 109 262 280q45 211 -102 396q-154 195 -412 194 q-229 0 -456.5 -170t-268.5 -354zM805 631q33 156 205 266q176 113 368 113q92 0 132 -27t30 -80q-20 -100 -121 -100q-14 0 -24 2q-20 4 -25 4q-109 0 -199 -49q-96 -53 -114 -139q-10 -41 43 -66q39 -16 94 -16q80 0 104 4q66 8 74 8q25 0 60 -31q33 -29 22 -69 q-25 -111 -268 -111q-184 0 -291 70q-121 78 -90 221z" />
<glyph unicode="&#xad;" d="M352 557q8 39 51 72q41 33 93 33q45 0 79.5 -2.5t79.5 -2.5q74 0 228 7q205 8 227 8q53 0 84 -31t20 -74q-8 -45 -51 -75q-41 -29 -96 -29q-100 0 -247.5 -8.5t-248.5 -8.5q-244 0 -219 111z" />
<glyph unicode="&#xae;" horiz-adv-x="2060" d="M336 688q59 270 293 465q254 213 577 213q408 0 635 -172q244 -188 176 -506q-57 -279 -321 -475q-272 -207 -621 -207q-346 0 -573 205q-223 203 -166 477zM584 682q-43 -195 139 -340q168 -137 416 -137q233 0 417 153q172 143 211 336q39 197 -125 334 q-160 135 -407 135q-255 0 -436 -141q-172 -135 -215 -340zM791 944q16 80 172 117q106 27 233 26q172 0 270 -61q117 -72 90 -203q-35 -156 -290 -256q131 -49 164 -69q98 -55 86 -119q-10 -41 -57.5 -69.5t-98.5 -28.5q-29 0 -90 30l-84 51q-4 2 -20.5 9.5l-44 19.5 t-58.5 27q-43 -129 -154 -129q-55 0 -85.5 30.5t-22.5 73.5l30 119l29 119q4 20 16.5 72.5t30.5 142.5q-61 0 -93.5 26.5t-22.5 71.5zM1130 729q164 59 176.5 114.5t-79.5 55.5h-4q-4 0 -20.5 -1t-37.5 -3z" />
<glyph unicode="&#xb4;" horiz-adv-x="694" d="M449 1561q6 31 135 139q125 104 172 131q51 29 94 29q51 0 86 -29q33 -27 22 -74q-10 -35 -53 -76q-49 -43 -225 -178q-72 -53 -125 -53q-55 0 -86 35q-30 33 -20 76z" />
<glyph unicode="&#x2000;" horiz-adv-x="927" />
<glyph unicode="&#x2001;" horiz-adv-x="1857" />
<glyph unicode="&#x2002;" horiz-adv-x="927" />
<glyph unicode="&#x2003;" horiz-adv-x="1857" />
<glyph unicode="&#x2004;" horiz-adv-x="618" />
<glyph unicode="&#x2005;" horiz-adv-x="462" />
<glyph unicode="&#x2006;" horiz-adv-x="307" />
<glyph unicode="&#x2007;" horiz-adv-x="307" />
<glyph unicode="&#x2008;" horiz-adv-x="231" />
<glyph unicode="&#x2009;" horiz-adv-x="370" />
<glyph unicode="&#x200a;" horiz-adv-x="102" />
<glyph unicode="&#x2010;" d="M352 557q8 39 51 72q41 33 93 33q45 0 79.5 -2.5t79.5 -2.5q74 0 228 7q205 8 227 8q53 0 84 -31t20 -74q-8 -45 -51 -75q-41 -29 -96 -29q-100 0 -247.5 -8.5t-248.5 -8.5q-244 0 -219 111z" />
<glyph unicode="&#x2011;" d="M352 557q8 39 51 72q41 33 93 33q45 0 79.5 -2.5t79.5 -2.5q74 0 228 7q205 8 227 8q53 0 84 -31t20 -74q-8 -45 -51 -75q-41 -29 -96 -29q-100 0 -247.5 -8.5t-248.5 -8.5q-244 0 -219 111z" />
<glyph unicode="&#x2012;" d="M352 557q8 39 51 72q41 33 93 33q45 0 79.5 -2.5t79.5 -2.5q74 0 228 7q205 8 227 8q53 0 84 -31t20 -74q-8 -45 -51 -75q-41 -29 -96 -29q-100 0 -247.5 -8.5t-248.5 -8.5q-244 0 -219 111z" />
<glyph unicode="&#x2013;" d="M352 557q8 39 51 72q41 33 93 33q45 0 79.5 -2.5t79.5 -2.5q74 0 228 7q205 8 227 8q53 0 84 -31t20 -74q-8 -45 -51 -75q-41 -29 -96 -29q-100 0 -247.5 -8.5t-248.5 -8.5q-244 0 -219 111z" />
<glyph unicode="&#x2014;" horiz-adv-x="1671" d="M362 557q8 39 52 72q41 33 92 33q45 0 80 -2.5t80 -2.5q129 0 387 7q344 8 389 8q57 0 84 -31q29 -33 20 -74q-8 -45 -51 -75q-41 -29 -98 -29q-168 0 -407.5 -8.5t-407.5 -8.5q-245 0 -220 111z" />
<glyph unicode="&#x2018;" horiz-adv-x="649" d="M383 1266q8 39 57 69.5t101 30.5q66 0 211 -252q14 -27 8 -51q-8 -39 -57.5 -69.5t-104.5 -30.5q-70 0 -209 247q-12 25 -6 56z" />
<glyph unicode="&#x2019;" horiz-adv-x="657" d="M350 1047q6 27 92 133q84 102 117 133q57 53 123 53q55 0 86 -31q29 -29 20 -71q-6 -33 -90 -140q-72 -88 -118 -133q-53 -51 -113 -51q-51 0 -90 33q-37 31 -27 74z" />
<glyph unicode="&#x201c;" horiz-adv-x="1339" d="M453 1266q8 39 59 69q49 31 100 31q65 0 209 -252q16 -29 10 -51q-8 -39 -57 -69.5t-102 -30.5q-70 0 -209 247q-16 29 -10 56zM971 1253q8 43 59 74q53 33 105 33q53 0 88 -53l133 -177q27 -37 18 -69q-10 -45 -53 -78q-45 -33 -100 -33q-41 0 -82 31q-37 29 -109 129 q-67 104 -59 143z" />
<glyph unicode="&#x201d;" horiz-adv-x="1378" d="M475 1047q6 27 92 133q80 98 115 133q59 53 125 53q53 0 84 -30.5t22 -71.5q-6 -35 -92 -140q-74 -94 -116 -133q-53 -51 -113 -51q-51 0 -90 33q-37 31 -27 74zM940 1040q6 25 31 52l174 196q66 78 141 78q49 0 84 -30.5t24.5 -71.5t-94.5 -144q-76 -92 -126 -135 q-59 -51 -123 -51q-49 0 -86 33q-34 30 -25 73z" />
<glyph unicode="&#x2022;" horiz-adv-x="1345" d="M336 633q31 150 153 248q127 100 318 100q213 0 362 -115q154 -120 117 -288q-31 -143 -190 -242q-164 -100 -340 -100q-229 0 -344 108.5t-76 288.5z" />
<glyph unicode="&#x2026;" horiz-adv-x="1863" d="M237.5 119q10.5 49 79.5 92q71 43 129 43q137 0 109 -127q-10 -45 -63 -88q-47 -39 -115 -39q-59 0 -104.5 35t-35 84zM838 156q10 47 80 90q74 45 129 45q137 0 108 -127q-12 -53 -61.5 -90t-114.5 -37q-61 0 -106 35t-35 84zM1364 113q12 57 51 92q49 45 113 45 q59 0 108.5 -37t38.5 -84q-12 -49 -65 -88q-57 -41 -115 -41q-61 0 -100 33q-40 34 -31 80z" />
<glyph unicode="&#x202f;" horiz-adv-x="370" />
<glyph unicode="&#x205f;" horiz-adv-x="462" />
<glyph unicode="&#x20ac;" horiz-adv-x="2015" d="M168 389q20 111 285 111h67q29 -2 55 -2q18 82 64 174h-172q-119 0 -156 10q-77 22 -61 92q10 43 51 72q43 31 96 31q35 0 62 -3h63q139 0 240 9q150 207 366 338q244 145 502 145q144 0 258 -61q115 -68 144 -172q8 -27 4 -54q-10 -41 -51 -67q-45 -29 -95 -29 q-63 0 -94 45q-47 70 -57 90q-47 45 -148 45q-123 0 -286 -84q-143 -72 -236 -170q252 25 393 25q47 0 80 -33q31 -31 23 -70q-8 -43 -54 -73q-41 -29 -100 -29q-55 0 -270 -18q-12 0 -43 -3l-85.5 -8.5t-107.5 -9.5q-53 -94 -74 -184q231 8 426 8q53 0 82 -29 q27 -27 19 -69q-16 -76 -105 -97q-45 -10 -157 -10h-242q76 -104 297 -104q141 0 487 65q18 4 35 4q53 0 80 -32q29 -35 21 -74q-12 -58 -111 -92q-240 -76 -561 -76q-207 0 -344 70q-150 76 -185 225q-190 -6 -301 -6q-53 0 -82 28q-30 31 -22 72z" />
<glyph unicode="&#x2122;" horiz-adv-x="2304" d="M442 1249q12 59 109 78q57 10 174 10q57 0 254 14.5t254 14.5q68 0 98.5 -20.5t22.5 -59.5q-14 -74 -152 -74h-215l-80 -372q-76 -287 -92 -367q-31 -143 -133 -143q-47 0 -66.5 18.5t-11.5 52.5q9 40 43 203q78 254 115 430l33 160q-219 -16 -277 -16q-45 0 -64.5 18 t-11.5 53zM973 406q25 109 293 616q2 2 106 195q35 68 55 90q43 47 103 47q78 0 78 -140q-2 -160 30 -520q45 96 179 348l114 195q63 117 142 117q70 0 77 -74q0 -25 -8 -90q-6 -76 -4 -195q4 -16 31 -284q16 -158 0 -287v-6q-12 -88 -109 -88q-66 0 -80 47q-6 25 -4 92 q6 78 -8 231q-16 193 -16 234q-176 -328 -238 -465q-61 -139 -139 -139q-82 0 -96 106q-35 225 -49 529q-158 -309 -236 -496q-31 -70 -49 -92q-35 -47 -98 -47q-37 0 -60 22q-20 21 -14 54z" />
<glyph unicode="&#xe000;" horiz-adv-x="1365" d="M0 1365h1365v-1365h-1365v1365z" />
<glyph unicode="&#xfb01;" horiz-adv-x="1662" d="M1231 100q39 176 106 394l123 391q10 39 53 192q33 113 76 189q59 100 146 100q47 0 82 -31q25 -22 24 -52q0 -8 -2 -17q-31 -152 -113 -377q-125 -354 -131 -377q-49 -156 -84 -319q-39 -193 -176 -193q-51 0 -82 31q-25 25 -24 53q0 7 2 16zM154 100q31 139 102 383 q92 292 111 381l32 119q23 74 54 117q121 176 342 231q143 35 434 35q130 0 129 -77q0 -11 -2 -23q-10 -45 -51 -72q-45 -29 -172 -29q-369 0 -459 -143q-35 -53 -58 -150l-36 -153q393 121 485 121q51 0 82 -33q23 -25 23 -57q0 -10 -3 -21q-12 -57 -108 -88 q-35 -12 -187 -49l-354 -94l-43 -189q-27 -123 -72 -209q-51 -100 -145 -100q-49 0 -80 31q-26 26 -26 54q0 7 2 15z" />
<glyph unicode="&#xfb02;" horiz-adv-x="2258" d="M1323 326q10 47 82 254q80 227 125 442q20 66 31 121q23 78 45 123q49 100 145 100q49 0 84 -31q25 -22 25 -52q0 -8 -2 -17v1q-1 0 -99 -337l-88 -299q-96 -291 -106 -344q-6 -26 -6 -45q0 -42 28 -41q115 0 447 184q41 25 125 66q39 16 59 16q47 0 84 -33 q27 -24 26 -53q0 -8 -1 -16q-10 -41 -78 -86q-145 -98 -351 -181q-240 -98 -372 -98q-216 0 -217 208q0 53 14 118zM154 100q31 139 102 383q92 292 111 381l32 119q23 74 54 117q121 176 342 231q143 35 434 35q130 0 129 -77q0 -11 -2 -23q-10 -45 -51 -72 q-45 -29 -172 -29q-369 0 -459 -143q-35 -53 -58 -150l-36 -153q393 121 485 121q51 0 82 -33q23 -25 23 -57q0 -10 -3 -21q-12 -57 -108 -88q-35 -12 -187 -49l-354 -94l-43 -189q-27 -123 -72 -209q-51 -100 -145 -100q-49 0 -80 31q-26 26 -26 54q0 7 2 15z" />
<glyph unicode="&#xfb03;" horiz-adv-x="2772" d="M2343 100q39 176 106 394l123 391q10 39 53 192q33 113 76 189q59 100 146 100q47 0 82 -31q25 -22 24 -52q0 -8 -2 -17q-31 -152 -113 -377q-125 -354 -131 -377q-49 -156 -84 -319q-39 -193 -176 -193q-51 0 -82 31q-25 25 -24 53q0 7 2 16zM1264 100q31 139 102 383 q92 292 111 381l32 119q23 74 54 117q121 176 342 231q143 35 434 35q130 0 129 -77q0 -11 -2 -23q-10 -45 -51 -72q-45 -29 -172 -29q-369 0 -459 -143q-35 -53 -58 -150l-36 -153q393 121 485 121q51 0 82 -33q23 -25 23 -57q0 -10 -3 -21q-12 -57 -108 -88 q-35 -12 -187 -49l-354 -94l-43 -189q-27 -123 -72 -209q-51 -100 -145 -100q-49 0 -80 31q-26 26 -26 54q0 7 2 15zM154 100q31 139 102 383q92 292 111 381l32 119q23 74 54 117q121 176 342 231q143 35 434 35q130 0 129 -77q0 -11 -2 -23q-10 -45 -51 -72 q-45 -29 -172 -29q-369 0 -459 -143q-35 -53 -58 -150l-36 -153q393 121 485 121q51 0 82 -33q23 -25 23 -57q0 -10 -3 -21q-12 -57 -108 -88q-35 -12 -187 -49l-354 -94l-43 -189q-27 -123 -72 -209q-51 -100 -145 -100q-49 0 -80 31q-26 26 -26 54q0 7 2 15z" />
<glyph unicode="&#xfb04;" horiz-adv-x="3368" d="M2435 326q10 47 82 254q80 227 125 442q20 66 31 121q23 78 45 123q49 100 145 100q49 0 84 -31q25 -22 25 -52q0 -8 -2 -17v1q-1 0 -99 -337l-88 -299q-96 -291 -106 -344q-6 -26 -6 -45q0 -42 28 -41q115 0 447 184q41 25 125 66q39 16 59 16q47 0 84 -33 q27 -24 26 -53q0 -8 -1 -16q-10 -41 -78 -86q-145 -98 -351 -181q-240 -98 -372 -98q-216 0 -217 208q0 53 14 118zM1264 100q31 139 102 383q92 292 111 381l32 119q23 74 54 117q121 176 342 231q143 35 434 35q130 0 129 -77q0 -11 -2 -23q-10 -45 -51 -72 q-45 -29 -172 -29q-369 0 -459 -143q-35 -53 -58 -150l-36 -153q393 121 485 121q51 0 82 -33q23 -25 23 -57q0 -10 -3 -21q-12 -57 -108 -88q-35 -12 -187 -49l-354 -94l-43 -189q-27 -123 -72 -209q-51 -100 -145 -100q-49 0 -80 31q-26 26 -26 54q0 7 2 15zM154 100 q31 139 102 383q92 292 111 381l32 119q23 74 54 117q121 176 342 231q143 35 434 35q130 0 129 -77q0 -11 -2 -23q-10 -45 -51 -72q-45 -29 -172 -29q-369 0 -459 -143q-35 -53 -58 -150l-36 -153q393 121 485 121q51 0 82 -33q23 -25 23 -57q0 -10 -3 -21 q-12 -57 -108 -88q-35 -12 -187 -49l-354 -94l-43 -189q-27 -123 -72 -209q-51 -100 -145 -100q-49 0 -80 31q-26 26 -26 54q0 7 2 15z" />
</font>
</defs>
</svg>
